  0
SECTION
  2
HEADER
  9
$ACADVER
  1
AC1027
  9
$ACADMAINTVER
 70
105
  9
$DWGCODEPAGE
  3
ANSI_1252
  9
$LASTSAVEDBY
  1
ezdxf
  9
$REQUIREDVERSIONS
160
0
  9
$INSBASE
 10
0.0
 20
0.0
 30
0.0
  9
$EXTMIN
 10
1e+20
 20
1e+20
 30
1e+20
  9
$EXTMAX
 10
-1e+20
 20
-1e+20
 30
-1e+20
  9
$LIMMIN
 10
0.0
 20
0.0
  9
$LIMMAX
 10
420.0
 20
297.0
  9
$ORTHOMODE
 70
0
  9
$REGENMODE
 70
1
  9
$FILLMODE
 70
1
  9
$QTEXTMODE
 70
0
  9
$MIRRTEXT
 70
1
  9
$LTSCALE
 40
1.0
  9
$ATTMODE
 70
1
  9
$TEXTSIZE
 40
2.5
  9
$TRACEWID
 40
1.0
  9
$TEXTSTYLE
  7
Standard
  9
$CLAYER
  8
0
  9
$CELTYPE
  6
ByLayer
  9
$CECOLOR
 62
256
  9
$CELTSCALE
 40
1.0
  9
$DISPSILH
 70
0
  9
$DIMSCALE
 40
1.0
  9
$DIMASZ
 40
2.5
  9
$DIMEXO
 40
0.625
  9
$DIMDLI
 40
3.75
  9
$DIMRND
 40
0.0
  9
$DIMDLE
 40
0.0
  9
$DIMEXE
 40
1.25
  9
$DIMTP
 40
0.0
  9
$DIMTM
 40
0.0
  9
$DIMTXT
 40
2.5
  9
$DIMCEN
 40
2.5
  9
$DIMTSZ
 40
0.0
  9
$DIMTOL
 70
0
  9
$DIMLIM
 70
0
  9
$DIMTIH
 70
0
  9
$DIMTOH
 70
0
  9
$DIMSE1
 70
0
  9
$DIMSE2
 70
0
  9
$DIMTAD
 70
1
  9
$DIMZIN
 70
8
  9
$DIMBLK
  1

  9
$DIMASO
 70
1
  9
$DIMSHO
 70
1
  9
$DIMPOST
  1

  9
$DIMAPOST
  1

  9
$DIMALT
 70
0
  9
$DIMALTD
 70
3
  9
$DIMALTF
 40
0.03937007874
  9
$DIMLFAC
 40
1.0
  9
$DIMTOFL
 70
1
  9
$DIMTVP
 40
0.0
  9
$DIMTIX
 70
0
  9
$DIMSOXD
 70
0
  9
$DIMSAH
 70
0
  9
$DIMBLK1
  1

  9
$DIMBLK2
  1

  9
$DIMSTYLE
  2
ISO-25
  9
$DIMCLRD
 70
0
  9
$DIMCLRE
 70
0
  9
$DIMCLRT
 70
0
  9
$DIMTFAC
 40
1.0
  9
$DIMGAP
 40
0.625
  9
$DIMJUST
 70
0
  9
$DIMSD1
 70
0
  9
$DIMSD2
 70
0
  9
$DIMTOLJ
 70
0
  9
$DIMTZIN
 70
8
  9
$DIMALTZ
 70
0
  9
$DIMALTTZ
 70
0
  9
$DIMUPT
 70
0
  9
$DIMDEC
 70
2
  9
$DIMTDEC
 70
2
  9
$DIMALTU
 70
2
  9
$DIMALTTD
 70
3
  9
$DIMTXSTY
  7
Standard
  9
$DIMAUNIT
 70
0
  9
$DIMADEC
 70
0
  9
$DIMALTRND
 40
0.0
  9
$DIMAZIN
 70
0
  9
$DIMDSEP
 70
44
  9
$DIMATFIT
 70
3
  9
$DIMFRAC
 70
0
  9
$DIMLDRBLK
  1

  9
$DIMLUNIT
 70
2
  9
$DIMLWD
 70
-2
  9
$DIMLWE
 70
-2
  9
$DIMTMOVE
 70
0
  9
$DIMFXL
 40
1.0
  9
$DIMFXLON
 70
0
  9
$DIMJOGANG
 40
0.785398163397
  9
$DIMTFILL
 70
0
  9
$DIMTFILLCLR
 70
0
  9
$DIMARCSYM
 70
0
  9
$DIMLTYPE
  6

  9
$DIMLTEX1
  6

  9
$DIMLTEX2
  6

  9
$DIMTXTDIRECTION
 70
0
  9
$LUNITS
 70
2
  9
$LUPREC
 70
4
  9
$SKETCHINC
 40
1.0
  9
$FILLETRAD
 40
10.0
  9
$AUNITS
 70
0
  9
$AUPREC
 70
2
  9
$MENU
  1
.
  9
$ELEVATION
 40
0.0
  9
$PELEVATION
 40
0.0
  9
$THICKNESS
 40
0.0
  9
$LIMCHECK
 70
0
  9
$CHAMFERA
 40
0.0
  9
$CHAMFERB
 40
0.0
  9
$CHAMFERC
 40
0.0
  9
$CHAMFERD
 40
0.0
  9
$SKPOLY
 70
0
  9
$TDCREATE
 40
2459845.923240741
  9
$TDUCREATE
 40
2458532.153996898
  9
$TDUPDATE
 40
2459845.923240741
  9
$TDUUPDATE
 40
2458532.1544311
  9
$TDINDWG
 40
0.0
  9
$TDUSRTIMER
 40
0.0
  9
$USRTIMER
 70
1
  9
$ANGBASE
 50
0.0
  9
$ANGDIR
 70
0
  9
$PDMODE
 70
0
  9
$PDSIZE
 40
0.0
  9
$PLINEWID
 40
0.0
  9
$SPLFRAME
 70
0
  9
$SPLINETYPE
 70
6
  9
$SPLINESEGS
 70
8
  9
$HANDSEED
  5
1C7
  9
$SURFTAB1
 70
6
  9
$SURFTAB2
 70
6
  9
$SURFTYPE
 70
6
  9
$SURFU
 70
6
  9
$SURFV
 70
6
  9
$UCSBASE
  2

  9
$UCSNAME
  2

  9
$UCSORG
 10
0.0
 20
0.0
 30
0.0
  9
$UCSXDIR
 10
1.0
 20
0.0
 30
0.0
  9
$UCSYDIR
 10
0.0
 20
1.0
 30
0.0
  9
$UCSORTHOREF
  2

  9
$UCSORTHOVIEW
 70
0
  9
$UCSORGTOP
 10
0.0
 20
0.0
 30
0.0
  9
$UCSORGBOTTOM
 10
0.0
 20
0.0
 30
0.0
  9
$UCSORGLEFT
 10
0.0
 20
0.0
 30
0.0
  9
$UCSORGRIGHT
 10
0.0
 20
0.0
 30
0.0
  9
$UCSORGFRONT
 10
0.0
 20
0.0
 30
0.0
  9
$UCSORGBACK
 10
0.0
 20
0.0
 30
0.0
  9
$PUCSBASE
  2

  9
$PUCSNAME
  2

  9
$PUCSORG
 10
0.0
 20
0.0
 30
0.0
  9
$PUCSXDIR
 10
1.0
 20
0.0
 30
0.0
  9
$PUCSYDIR
 10
0.0
 20
1.0
 30
0.0
  9
$PUCSORTHOREF
  2

  9
$PUCSORTHOVIEW
 70
0
  9
$PUCSORGTOP
 10
0.0
 20
0.0
 30
0.0
  9
$PUCSORGBOTTOM
 10
0.0
 20
0.0
 30
0.0
  9
$PUCSORGLEFT
 10
0.0
 20
0.0
 30
0.0
  9
$PUCSORGRIGHT
 10
0.0
 20
0.0
 30
0.0
  9
$PUCSORGFRONT
 10
0.0
 20
0.0
 30
0.0
  9
$PUCSORGBACK
 10
0.0
 20
0.0
 30
0.0
  9
$USERI1
 70
0
  9
$USERI2
 70
0
  9
$USERI3
 70
0
  9
$USERI4
 70
0
  9
$USERI5
 70
0
  9
$USERR1
 40
0.0
  9
$USERR2
 40
0.0
  9
$USERR3
 40
0.0
  9
$USERR4
 40
0.0
  9
$USERR5
 40
0.0
  9
$WORLDVIEW
 70
1
  9
$SHADEDGE
 70
3
  9
$SHADEDIF
 70
70
  9
$TILEMODE
 70
1
  9
$MAXACTVP
 70
64
  9
$PINSBASE
 10
0.0
 20
0.0
 30
0.0
  9
$PLIMCHECK
 70
0
  9
$PEXTMIN
 10
1e+20
 20
1e+20
 30
1e+20
  9
$PEXTMAX
 10
-1e+20
 20
-1e+20
 30
-1e+20
  9
$PLIMMIN
 10
0.0
 20
0.0
  9
$PLIMMAX
 10
420.0
 20
297.0
  9
$UNITMODE
 70
0
  9
$VISRETAIN
 70
1
  9
$PLINEGEN
 70
0
  9
$PSLTSCALE
 70
1
  9
$TREEDEPTH
 70
3020
  9
$CMLSTYLE
  2
Standard
  9
$CMLJUST
 70
0
  9
$CMLSCALE
 40
20.0
  9
$PROXYGRAPHICS
 70
1
  9
$MEASUREMENT
 70
1
  9
$CELWEIGHT
370
-1
  9
$ENDCAPS
280
0
  9
$JOINSTYLE
280
0
  9
$LWDISPLAY
290
0
  9
$INSUNITS
 70
6
  9
$HYPERLINKBASE
  1

  9
$STYLESHEET
  1

  9
$XEDIT
290
1
  9
$CEPSNTYPE
380
0
  9
$PSTYLEMODE
290
1
  9
$FINGERPRINTGUID
  2
{01435752-0ADB-41AA-9E39-C458C9F68F58}
  9
$VERSIONGUID
  2
{1A5EF546-5528-4E57-85E5-AC0A9962C986}
  9
$EXTNAMES
290
1
  9
$PSVPSCALE
 40
0.0
  9
$OLESTARTUP
290
0
  9
$SORTENTS
280
127
  9
$INDEXCTL
280
0
  9
$HIDETEXT
280
1
  9
$XCLIPFRAME
280
0
  9
$HALOGAP
280
0
  9
$OBSCOLOR
 70
257
  9
$OBSLTYPE
280
0
  9
$INTERSECTIONDISPLAY
280
0
  9
$INTERSECTIONCOLOR
 70
257
  9
$DIMASSOC
280
2
  9
$PROJECTNAME
  1

  9
$CAMERADISPLAY
290
0
  9
$LENSLENGTH
 40
50.0
  9
$CAMERAHEIGHT
 40
0.0
  9
$STEPSPERSEC
 40
24.0
  9
$STEPSIZE
 40
100.0
  9
$3DDWFPREC
 40
2.0
  9
$PSOLWIDTH
 40
0.005
  9
$PSOLHEIGHT
 40
0.08
  9
$LOFTANG1
 40
1.570796326795
  9
$LOFTANG2
 40
1.570796326795
  9
$LOFTMAG1
 40
0.0
  9
$LOFTMAG2
 40
0.0
  9
$LOFTPARAM
 70
7
  9
$LOFTNORMALS
280
1
  9
$LATITUDE
 40
37.795
  9
$LONGITUDE
 40
-122.394
  9
$NORTHDIRECTION
 40
0.0
  9
$TIMEZONE
 70
-8000
  9
$LIGHTGLYPHDISPLAY
280
1
  9
$TILEMODELIGHTSYNCH
280
1
  9
$CMATERIAL
347
20
  9
$SOLIDHIST
280
0
  9
$SHOWHIST
280
1
  9
$DWFFRAME
280
2
  9
$DGNFRAME
280
2
  9
$REALWORLDSCALE
290
1
  9
$INTERFERECOLOR
 62
256
  9
$CSHADOW
280
0
  9
$SHADOWPLANELOCATION
 40
0.0
  0
ENDSEC
  0
SECTION
  2
CLASSES
  0
CLASS
  1
ACDBDICTIONARYWDFLT
  2
AcDbDictionaryWithDefault
  3
ObjectDBX Classes
 90
0
 91
0
280
0
281
0
  0
CLASS
  1
SUN
  2
AcDbSun
  3
SCENEOE
 90
1153
 91
0
280
0
281
0
  0
CLASS
  1
VISUALSTYLE
  2
AcDbVisualStyle
  3
ObjectDBX Classes
 90
4095
 91
0
280
0
281
0
  0
CLASS
  1
MATERIAL
  2
AcDbMaterial
  3
ObjectDBX Classes
 90
1153
 91
0
280
0
281
0
  0
CLASS
  1
SCALE
  2
AcDbScale
  3
ObjectDBX Classes
 90
1153
 91
0
280
0
281
0
  0
CLASS
  1
TABLESTYLE
  2
AcDbTableStyle
  3
ObjectDBX Classes
 90
4095
 91
0
280
0
281
0
  0
CLASS
  1
MLEADERSTYLE
  2
AcDbMLeaderStyle
  3
ACDB_MLEADERSTYLE_CLASS
 90
4095
 91
0
280
0
281
0
  0
CLASS
  1
DICTIONARYVAR
  2
AcDbDictionaryVar
  3
ObjectDBX Classes
 90
0
 91
0
280
0
281
0
  0
CLASS
  1
CELLSTYLEMAP
  2
AcDbCellStyleMap
  3
ObjectDBX Classes
 90
1152
 91
0
280
0
281
0
  0
CLASS
  1
MENTALRAYRENDERSETTINGS
  2
AcDbMentalRayRenderSettings
  3
SCENEOE
 90
1024
 91
0
280
0
281
0
  0
CLASS
  1
ACDBDETAILVIEWSTYLE
  2
AcDbDetailViewStyle
  3
ObjectDBX Classes
 90
1025
 91
0
280
0
281
0
  0
CLASS
  1
ACDBSECTIONVIEWSTYLE
  2
AcDbSectionViewStyle
  3
ObjectDBX Classes
 90
1025
 91
0
280
0
281
0
  0
CLASS
  1
RASTERVARIABLES
  2
AcDbRasterVariables
  3
ISM
 90
0
 91
0
280
0
281
0
  0
CLASS
  1
ACDBPLACEHOLDER
  2
AcDbPlaceHolder
  3
ObjectDBX Classes
 90
0
 91
0
280
0
281
0
  0
CLASS
  1
LAYOUT
  2
AcDbLayout
  3
ObjectDBX Classes
 90
0
 91
0
280
0
281
0
  0
ENDSEC
  0
SECTION
  2
TABLES
  0
TABLE
  2
VPORT
  5
8
330
0
100
AcDbSymbolTable
 70
1
  0
VPORT
  5
23
330
8
100
AcDbSymbolTableRecord
100
AcDbViewportTableRecord
  2
*Active
 70
0
 10
0.0
 20
0.0
 11
1.0
 21
1.0
 12
0.0
 22
0.0
 13
0.0
 23
0.0
 14
0.5
 24
0.5
 15
0.5
 25
0.5
 16
0.0
 26
0.0
 36
1.0
 17
0.0
 27
0.0
 37
0.0
 40
1000.0
 41
1.34
 42
50.0
 43
0.0
 44
0.0
 50
0.0
 51
0.0
 71
0
 72
1000
 73
1
 74
3
 75
0
 76
0
 77
0
 78
0
281
0
 65
0
146
0.0
  0
ENDTAB
  0
TABLE
  2
LTYPE
  5
2
330
0
100
AcDbSymbolTable
 70
3
  0
LTYPE
  5
24
330
2
100
AcDbSymbolTableRecord
100
AcDbLinetypeTableRecord
  2
ByBlock
 70
0
  3

 72
65
 73
0
 40
0.0
  0
LTYPE
  5
25
330
2
100
AcDbSymbolTableRecord
100
AcDbLinetypeTableRecord
  2
ByLayer
 70
0
  3

 72
65
 73
0
 40
0.0
  0
LTYPE
  5
26
330
2
100
AcDbSymbolTableRecord
100
AcDbLinetypeTableRecord
  2
Continuous
 70
0
  3

 72
65
 73
0
 40
0.0
  0
ENDTAB
  0
TABLE
  2
LAYER
  5
1
330
0
100
AcDbSymbolTable
 70
2
  0
LAYER
  5
27
330
1
100
AcDbSymbolTableRecord
100
AcDbLayerTableRecord
  2
0
 70
0
 62
7
  6
Continuous
370
-3
390
13
347
21
  0
LAYER
  5
28
330
1
100
AcDbSymbolTableRecord
100
AcDbLayerTableRecord
  2
Defpoints
 70
0
 62
7
  6
Continuous
290
0
370
-3
390
13
347
21
  0
ENDTAB
  0
TABLE
  2
STYLE
  5
5
330
0
100
AcDbSymbolTable
 70
1
  0
STYLE
  5
29
330
5
100
AcDbSymbolTableRecord
100
AcDbTextStyleTableRecord
  2
Standard
 70
0
 40
0.0
 41
1.0
 50
0.0
 71
0
 42
2.5
  3
txt
  4

  0
ENDTAB
  0
TABLE
  2
VIEW
  5
7
330
0
100
AcDbSymbolTable
 70
0
  0
ENDTAB
  0
TABLE
  2
UCS
  5
6
330
0
100
AcDbSymbolTable
 70
0
  0
ENDTAB
  0
TABLE
  2
APPID
  5
3
330
0
100
AcDbSymbolTable
 70
3
  0
APPID
  5
2A
330
3
100
AcDbSymbolTableRecord
100
AcDbRegAppTableRecord
  2
ACAD
 70
0
  0
APPID
  5
1C4
330
3
100
AcDbSymbolTableRecord
100
AcDbRegAppTableRecord
  2
HATCHBACKGROUNDCOLOR
 70
0
  0
APPID
  5
1C5
330
3
100
AcDbSymbolTableRecord
100
AcDbRegAppTableRecord
  2
EZDXF
 70
0
  0
ENDTAB
  0
TABLE
  2
DIMSTYLE
  5
4
330
0
100
AcDbSymbolTable
 70
1
100
AcDbDimStyleTable
  0
DIMSTYLE
105
2B
330
4
100
AcDbSymbolTableRecord
100
AcDbDimStyleTableRecord
  2
Standard
 70
0
 40
1.0
 41
2.5
 42
0.625
 43
3.75
 44
1.25
 45
0.0
 46
0.0
 47
0.0
 48
0.0
 49
2.5
140
2.5
141
2.5
142
0.0
143
0.03937007874
144
1.0
145
0.0
146
1.0
147
0.625
148
0.0
 69
0
 70
0
 71
0
 72
0
 73
0
 74
0
 75
0
 76
0
 77
1
 78
8
 79
3
170
0
171
3
172
1
173
0
174
0
175
0
176
0
177
0
178
0
179
2
271
2
272
2
273
2
274
3
275
0
276
0
277
2
278
44
279
0
280
0
281
0
282
0
283
0
284
8
285
0
286
0
288
0
289
3
290
0
371
-2
372
-2
  0
ENDTAB
  0
TABLE
  2
BLOCK_RECORD
  5
9
330
0
100
AcDbSymbolTable
 70
2
  0
BLOCK_RECORD
  5
17
330
9
100
AcDbSymbolTableRecord
100
AcDbBlockTableRecord
  2
*Model_Space
340
1A
 70
0
280
1
281
0
  0
BLOCK_RECORD
  5
1B
330
9
100
AcDbSymbolTableRecord
100
AcDbBlockTableRecord
  2
*Paper_Space
340
1E
 70
0
280
1
281
0
  0
ENDTAB
  0
ENDSEC
  0
SECTION
  2
BLOCKS
  0
BLOCK
  5
18
330
17
100
AcDbEntity
  8
0
100
AcDbBlockBegin
  2
*Model_Space
 70
0
 10
0.0
 20
0.0
 30
0.0
  3
*Model_Space
  1

  0
ENDBLK
  5
19
330
17
100
AcDbEntity
  8
0
100
AcDbBlockEnd
  0
BLOCK
  5
1C
330
1B
100
AcDbEntity
  8
0
100
AcDbBlockBegin
  2
*Paper_Space
 70
0
 10
0.0
 20
0.0
 30
0.0
  3
*Paper_Space
  1

  0
ENDBLK
  5
1D
330
1B
100
AcDbEntity
  8
0
100
AcDbBlockEnd
  0
ENDSEC
  0
SECTION
  2
ENTITIES
  0
LINE
  5
2F
330
17
100
AcDbEntity
  8
0
100
AcDbLine
 10
-104.37486455217098
 20
-53.972280453738755
 30
-5.0
 11
-104.3522751988339
 21
-54.06463235079918
 31
-5.0
  0
LINE
  5
30
330
17
100
AcDbEntity
  8
0
100
AcDbLine
 10
-104.35227519883387
 20
-54.06463235079916
 30
-5.0
 11
-102.98794978916561
 21
-54.600618850240636
 31
-5.0
  0
LINE
  5
31
330
17
100
AcDbEntity
  8
0
100
AcDbLine
 10
-102.98794978916561
 20
-54.600618850240636
 30
-5.0
 11
-106.3656573438625
 21
-57.14345083366303
 31
-5.0
  0
LINE
  5
32
330
17
100
AcDbEntity
  8
0
100
AcDbLine
 10
-106.3656573438625
 20
-57.143450833663024
 30
-5.0
 11
-122.18848045217047
 21
-70.07928013473543
 31
-5.0
  0
LINE
  5
33
330
17
100
AcDbEntity
  8
0
100
AcDbLine
 10
-122.2628670787175
 20
-70.14009435838611
 30
-5.0
 11
-122.18848045217044
 21
-70.07928013473546
 31
-5.0
  0
LINE
  5
34
330
17
100
AcDbEntity
  8
0
100
AcDbLine
 10
-122.26286707871748
 20
-70.14009435838615
 30
-5.0
 11
-105.47123498614876
 21
-91.1684733976798
 31
-5.0
  0
LINE
  5
35
330
17
100
AcDbEntity
  8
0
100
AcDbLine
 10
-105.47123498614876
 20
-91.1684733976798
 30
-5.0
 11
-96.7480288896632
 21
-95.59162737290175
 31
-5.0
  0
LINE
  5
36
330
17
100
AcDbEntity
  8
0
100
AcDbLine
 10
-66.61633705890422
 20
-107.26520686720134
 30
-5.0
 11
-96.7480288896632
 21
-95.59162737290174
 31
-5.0
  0
LINE
  5
37
330
17
100
AcDbEntity
  8
0
100
AcDbLine
 10
-58.152315591268646
 20
-101.89884544113357
 30
-5.000000000000001
 11
-66.61633705890422
 21
-107.26520686720134
 31
-5.000000000000001
  0
LINE
  5
38
330
17
100
AcDbEntity
  8
0
100
AcDbLine
 10
-51.64765108995774
 20
-97.18768256142738
 30
-5.0
 11
-58.15231559126863
 21
-101.8988454411336
 31
-5.0
  0
LINE
  5
39
330
17
100
AcDbEntity
  8
0
100
AcDbLine
 10
-51.64765108995775
 20
-97.18768256142738
 30
-5.0
 11
-42.5640905196812
 21
-97.2930524455125
 31
-5.0
  0
LINE
  5
3A
330
17
100
AcDbEntity
  8
0
100
AcDbLine
 10
-29.481384799243536
 20
-88.93293088315967
 30
-5.0
 11
-42.56409051967997
 21
-97.2930524455144
 31
-5.0
  0
LINE
  5
3B
330
17
100
AcDbEntity
  8
0
100
AcDbLine
 10
-6.4115215454023815
 20
-69.17195499541648
 30
-5.0
 11
-29.48138479924354
 21
-88.93293088315968
 31
-5.0
  0
LINE
  5
3C
330
17
100
AcDbEntity
  8
0
100
AcDbLine
 10
15.660210382360482
 20
-69.17195499541647
 30
-5.0
 11
-6.411521545402391
 21
-69.17195499541647
 31
-5.0
  0
LINE
  5
3D
330
17
100
AcDbEntity
  8
0
100
AcDbLine
 10
23.518242076313914
 20
-51.92586062187465
 30
-5.0
 11
15.660210382360466
 21
-69.17195499541647
 31
-5.0
  0
LINE
  5
3E
330
17
100
AcDbEntity
  8
0
100
AcDbLine
 10
55.36841682973792
 20
-51.92586062187465
 30
-5.0
 11
23.518242076313918
 21
-51.92586062187465
 31
-5.0
  0
LINE
  5
3F
330
17
100
AcDbEntity
  8
0
100
AcDbLine
 10
63.68508005842674
 20
-42.842117696170725
 30
-5.0
 11
55.36841682973792
 21
-51.92586062187464
 31
-5.0
  0
LINE
  5
40
330
17
100
AcDbEntity
  8
0
100
AcDbLine
 10
64.67898695973594
 20
-41.68894592624908
 30
-5.0
 11
63.68508005842675
 21
-42.84211769617073
 31
-5.0
  0
LINE
  5
41
330
17
100
AcDbEntity
  8
0
100
AcDbLine
 10
64.92544045445393
 20
-40.74836351887029
 30
-5.0
 11
64.67898695973595
 21
-41.68894592624908
 31
-5.0
  0
LINE
  5
42
330
17
100
AcDbEntity
  8
0
100
AcDbLine
 10
64.67898695973616
 20
-27.64771741826123
 30
-5.0
 11
64.92544045445474
 21
-40.74836351887027
 31
-5.0
  0
LINE
  5
43
330
17
100
AcDbEntity
  8
0
100
AcDbLine
 10
64.26410913069783
 20
-23.061780595867535
 30
-5.0
 11
64.67898695973592
 21
-27.647717418261237
 31
-5.0
  0
LINE
  5
44
330
17
100
AcDbEntity
  8
0
100
AcDbLine
 10
64.26410913069786
 20
-23.061780595867532
 30
-5.000000000000001
 11
63.891135431266
 21
-14.949999999999998
 31
-5.000000000000001
  0
LINE
  5
45
330
17
100
AcDbEntity
  8
0
100
AcDbLine
 10
63.89113543126598
 20
2.9499999999999993
 30
-5.0
 11
63.89113543126598
 21
-14.95
 31
-5.0
  0
LINE
  5
46
330
17
100
AcDbEntity
  8
0
100
AcDbLine
 10
63.891135431265994
 20
2.949999999999999
 30
-5.0
 11
64.26410913069785
 21
11.06178059586753
 31
-5.0
  0
LINE
  5
47
330
17
100
AcDbEntity
  8
0
100
AcDbLine
 10
64.26410913069783
 20
11.061780595867534
 30
-5.0
 11
64.67898695973592
 21
15.647717418261227
 31
-5.0
  0
LINE
  5
48
330
17
100
AcDbEntity
  8
0
100
AcDbLine
 10
64.9236233241551
 20
28.651770930518055
 30
-5.0
 11
64.67898695973534
 21
15.647717418261236
 31
-5.0
  0
LINE
  5
49
330
17
100
AcDbEntity
  8
0
100
AcDbLine
 10
65.15157594523752
 20
36.4902262173376
 30
-5.0
 11
64.92362332415509
 21
28.651770930518055
 31
-5.0
  0
LINE
  5
4A
330
17
100
AcDbEntity
  8
0
100
AcDbLine
 10
65.77994226702232
 20
51.99208490334898
 30
-5.0
 11
65.15157594523757
 21
36.49022621733761
 31
-5.0
  0
LINE
  5
4B
330
17
100
AcDbEntity
  8
0
100
AcDbLine
 10
66.14256254991723
 20
58.723120984623925
 30
-5.0
 11
65.77994226702232
 21
51.99208490334898
 31
-5.0
  0
LINE
  5
4C
330
17
100
AcDbEntity
  8
0
100
AcDbLine
 10
67.03617130862736
 20
71.45105148964998
 30
-5.0
 11
66.14256254991543
 21
58.723120984624046
 31
-5.0
  0
LINE
  5
4D
330
17
100
AcDbEntity
  8
0
100
AcDbLine
 10
67.03617130862736
 20
71.45105148964998
 30
-5.0
 11
66.8375913209948
 21
74.27947673802421
 31
-5.0
  0
LINE
  5
4E
330
17
100
AcDbEntity
  8
0
100
AcDbLine
 10
57.882305934724926
 20
81.7041028659561
 30
-5.0
 11
66.8375913209948
 21
74.27947673802421
 31
-5.0
  0
LINE
  5
4F
330
17
100
AcDbEntity
  8
0
100
AcDbLine
 10
57.88230593472493
 20
81.70410286595612
 30
-5.0
 11
19.618764629319926
 21
81.70410286595612
 31
-5.0
  0
LINE
  5
50
330
17
100
AcDbEntity
  8
0
100
AcDbLine
 10
19.61876462931993
 20
81.7041028659561
 30
-5.0
 11
16.057344498899514
 21
87.7041028659561
 31
-5.0
  0
LINE
  5
51
330
17
100
AcDbEntity
  8
0
100
AcDbLine
 10
-1.4060038395502352
 20
87.7041028659561
 30
-5.0
 11
16.057344498899507
 21
87.7041028659561
 31
-5.0
  0
LINE
  5
52
330
17
100
AcDbEntity
  8
0
100
AcDbLine
 10
-1.4060038395502445
 20
87.70410286595609
 30
-5.0
 11
-4.816865334821145
 21
90.52410286595608
 31
-5.0
  0
LINE
  5
53
330
17
100
AcDbEntity
  8
0
100
AcDbLine
 10
-21.928080380038626
 20
90.52410286595608
 30
-5.0
 11
-4.816865334821131
 21
90.52410286595608
 31
-5.0
  0
LINE
  5
54
330
17
100
AcDbEntity
  8
0
100
AcDbLine
 10
-23.277189604034263
 20
87.70410286595612
 30
-5.0
 11
-21.928080380038633
 21
90.52410286595611
 31
-5.0
  0
LINE
  5
55
330
17
100
AcDbEntity
  8
0
100
AcDbLine
 10
-23.277189604034255
 20
87.7041028659561
 30
-5.0
 11
-58.169780442623384
 21
87.7041028659561
 31
-5.0
  0
LINE
  5
56
330
17
100
AcDbEntity
  8
0
100
AcDbLine
 10
-58.16978044262338
 20
87.70410286595609
 30
-5.0
 11
-78.8551497905623
 21
80.61179048136303
 31
-5.0
  0
LINE
  5
57
330
17
100
AcDbEntity
  8
0
100
AcDbLine
 10
-88.35514979056228
 20
70.11179048136303
 30
-5.0
 11
-78.85514979056228
 21
80.61179048136303
 31
-5.0
  0
LINE
  5
58
330
17
100
AcDbEntity
  8
0
100
AcDbLine
 10
-88.35514979056234
 20
70.11179048136307
 30
-5.0
 11
-94.53080529230769
 21
57.383859976336986
 31
-5.0
  0
LINE
  5
59
330
17
100
AcDbEntity
  8
0
100
AcDbLine
 10
-94.53080529230766
 20
57.38385997633697
 30
-5.0
 11
-96.20563489561997
 21
52.885390167927355
 31
-5.0
  0
LINE
  5
5A
330
17
100
AcDbEntity
  8
0
100
AcDbLine
 10
-96.20563489561991
 20
52.88539016792734
 30
-5.0
 11
-100.57248233101569
 21
37.296928919424275
 31
-5.0
  0
LINE
  5
5B
330
17
100
AcDbEntity
  8
0
100
AcDbLine
 10
-100.5724823310157
 20
37.29692891942429
 30
-5.0
 11
-101.62532414916667
 21
32.058351377042804
 31
-5.0
  0
LINE
  5
5C
330
17
100
AcDbEntity
  8
0
100
AcDbLine
 10
-101.62532414916667
 20
32.05835137704281
 30
-5.0
 11
-103.88577058190519
 21
14.671685473640647
 31
-5.0
  0
LINE
  5
5D
330
17
100
AcDbEntity
  8
0
100
AcDbLine
 10
-103.88577058190523
 20
14.571685473640649
 30
-5.0
 11
-103.88577058190523
 21
14.67168547364065
 31
-5.0
  0
LINE
  5
5E
330
17
100
AcDbEntity
  8
0
100
AcDbLine
 10
-90.24487530540637
 20
8.949999999999998
 30
-5.0
 11
-103.8857705819052
 21
14.57168547364065
 31
-5.0
  0
LINE
  5
5F
330
17
100
AcDbEntity
  8
0
100
AcDbLine
 10
-90.24487530540637
 20
8.950000000000001
 30
-5.0
 11
-90.24487530540637
 21
-9.049999999999999
 31
-5.0
  0
LINE
  5
60
330
17
100
AcDbEntity
  8
0
100
AcDbLine
 10
-90.24487530540635
 20
-9.049999999999999
 30
-5.0
 11
-89.88577058190519
 21
-14.67168547364065
 31
-5.0
  0
LINE
  5
61
330
17
100
AcDbEntity
  8
0
100
AcDbLine
 10
-89.8857705819052
 20
-14.671685473640649
 30
-5.0
 11
-87.64686649358197
 21
-20.007015760121973
 31
-5.0
  0
LINE
  5
62
330
17
100
AcDbEntity
  8
0
100
AcDbLine
 10
-87.64686649358197
 20
-20.007015760121952
 30
-5.000000000000002
 11
-94.08194784161307
 21
-34.543932347753135
 31
-5.000000000000002
  0
LINE
  5
63
330
17
100
AcDbEntity
  8
0
100
AcDbLine
 10
-94.08194784161304
 20
-34.543932347753135
 30
-5.0
 11
-97.53970056908969
 21
-34.84644651268318
 31
-5.0
  0
LINE
  5
64
330
17
100
AcDbEntity
  8
0
100
AcDbLine
 10
-99.0029447210573
 20
-36.34777020678987
 30
-5.0
 11
-97.53970056908969
 21
-34.846446512683194
 31
-5.0
  0
LINE
  5
65
330
17
100
AcDbEntity
  8
0
100
AcDbLine
 10
-99.0029447210573
 20
-36.34777020678986
 30
-5.0
 11
-104.37486455217095
 21
-53.97228045373874
 31
-5.0
  0
CIRCLE
  5
66
330
17
100
AcDbEntity
  8
0
100
AcDbCircle
 10
-54.25850122859699
 20
-92.00835137704281
 30
-5.0
 40
2.0
  0
CIRCLE
  5
67
330
17
100
AcDbEntity
  8
0
100
AcDbCircle
 10
-84.20554736553594
 20
-15.31501842534173
 30
-5.0
 40
2.0
  0
CIRCLE
  5
68
330
17
100
AcDbEntity
  8
0
100
AcDbCircle
 10
60.3234470831309
 20
68.30441991025337
 30
-5.0
 40
2.0
  0
CIRCLE
  5
69
330
17
100
AcDbEntity
  8
0
100
AcDbCircle
 10
1.3216801551843933
 20
-63.58298051617434
 30
-5.0
 40
2.0
  0
CIRCLE
  5
6A
330
17
100
AcDbEntity
  8
0
100
AcDbCircle
 10
6.137514913662087
 20
83.85036778902294
 30
-5.0
 40
2.0
  0
CIRCLE
  5
6B
330
17
100
AcDbEntity
  8
0
100
AcDbCircle
 10
58.41396463310895
 20
-33.19730089791581
 30
-5.0
 40
2.0
  0
CIRCLE
  5
6C
330
17
100
AcDbEntity
  8
0
100
AcDbCircle
 10
-86.89297754143496
 20
63.697825228850014
 30
-5.0
 40
2.0
  0
LINE
  5
6D
330
17
100
AcDbEntity
  8
0
100
AcDbLine
 10
-104.37486455217095
 20
-53.97228045373874
 30
-5.0
 11
-104.37486455217095
 21
-53.97228045373874
 31
0.0
  0
LINE
  5
6E
330
17
100
AcDbEntity
  8
0
100
AcDbLine
 10
-104.35227519883387
 20
-54.064632350799165
 30
-5.0
 11
-104.35227519883387
 21
-54.064632350799165
 31
0.0
  0
LINE
  5
6F
330
17
100
AcDbEntity
  8
0
100
AcDbLine
 10
-104.37486455217098
 20
-53.972280453738755
 30
0.0
 11
-104.3522751988339
 21
-54.06463235079918
 31
0.0
  0
LINE
  5
70
330
17
100
AcDbEntity
  8
0
100
AcDbLine
 10
-99.0029447210573
 20
-36.34777020678986
 30
-5.0
 11
-99.0029447210573
 21
-36.34777020678986
 31
0.0
  0
LINE
  5
71
330
17
100
AcDbEntity
  8
0
100
AcDbLine
 10
-99.0029447210573
 20
-36.34777020678986
 30
0.0
 11
-104.37486455217095
 21
-53.97228045373874
 31
0.0
  0
LINE
  5
72
330
17
100
AcDbEntity
  8
0
100
AcDbLine
 10
-102.98794978916561
 20
-54.600618850240636
 30
-5.0
 11
-102.98794978916561
 21
-54.600618850240636
 31
0.0
  0
LINE
  5
73
330
17
100
AcDbEntity
  8
0
100
AcDbLine
 10
-104.35227519883387
 20
-54.06463235079916
 30
0.0
 11
-102.98794978916561
 21
-54.600618850240636
 31
0.0
  0
LINE
  5
74
330
17
100
AcDbEntity
  8
0
100
AcDbLine
 10
-97.53970056908969
 20
-34.84644651268319
 30
-5.0
 11
-97.53970056908969
 21
-34.84644651268319
 31
0.0
  0
LINE
  5
75
330
17
100
AcDbEntity
  8
0
100
AcDbLine
 10
-99.0029447210573
 20
-36.34777020678987
 30
0.0
 11
-97.53970056908969
 21
-34.846446512683194
 31
0.0
  0
LINE
  5
76
330
17
100
AcDbEntity
  8
0
100
AcDbLine
 10
-106.36565734386251
 20
-57.14345083366302
 30
-5.0
 11
-106.36565734386251
 21
-57.14345083366302
 31
0.0
  0
LINE
  5
77
330
17
100
AcDbEntity
  8
0
100
AcDbLine
 10
-102.98794978916561
 20
-54.600618850240636
 30
0.0
 11
-106.3656573438625
 21
-57.14345083366303
 31
0.0
  0
LINE
  5
78
330
17
100
AcDbEntity
  8
0
100
AcDbLine
 10
-94.08194784161307
 20
-34.54393234775313
 30
-5.0
 11
-94.08194784161307
 21
-34.54393234775313
 31
0.0
  0
LINE
  5
79
330
17
100
AcDbEntity
  8
0
100
AcDbLine
 10
-94.08194784161304
 20
-34.543932347753135
 30
0.0
 11
-97.53970056908969
 21
-34.84644651268318
 31
0.0
  0
LINE
  5
7A
330
17
100
AcDbEntity
  8
0
100
AcDbLine
 10
-122.18848045217047
 20
-70.07928013473543
 30
-5.0
 11
-122.18848045217047
 21
-70.07928013473543
 31
0.0
  0
LINE
  5
7B
330
17
100
AcDbEntity
  8
0
100
AcDbLine
 10
-106.3656573438625
 20
-57.143450833663024
 30
0.0
 11
-122.18848045217047
 21
-70.07928013473543
 31
0.0
  0
LINE
  5
7C
330
17
100
AcDbEntity
  8
0
100
AcDbLine
 10
-87.64686649358197
 20
-20.00701576012197
 30
-5.0
 11
-87.64686649358197
 21
-20.00701576012197
 31
0.0
  0
LINE
  5
7D
330
17
100
AcDbEntity
  8
0
100
AcDbLine
 10
-87.64686649358197
 20
-20.007015760121952
 30
-1.7763568394002505e-15
 11
-94.08194784161307
 21
-34.543932347753135
 31
-1.7763568394002505e-15
  0
LINE
  5
7E
330
17
100
AcDbEntity
  8
0
100
AcDbLine
 10
-122.26286707871748
 20
-70.14009435838615
 30
-5.0
 11
-122.26286707871748
 21
-70.14009435838615
 31
0.0
  0
LINE
  5
7F
330
17
100
AcDbEntity
  8
0
100
AcDbLine
 10
-122.2628670787175
 20
-70.14009435838611
 30
0.0
 11
-122.18848045217044
 21
-70.07928013473546
 31
0.0
  0
LINE
  5
80
330
17
100
AcDbEntity
  8
0
100
AcDbLine
 10
-89.8857705819052
 20
-14.67168547364065
 30
-5.0
 11
-89.8857705819052
 21
-14.67168547364065
 31
0.0
  0
LINE
  5
81
330
17
100
AcDbEntity
  8
0
100
AcDbLine
 10
-89.8857705819052
 20
-14.671685473640649
 30
0.0
 11
-87.64686649358197
 21
-20.007015760121973
 31
0.0
  0
LINE
  5
82
330
17
100
AcDbEntity
  8
0
100
AcDbLine
 10
-105.47123498614876
 20
-91.1684733976798
 30
-5.0
 11
-105.47123498614876
 21
-91.1684733976798
 31
0.0
  0
LINE
  5
83
330
17
100
AcDbEntity
  8
0
100
AcDbLine
 10
-122.26286707871748
 20
-70.14009435838615
 30
0.0
 11
-105.47123498614876
 21
-91.1684733976798
 31
0.0
  0
LINE
  5
84
330
17
100
AcDbEntity
  8
0
100
AcDbLine
 10
-90.24487530540637
 20
-9.05
 30
-5.0
 11
-90.24487530540637
 21
-9.05
 31
0.0
  0
LINE
  5
85
330
17
100
AcDbEntity
  8
0
100
AcDbLine
 10
-90.24487530540635
 20
-9.049999999999999
 30
0.0
 11
-89.88577058190519
 21
-14.67168547364065
 31
0.0
  0
LINE
  5
86
330
17
100
AcDbEntity
  8
0
100
AcDbLine
 10
-96.7480288896632
 20
-95.59162737290175
 30
-5.0
 11
-96.7480288896632
 21
-95.59162737290175
 31
0.0
  0
LINE
  5
87
330
17
100
AcDbEntity
  8
0
100
AcDbLine
 10
-105.47123498614876
 20
-91.1684733976798
 30
0.0
 11
-96.7480288896632
 21
-95.59162737290175
 31
0.0
  0
LINE
  5
88
330
17
100
AcDbEntity
  8
0
100
AcDbLine
 10
-90.24487530540637
 20
8.95
 30
-5.0
 11
-90.24487530540637
 21
8.95
 31
0.0
  0
LINE
  5
89
330
17
100
AcDbEntity
  8
0
100
AcDbLine
 10
-90.24487530540637
 20
8.950000000000001
 30
0.0
 11
-90.24487530540637
 21
-9.049999999999999
 31
0.0
  0
LINE
  5
8A
330
17
100
AcDbEntity
  8
0
100
AcDbLine
 10
-66.61633705890422
 20
-107.26520686720134
 30
-5.0
 11
-66.61633705890422
 21
-107.26520686720134
 31
0.0
  0
LINE
  5
8B
330
17
100
AcDbEntity
  8
0
100
AcDbLine
 10
-66.61633705890422
 20
-107.26520686720134
 30
0.0
 11
-96.7480288896632
 21
-95.59162737290174
 31
0.0
  0
LINE
  5
8C
330
17
100
AcDbEntity
  8
0
100
AcDbLine
 10
-103.8857705819052
 20
14.571685473640649
 30
-5.0
 11
-103.8857705819052
 21
14.571685473640649
 31
0.0
  0
LINE
  5
8D
330
17
100
AcDbEntity
  8
0
100
AcDbLine
 10
-90.24487530540637
 20
8.949999999999998
 30
0.0
 11
-103.8857705819052
 21
14.57168547364065
 31
0.0
  0
LINE
  5
8E
330
17
100
AcDbEntity
  8
0
100
AcDbLine
 10
-58.15231559126864
 20
-101.89884544113359
 30
-5.0
 11
-58.15231559126864
 21
-101.89884544113359
 31
0.0
  0
LINE
  5
8F
330
17
100
AcDbEntity
  8
0
100
AcDbLine
 10
-58.152315591268646
 20
-101.89884544113357
 30
-8.881784197001252e-16
 11
-66.61633705890422
 21
-107.26520686720134
 31
-8.881784197001252e-16
  0
LINE
  5
90
330
17
100
AcDbEntity
  8
0
100
AcDbLine
 10
-103.8857705819052
 20
14.67168547364065
 30
-5.0
 11
-103.8857705819052
 21
14.67168547364065
 31
0.0
  0
LINE
  5
91
330
17
100
AcDbEntity
  8
0
100
AcDbLine
 10
-103.88577058190523
 20
14.571685473640649
 30
0.0
 11
-103.88577058190523
 21
14.67168547364065
 31
0.0
  0
LINE
  5
92
330
17
100
AcDbEntity
  8
0
100
AcDbLine
 10
-51.64765108995775
 20
-97.18768256142737
 30
-5.0
 11
-51.64765108995775
 21
-97.18768256142737
 31
0.0
  0
LINE
  5
93
330
17
100
AcDbEntity
  8
0
100
AcDbLine
 10
-51.64765108995774
 20
-97.18768256142738
 30
0.0
 11
-58.15231559126863
 21
-101.8988454411336
 31
0.0
  0
LINE
  5
94
330
17
100
AcDbEntity
  8
0
100
AcDbLine
 10
-101.6253241491667
 20
32.05835137704281
 30
-5.0
 11
-101.6253241491667
 21
32.05835137704281
 31
0.0
  0
LINE
  5
95
330
17
100
AcDbEntity
  8
0
100
AcDbLine
 10
-101.62532414916667
 20
32.05835137704281
 30
0.0
 11
-103.88577058190519
 21
14.671685473640647
 31
0.0
  0
LINE
  5
96
330
17
100
AcDbEntity
  8
0
100
AcDbLine
 10
-42.5640905196812
 20
-97.29305244551247
 30
-5.0
 11
-42.5640905196812
 21
-97.29305244551247
 31
0.0
  0
LINE
  5
97
330
17
100
AcDbEntity
  8
0
100
AcDbLine
 10
-51.64765108995775
 20
-97.18768256142738
 30
0.0
 11
-42.5640905196812
 21
-97.2930524455125
 31
0.0
  0
LINE
  5
98
330
17
100
AcDbEntity
  8
0
100
AcDbLine
 10
-100.57248233101572
 20
37.29692891942429
 30
-5.0
 11
-100.57248233101572
 21
37.29692891942429
 31
0.0
  0
LINE
  5
99
330
17
100
AcDbEntity
  8
0
100
AcDbLine
 10
-100.5724823310157
 20
37.29692891942429
 30
0.0
 11
-101.62532414916667
 21
32.058351377042804
 31
0.0
  0
LINE
  5
9A
330
17
100
AcDbEntity
  8
0
100
AcDbLine
 10
-29.481384799243543
 20
-88.93293088315967
 30
-5.0
 11
-29.481384799243543
 21
-88.93293088315967
 31
0.0
  0
LINE
  5
9B
330
17
100
AcDbEntity
  8
0
100
AcDbLine
 10
-29.481384799243536
 20
-88.93293088315967
 30
0.0
 11
-42.56409051967997
 21
-97.2930524455144
 31
0.0
  0
LINE
  5
9C
330
17
100
AcDbEntity
  8
0
100
AcDbLine
 10
-96.20563489561995
 20
52.88539016792735
 30
-5.0
 11
-96.20563489561995
 21
52.88539016792735
 31
0.0
  0
LINE
  5
9D
330
17
100
AcDbEntity
  8
0
100
AcDbLine
 10
-96.20563489561991
 20
52.88539016792734
 30
0.0
 11
-100.57248233101569
 21
37.296928919424275
 31
0.0
  0
LINE
  5
9E
330
17
100
AcDbEntity
  8
0
100
AcDbLine
 10
-6.411521545402389
 20
-69.17195499541647
 30
-5.0
 11
-6.411521545402389
 21
-69.17195499541647
 31
0.0
  0
LINE
  5
9F
330
17
100
AcDbEntity
  8
0
100
AcDbLine
 10
-6.4115215454023815
 20
-69.17195499541648
 30
0.0
 11
-29.48138479924354
 21
-88.93293088315968
 31
0.0
  0
LINE
  5
A0
330
17
100
AcDbEntity
  8
0
100
AcDbLine
 10
-94.53080529230765
 20
57.383859976336964
 30
-5.0
 11
-94.53080529230765
 21
57.383859976336964
 31
0.0
  0
LINE
  5
A1
330
17
100
AcDbEntity
  8
0
100
AcDbLine
 10
-94.53080529230766
 20
57.38385997633697
 30
0.0
 11
-96.20563489561997
 21
52.885390167927355
 31
0.0
  0
LINE
  5
A2
330
17
100
AcDbEntity
  8
0
100
AcDbLine
 10
15.66021038236048
 20
-69.17195499541647
 30
-5.0
 11
15.66021038236048
 21
-69.17195499541647
 31
0.0
  0
LINE
  5
A3
330
17
100
AcDbEntity
  8
0
100
AcDbLine
 10
15.660210382360482
 20
-69.17195499541647
 30
0.0
 11
-6.411521545402391
 21
-69.17195499541647
 31
0.0
  0
LINE
  5
A4
330
17
100
AcDbEntity
  8
0
100
AcDbLine
 10
-88.3551497905623
 20
70.11179048136304
 30
-5.0
 11
-88.3551497905623
 21
70.11179048136304
 31
0.0
  0
LINE
  5
A5
330
17
100
AcDbEntity
  8
0
100
AcDbLine
 10
-88.35514979056234
 20
70.11179048136307
 30
0.0
 11
-94.53080529230769
 21
57.383859976336986
 31
0.0
  0
LINE
  5
A6
330
17
100
AcDbEntity
  8
0
100
AcDbLine
 10
23.518242076313918
 20
-51.92586062187465
 30
-5.0
 11
23.518242076313918
 21
-51.92586062187465
 31
0.0
  0
LINE
  5
A7
330
17
100
AcDbEntity
  8
0
100
AcDbLine
 10
23.518242076313914
 20
-51.92586062187465
 30
0.0
 11
15.660210382360466
 21
-69.17195499541647
 31
0.0
  0
LINE
  5
A8
330
17
100
AcDbEntity
  8
0
100
AcDbLine
 10
-78.8551497905623
 20
80.61179048136304
 30
-5.0
 11
-78.8551497905623
 21
80.61179048136304
 31
0.0
  0
LINE
  5
A9
330
17
100
AcDbEntity
  8
0
100
AcDbLine
 10
-88.35514979056228
 20
70.11179048136303
 30
0.0
 11
-78.85514979056228
 21
80.61179048136303
 31
0.0
  0
LINE
  5
AA
330
17
100
AcDbEntity
  8
0
100
AcDbLine
 10
55.368416829737924
 20
-51.92586062187465
 30
-5.0
 11
55.368416829737924
 21
-51.92586062187465
 31
0.0
  0
LINE
  5
AB
330
17
100
AcDbEntity
  8
0
100
AcDbLine
 10
55.36841682973792
 20
-51.92586062187465
 30
0.0
 11
23.518242076313918
 21
-51.92586062187465
 31
0.0
  0
LINE
  5
AC
330
17
100
AcDbEntity
  8
0
100
AcDbLine
 10
-58.169780442623384
 20
87.7041028659561
 30
-5.0
 11
-58.169780442623384
 21
87.7041028659561
 31
0.0
  0
LINE
  5
AD
330
17
100
AcDbEntity
  8
0
100
AcDbLine
 10
-58.16978044262338
 20
87.70410286595609
 30
0.0
 11
-78.8551497905623
 21
80.61179048136303
 31
0.0
  0
LINE
  5
AE
330
17
100
AcDbEntity
  8
0
100
AcDbLine
 10
63.68508005842675
 20
-42.84211769617073
 30
-5.0
 11
63.68508005842675
 21
-42.84211769617073
 31
0.0
  0
LINE
  5
AF
330
17
100
AcDbEntity
  8
0
100
AcDbLine
 10
63.68508005842674
 20
-42.842117696170725
 30
0.0
 11
55.36841682973792
 21
-51.92586062187464
 31
0.0
  0
LINE
  5
B0
330
17
100
AcDbEntity
  8
0
100
AcDbLine
 10
-23.277189604034255
 20
87.7041028659561
 30
-5.0
 11
-23.277189604034255
 21
87.7041028659561
 31
0.0
  0
LINE
  5
B1
330
17
100
AcDbEntity
  8
0
100
AcDbLine
 10
-23.277189604034255
 20
87.7041028659561
 30
0.0
 11
-58.169780442623384
 21
87.7041028659561
 31
0.0
  0
LINE
  5
B2
330
17
100
AcDbEntity
  8
0
100
AcDbLine
 10
64.67898695973594
 20
-41.68894592624908
 30
-5.0
 11
64.67898695973594
 21
-41.68894592624908
 31
0.0
  0
LINE
  5
B3
330
17
100
AcDbEntity
  8
0
100
AcDbLine
 10
64.67898695973594
 20
-41.68894592624908
 30
0.0
 11
63.68508005842675
 21
-42.84211769617073
 31
0.0
  0
LINE
  5
B4
330
17
100
AcDbEntity
  8
0
100
AcDbLine
 10
-21.928080380038626
 20
90.5241028659561
 30
-5.0
 11
-21.928080380038626
 21
90.5241028659561
 31
0.0
  0
LINE
  5
B5
330
17
100
AcDbEntity
  8
0
100
AcDbLine
 10
-23.277189604034263
 20
87.70410286595612
 30
0.0
 11
-21.928080380038633
 21
90.52410286595611
 31
0.0
  0
LINE
  5
B6
330
17
100
AcDbEntity
  8
0
100
AcDbLine
 10
64.92544045445392
 20
-40.74836351887029
 30
-5.0
 11
64.92544045445392
 21
-40.74836351887029
 31
0.0
  0
LINE
  5
B7
330
17
100
AcDbEntity
  8
0
100
AcDbLine
 10
64.92544045445393
 20
-40.74836351887029
 30
0.0
 11
64.67898695973595
 21
-41.68894592624908
 31
0.0
  0
LINE
  5
B8
330
17
100
AcDbEntity
  8
0
100
AcDbLine
 10
-4.816865334821131
 20
90.5241028659561
 30
-5.0
 11
-4.816865334821131
 21
90.5241028659561
 31
0.0
  0
LINE
  5
B9
330
17
100
AcDbEntity
  8
0
100
AcDbLine
 10
-21.928080380038626
 20
90.52410286595608
 30
0.0
 11
-4.816865334821131
 21
90.52410286595608
 31
0.0
  0
LINE
  5
BA
330
17
100
AcDbEntity
  8
0
100
AcDbLine
 10
64.67898695973594
 20
-27.647717418261234
 30
-5.0
 11
64.67898695973594
 21
-27.647717418261234
 31
0.0
  0
LINE
  5
BB
330
17
100
AcDbEntity
  8
0
100
AcDbLine
 10
64.67898695973616
 20
-27.64771741826123
 30
0.0
 11
64.92544045445474
 21
-40.74836351887027
 31
0.0
  0
LINE
  5
BC
330
17
100
AcDbEntity
  8
0
100
AcDbLine
 10
-1.4060038395502303
 20
87.7041028659561
 30
-5.0
 11
-1.4060038395502303
 21
87.7041028659561
 31
0.0
  0
LINE
  5
BD
330
17
100
AcDbEntity
  8
0
100
AcDbLine
 10
-1.4060038395502445
 20
87.70410286595609
 30
0.0
 11
-4.816865334821145
 21
90.52410286595608
 31
0.0
  0
LINE
  5
BE
330
17
100
AcDbEntity
  8
0
100
AcDbLine
 10
64.26410913069785
 20
-23.061780595867532
 30
-5.0
 11
64.26410913069785
 21
-23.061780595867532
 31
0.0
  0
LINE
  5
BF
330
17
100
AcDbEntity
  8
0
100
AcDbLine
 10
64.26410913069783
 20
-23.061780595867535
 30
0.0
 11
64.67898695973592
 21
-27.647717418261237
 31
0.0
  0
LINE
  5
C0
330
17
100
AcDbEntity
  8
0
100
AcDbLine
 10
16.05734449889951
 20
87.7041028659561
 30
-5.0
 11
16.05734449889951
 21
87.7041028659561
 31
0.0
  0
LINE
  5
C1
330
17
100
AcDbEntity
  8
0
100
AcDbLine
 10
-1.4060038395502352
 20
87.7041028659561
 30
0.0
 11
16.057344498899507
 21
87.7041028659561
 31
0.0
  0
LINE
  5
C2
330
17
100
AcDbEntity
  8
0
100
AcDbLine
 10
63.89113543126598
 20
-14.95
 30
-5.0
 11
63.89113543126598
 21
-14.95
 31
0.0
  0
LINE
  5
C3
330
17
100
AcDbEntity
  8
0
100
AcDbLine
 10
64.26410913069786
 20
-23.061780595867532
 30
-8.881784197001252e-16
 11
63.891135431266
 21
-14.949999999999998
 31
-8.881784197001252e-16
  0
LINE
  5
C4
330
17
100
AcDbEntity
  8
0
100
AcDbLine
 10
19.618764629319926
 20
81.7041028659561
 30
-5.0
 11
19.618764629319926
 21
81.7041028659561
 31
0.0
  0
LINE
  5
C5
330
17
100
AcDbEntity
  8
0
100
AcDbLine
 10
19.61876462931993
 20
81.7041028659561
 30
0.0
 11
16.057344498899514
 21
87.7041028659561
 31
0.0
  0
LINE
  5
C6
330
17
100
AcDbEntity
  8
0
100
AcDbLine
 10
63.89113543126598
 20
2.9499999999999993
 30
-5.0
 11
63.89113543126598
 21
2.9499999999999993
 31
0.0
  0
LINE
  5
C7
330
17
100
AcDbEntity
  8
0
100
AcDbLine
 10
63.89113543126598
 20
2.9499999999999993
 30
0.0
 11
63.89113543126598
 21
-14.95
 31
0.0
  0
LINE
  5
C8
330
17
100
AcDbEntity
  8
0
100
AcDbLine
 10
57.88230593472493
 20
81.7041028659561
 30
-5.0
 11
57.88230593472493
 21
81.7041028659561
 31
0.0
  0
LINE
  5
C9
330
17
100
AcDbEntity
  8
0
100
AcDbLine
 10
57.88230593472493
 20
81.70410286595612
 30
0.0
 11
19.618764629319926
 21
81.70410286595612
 31
0.0
  0
LINE
  5
CA
330
17
100
AcDbEntity
  8
0
100
AcDbLine
 10
64.26410913069785
 20
11.061780595867532
 30
-5.0
 11
64.26410913069785
 21
11.061780595867532
 31
0.0
  0
LINE
  5
CB
330
17
100
AcDbEntity
  8
0
100
AcDbLine
 10
63.891135431265994
 20
2.949999999999999
 30
0.0
 11
64.26410913069785
 21
11.06178059586753
 31
0.0
  0
LINE
  5
CC
330
17
100
AcDbEntity
  8
0
100
AcDbLine
 10
66.8375913209948
 20
74.27947673802421
 30
-5.0
 11
66.8375913209948
 21
74.27947673802421
 31
0.0
  0
LINE
  5
CD
330
17
100
AcDbEntity
  8
0
100
AcDbLine
 10
57.882305934724926
 20
81.7041028659561
 30
0.0
 11
66.8375913209948
 21
74.27947673802421
 31
0.0
  0
LINE
  5
CE
330
17
100
AcDbEntity
  8
0
100
AcDbLine
 10
64.67898695973594
 20
15.647717418261225
 30
-5.0
 11
64.67898695973594
 21
15.647717418261225
 31
0.0
  0
LINE
  5
CF
330
17
100
AcDbEntity
  8
0
100
AcDbLine
 10
64.26410913069783
 20
11.061780595867534
 30
0.0
 11
64.67898695973592
 21
15.647717418261227
 31
0.0
  0
LINE
  5
D0
330
17
100
AcDbEntity
  8
0
100
AcDbLine
 10
67.03617130862736
 20
71.45105148964998
 30
-5.0
 11
67.03617130862736
 21
71.45105148964998
 31
0.0
  0
LINE
  5
D1
330
17
100
AcDbEntity
  8
0
100
AcDbLine
 10
67.03617130862736
 20
71.45105148964998
 30
0.0
 11
66.8375913209948
 21
74.27947673802421
 31
0.0
  0
LINE
  5
D2
330
17
100
AcDbEntity
  8
0
100
AcDbLine
 10
64.92362332415512
 20
28.651770930518055
 30
-5.0
 11
64.92362332415512
 21
28.651770930518055
 31
0.0
  0
LINE
  5
D3
330
17
100
AcDbEntity
  8
0
100
AcDbLine
 10
64.9236233241551
 20
28.651770930518055
 30
0.0
 11
64.67898695973534
 21
15.647717418261236
 31
0.0
  0
LINE
  5
D4
330
17
100
AcDbEntity
  8
0
100
AcDbLine
 10
66.14256254991723
 20
58.72312098462392
 30
-5.0
 11
66.14256254991723
 21
58.72312098462392
 31
0.0
  0
LINE
  5
D5
330
17
100
AcDbEntity
  8
0
100
AcDbLine
 10
67.03617130862736
 20
71.45105148964998
 30
0.0
 11
66.14256254991543
 21
58.723120984624046
 31
0.0
  0
LINE
  5
D6
330
17
100
AcDbEntity
  8
0
100
AcDbLine
 10
65.15157594523755
 20
36.4902262173376
 30
-5.0
 11
65.15157594523755
 21
36.4902262173376
 31
0.0
  0
LINE
  5
D7
330
17
100
AcDbEntity
  8
0
100
AcDbLine
 10
65.15157594523752
 20
36.4902262173376
 30
0.0
 11
64.92362332415509
 21
28.651770930518055
 31
0.0
  0
LINE
  5
D8
330
17
100
AcDbEntity
  8
0
100
AcDbLine
 10
65.77994226702232
 20
51.992084903348974
 30
-5.0
 11
65.77994226702232
 21
51.992084903348974
 31
0.0
  0
LINE
  5
D9
330
17
100
AcDbEntity
  8
0
100
AcDbLine
 10
66.14256254991723
 20
58.723120984623925
 30
0.0
 11
65.77994226702232
 21
51.99208490334898
 31
0.0
  0
LINE
  5
DA
330
17
100
AcDbEntity
  8
0
100
AcDbLine
 10
65.77994226702232
 20
51.99208490334898
 30
0.0
 11
65.15157594523757
 21
36.49022621733761
 31
0.0
  0
LINE
  5
DB
330
17
100
AcDbEntity
  8
0
100
AcDbLine
 10
-52.25850122859699
 20
-92.00835137704281
 30
-5.0
 11
-52.25850122859699
 21
-92.00835137704281
 31
-4.0
  0
CIRCLE
  5
DC
330
17
100
AcDbEntity
  8
0
100
AcDbCircle
 10
-54.25850122859699
 20
-92.00835137704281
 30
-4.0
 40
2.0
  0
LINE
  5
DD
330
17
100
AcDbEntity
  8
0
100
AcDbLine
 10
-82.20554736553594
 20
-15.31501842534173
 30
-5.0
 11
-82.20554736553594
 21
-15.31501842534173
 31
-4.0
  0
CIRCLE
  5
DE
330
17
100
AcDbEntity
  8
0
100
AcDbCircle
 10
-84.20554736553594
 20
-15.31501842534173
 30
-4.0
 40
2.0
  0
LINE
  5
DF
330
17
100
AcDbEntity
  8
0
100
AcDbLine
 10
3.321680155184393
 20
-63.58298051617434
 30
-5.0
 11
3.321680155184393
 21
-63.58298051617434
 31
-4.0
  0
CIRCLE
  5
E0
330
17
100
AcDbEntity
  8
0
100
AcDbCircle
 10
1.3216801551843933
 20
-63.58298051617434
 30
-4.0
 40
2.0
  0
LINE
  5
E1
330
17
100
AcDbEntity
  8
0
100
AcDbLine
 10
60.41396463310895
 20
-33.19730089791581
 30
-5.0
 11
60.41396463310895
 21
-33.19730089791581
 31
-4.0
  0
CIRCLE
  5
E2
330
17
100
AcDbEntity
  8
0
100
AcDbCircle
 10
58.41396463310895
 20
-33.19730089791581
 30
-4.0
 40
2.0
  0
LINE
  5
E3
330
17
100
AcDbEntity
  8
0
100
AcDbLine
 10
-84.89297754143496
 20
63.697825228850014
 30
-5.0
 11
-84.89297754143496
 21
63.697825228850014
 31
-4.0
  0
CIRCLE
  5
E4
330
17
100
AcDbEntity
  8
0
100
AcDbCircle
 10
-86.89297754143496
 20
63.697825228850014
 30
-4.0
 40
2.0
  0
LINE
  5
E5
330
17
100
AcDbEntity
  8
0
100
AcDbLine
 10
8.137514913662088
 20
83.85036778902294
 30
-5.0
 11
8.137514913662088
 21
83.85036778902294
 31
-4.0
  0
CIRCLE
  5
E6
330
17
100
AcDbEntity
  8
0
100
AcDbCircle
 10
6.137514913662087
 20
83.85036778902294
 30
-4.0
 40
2.0
  0
LINE
  5
E7
330
17
100
AcDbEntity
  8
0
100
AcDbLine
 10
62.3234470831309
 20
68.30441991025337
 30
-5.0
 11
62.3234470831309
 21
68.30441991025337
 31
-4.0
  0
CIRCLE
  5
E8
330
17
100
AcDbEntity
  8
0
100
AcDbCircle
 10
60.3234470831309
 20
68.30441991025337
 30
-4.0
 40
2.0
  0
CIRCLE
  5
E9
330
17
100
AcDbEntity
  8
0
100
AcDbCircle
 10
-54.258501228597
 20
-92.00835137704281
 30
0.0
 40
1.525
  0
CIRCLE
  5
EA
330
17
100
AcDbEntity
  8
0
100
AcDbCircle
 10
-84.20554736553595
 20
-15.315018425341734
 30
0.0
 40
1.525
  0
CIRCLE
  5
EB
330
17
100
AcDbEntity
  8
0
100
AcDbCircle
 10
1.321680155184386
 20
-63.58298051617433
 30
0.0
 40
1.525
  0
CIRCLE
  5
EC
330
17
100
AcDbEntity
  8
0
100
AcDbCircle
 10
58.41396463310894
 20
-33.19730089791581
 30
0.0
 40
1.525
  0
CIRCLE
  5
ED
330
17
100
AcDbEntity
  8
0
100
AcDbCircle
 10
-86.89297754143496
 20
63.69782522885001
 30
0.0
 40
1.525
  0
CIRCLE
  5
EE
330
17
100
AcDbEntity
  8
0
100
AcDbCircle
 10
6.13751491366208
 20
83.85036778902293
 30
0.0
 40
1.525
  0
CIRCLE
  5
EF
330
17
100
AcDbEntity
  8
0
100
AcDbCircle
 10
60.3234470831309
 20
68.30441991025337
 30
0.0
 40
1.525
  0
LINE
  5
F0
330
17
100
AcDbEntity
  8
0
100
AcDbLine
 10
-50.28461012037192
 20
-92.18779017301598
 30
0.0
 11
-50.61407287286016
 21
-92.20991367486985
 31
0.0
  0
LINE
  5
F1
330
17
100
AcDbEntity
  8
0
100
AcDbLine
 10
-50.28461012037191
 20
-92.18779017301597
 30
0.0
 11
-42.099214391958284
 21
-91.00969330150878
 31
0.0
  0
LINE
  5
F2
330
17
100
AcDbEntity
  8
0
100
AcDbLine
 10
-42.09921439195707
 20
-91.00969330151068
 30
0.0
 11
-29.161068955724353
 21
-82.74194877299412
 31
0.0
  0
LINE
  5
F3
330
17
100
AcDbEntity
  8
0
100
AcDbLine
 10
-29.161068955724353
 20
-82.74194877299412
 30
0.0
 11
-6.226406110945417
 21
-63.18823865284999
 31
0.0
  0
LINE
  5
F4
330
17
100
AcDbEntity
  8
0
100
AcDbLine
 10
-6.2264061109454145
 20
-63.18823865285
 30
0.0
 11
-2.3069096895546473
 21
-63.18823865285
 31
0.0
  0
ARC
  5
F5
330
17
100
AcDbEntity
  8
0
100
AcDbCircle
 10
1.321680155184386
 20
-63.58298051617433
 30
0.0
 40
3.6499979999999996
100
AcDbArc
 50
6.2085965471962865
 51
173.7914034528037
  0
LINE
  5
F6
330
17
100
AcDbEntity
  8
0
100
AcDbLine
 10
4.950269999923419
 20
-63.18823865285
 30
0.0
 11
13.481519039637625
 21
-63.18823865285
 31
0.0
  0
LINE
  5
F7
330
17
100
AcDbEntity
  8
0
100
AcDbLine
 10
13.481519039637622
 20
-63.18823865285001
 30
0.0
 11
17.190655372153195
 21
-51.92586062187465
 31
0.0
  0
LINE
  5
F8
330
17
100
AcDbEntity
  8
0
100
AcDbLine
 10
17.1906553721532
 20
-51.92586062187465
 30
0.0
 11
13.902684029420595
 21
-51.92586062187465
 31
0.0
  0
LINE
  5
F9
330
17
100
AcDbEntity
  8
0
100
AcDbLine
 10
13.715905538199145
 20
-47.48260155767187
 30
0.0
 11
13.902684029420596
 21
-51.92586062187465
 31
0.0
  0
LINE
  5
FA
330
17
100
AcDbEntity
  8
0
100
AcDbLine
 10
14.322051134352606
 20
-46.44732623165211
 30
0.0
 11
13.715905538199138
 21
-47.48260155767187
 31
0.0
  0
LINE
  5
FB
330
17
100
AcDbEntity
  8
0
100
AcDbLine
 10
55.456340746612824
 20
-46.4473262316521
 30
0.0
 11
14.322051134352613
 21
-46.4473262316521
 31
0.0
  0
LINE
  5
FC
330
17
100
AcDbEntity
  8
0
100
AcDbLine
 10
59.996531951011754
 20
-41.05382263384801
 30
0.0
 11
55.4563407466128
 21
-46.44732623165211
 31
0.0
  0
LINE
  5
FD
330
17
100
AcDbEntity
  8
0
100
AcDbLine
 10
59.62334993672295
 20
-36.64111747076147
 30
0.0
 11
59.99653195101176
 21
-41.053822633848014
 31
0.0
  0
ARC
  5
FE
330
17
100
AcDbEntity
  8
0
100
AcDbCircle
 10
58.41396463310894
 20
-33.19730089791581
 30
0.0
 40
3.6499979999999996
100
AcDbArc
 50
80.31794677523195
 51
289.35004447815203
  0
LINE
  5
FF
330
17
100
AcDbEntity
  8
0
100
AcDbLine
 10
58.475401095101226
 20
-23.06715198896545
 30
0.0
 11
59.02782355643913
 21
-29.59929275141976
 31
0.0
  0
LINE
  5
100
330
17
100
AcDbEntity
  8
0
100
AcDbLine
 10
58.130789870670995
 20
-15.05
 30
0.0
 11
58.47540109510125
 21
-23.06715198896545
 31
0.0
  0
LINE
  5
101
330
17
100
AcDbEntity
  8
0
100
AcDbLine
 10
58.13078987067101
 20
-15.050000000000002
 30
0.0
 11
58.13078987067101
 21
3.0500000000000007
 31
0.0
  0
LINE
  5
102
330
17
100
AcDbEntity
  8
0
100
AcDbLine
 10
58.130789870671016
 20
3.0500000000000007
 30
0.0
 11
58.47540109510126
 21
11.067151988965447
 31
0.0
  0
LINE
  5
103
330
17
100
AcDbEntity
  8
0
100
AcDbLine
 10
60.05757919894588
 20
29.77567817847155
 30
0.0
 11
58.47540109510125
 21
11.067151988965449
 31
0.0
  0
LINE
  5
104
330
17
100
AcDbEntity
  8
0
100
AcDbLine
 10
60.05759668817711
 20
29.77588498056247
 30
0.0
 11
60.0575791989459
 21
29.775678178471555
 31
0.0
  0
LINE
  5
105
330
17
100
AcDbEntity
  8
0
100
AcDbLine
 10
60.06760761045249
 20
29.855197877171847
 30
-8.881784197001252e-16
 11
60.0575966881771
 21
29.77588498056247
 31
-8.881784197001252e-16
  0
LINE
  5
106
330
17
100
AcDbEntity
  8
0
100
AcDbLine
 10
60.31620706552512
 20
38.40362212279493
 30
0.0
 11
60.06760761045249
 21
29.855197877171847
 31
0.0
  0
LINE
  5
107
330
17
100
AcDbEntity
  8
0
100
AcDbLine
 10
60.31620706552452
 20
38.40362212279496
 30
0.0
 11
60.95159424006725
 21
54.078685933789686
 31
0.0
  0
LINE
  5
108
330
17
100
AcDbEntity
  8
0
100
AcDbLine
 10
61.35036933801791
 20
61.480835507970234
 30
0.0
 11
60.951594240067244
 21
54.078685933789686
 31
0.0
  0
LINE
  5
109
330
17
100
AcDbEntity
  8
0
100
AcDbLine
 10
61.35036933801793
 20
61.48083550797023
 30
0.0
 11
61.58908100731855
 21
64.88087552322558
 31
0.0
  0
ARC
  5
10A
330
17
100
AcDbEntity
  8
0
100
AcDbCircle
 10
60.3234470831309
 20
68.30441991025337
 30
0.0
 40
3.6499979999999996
100
AcDbArc
 50
61.679269276919804
 51
290.2886106940766
  0
LINE
  5
10B
330
17
100
AcDbEntity
  8
0
100
AcDbLine
 10
62.055030778288405
 20
71.51753417941168
 30
0.0
 11
62.06911751043951
 21
71.71817561909606
 31
0.0
  0
LINE
  5
10C
330
17
100
AcDbEntity
  8
0
100
AcDbLine
 10
57.75276600628986
 20
75.62298426629744
 30
-1.7763568394002505e-15
 11
62.06911751043951
 21
71.71817561909603
 31
-1.7763568394002505e-15
  0
LINE
  5
10D
330
17
100
AcDbEntity
  8
0
100
AcDbLine
 10
19.453444125013597
 20
75.62298426629742
 30
0.0
 11
57.75276600628985
 21
75.62298426629742
 31
0.0
  0
LINE
  5
10E
330
17
100
AcDbEntity
  8
0
100
AcDbLine
 10
15.857501605458822
 20
81.62298426629742
 30
0.0
 11
19.453444125013597
 21
75.62298426629742
 31
0.0
  0
LINE
  5
10F
330
17
100
AcDbEntity
  8
0
100
AcDbLine
 10
9.029097186863893
 20
81.62298426629742
 30
0.0
 11
15.857501605458827
 21
81.62298426629742
 31
0.0
  0
ARC
  5
110
330
17
100
AcDbEntity
  8
0
100
AcDbCircle
 10
6.13751491366208
 20
83.85036778902293
 30
0.0
 40
3.6499979999999996
100
AcDbArc
 50
217.6070317943133
 51
322.39296820568666
  0
LINE
  5
111
330
17
100
AcDbEntity
  8
0
100
AcDbLine
 10
-1.6058467329909183
 20
81.62298426629742
 30
0.0
 11
3.245932640460272
 21
81.62298426629742
 31
0.0
  0
LINE
  5
112
330
17
100
AcDbEntity
  8
0
100
AcDbLine
 10
-5.049709694876373
 20
84.4429842662974
 30
0.0
 11
-1.6058467329909192
 21
81.62298426629741
 31
0.0
  0
LINE
  5
113
330
17
100
AcDbEntity
  8
0
100
AcDbLine
 10
-21.9718505406992
 20
84.44298426629742
 30
0.0
 11
-5.049709694876372
 21
84.44298426629742
 31
0.0
  0
LINE
  5
114
330
17
100
AcDbEntity
  8
0
100
AcDbLine
 10
-21.971850540699197
 20
84.44298426629742
 30
0.0
 11
-23.35859111888587
 21
81.62298426629742
 31
0.0
  0
LINE
  5
115
330
17
100
AcDbEntity
  8
0
100
AcDbLine
 10
-23.358591118885872
 20
81.62298426629741
 30
0.0
 11
-58.28819379803235
 21
81.62298426629741
 31
0.0
  0
LINE
  5
116
330
17
100
AcDbEntity
  8
0
100
AcDbLine
 10
-58.28819379803235
 20
81.62298426629742
 30
0.0
 11
-78.75514979056231
 21
76.01179048136305
 31
0.0
  0
LINE
  5
117
330
17
100
AcDbEntity
  8
0
100
AcDbLine
 10
-83.7551497905623
 20
70.01179048136305
 30
0.0
 11
-78.7551497905623
 21
76.01179048136305
 31
0.0
  0
LINE
  5
118
330
17
100
AcDbEntity
  8
0
100
AcDbLine
 10
-83.75514979056229
 20
70.01179048136305
 30
0.0
 11
-85.23979009606924
 21
66.95196976628058
 31
0.0
  0
ARC
  5
119
330
17
100
AcDbEntity
  8
0
100
AcDbCircle
 10
-86.89297754143496
 20
63.69782522885001
 30
0.0
 40
3.6499979999999996
100
AcDbArc
 50
245.16593025803016
 51
423.068283152138
  0
LINE
  5
11A
330
17
100
AcDbEntity
  8
0
100
AcDbLine
 10
-88.42594673541055
 20
60.385350194932656
 30
0.0
 11
-89.93080529230764
 21
57.28385997633696
 31
0.0
  0
LINE
  5
11B
330
17
100
AcDbEntity
  8
0
100
AcDbLine
 10
-91.60563489561994
 20
52.78539016792736
 30
0.0
 11
-89.93080529230764
 21
57.28385997633697
 31
0.0
  0
LINE
  5
11C
330
17
100
AcDbEntity
  8
0
100
AcDbLine
 10
-95.97248233101573
 20
37.196928919424295
 30
0.0
 11
-91.60563489561996
 21
52.78539016792737
 31
0.0
  0
LINE
  5
11D
330
17
100
AcDbEntity
  8
0
100
AcDbLine
 10
-97.02532414916669
 20
31.958351377042813
 30
0.0
 11
-95.97248233101573
 21
37.196928919424295
 31
0.0
  0
LINE
  5
11E
330
17
100
AcDbEntity
  8
0
100
AcDbLine
 10
-99.27343071571471
 20
14.666599968246492
 30
0.0
 11
-97.02532414916669
 21
31.958351377042813
 31
0.0
  0
LINE
  5
11F
330
17
100
AcDbEntity
  8
0
100
AcDbLine
 10
-85.64487530540637
 20
9.05000000000001
 30
0.0
 11
-99.27343071571472
 21
14.666599968246512
 31
0.0
  0
LINE
  5
120
330
17
100
AcDbEntity
  8
0
100
AcDbLine
 10
-85.64487530540639
 20
9.05
 30
0.0
 11
-85.64487530540637
 21
-8.95
 31
0.0
  0
LINE
  5
121
330
17
100
AcDbEntity
  8
0
100
AcDbLine
 10
-85.6448753054064
 20
-8.95
 30
0.0
 11
-85.4573040848346
 21
-11.886375761590564
 31
0.0
  0
ARC
  5
122
330
17
100
AcDbEntity
  8
0
100
AcDbCircle
 10
-84.20554736553595
 20
-15.315018425341734
 30
0.0
 40
3.6499979999999996
100
AcDbArc
 50
281.5729198019507
 51
470.05653758263355
  0
LINE
  5
123
330
17
100
AcDbEntity
  8
0
100
AcDbLine
 10
-83.02532414916669
 20
-19.958351377042817
 30
0.0
 11
-83.47330333208261
 21
-18.890812613417438
 31
0.0
  0
LINE
  5
124
330
17
100
AcDbEntity
  8
0
100
AcDbLine
 10
-83.0253241491667
 20
-19.958351377042813
 30
0.0
 11
-83.0253241491667
 21
-20.058351377042815
 31
0.0
  0
LINE
  5
125
330
17
100
AcDbEntity
  8
0
100
AcDbLine
 10
-87.04394667324459
 20
-34.022515241032494
 30
0.0
 11
-83.02532414916669
 21
-20.058351377042815
 31
0.0
  0
LINE
  5
126
330
17
100
AcDbEntity
  8
0
100
AcDbLine
 10
-88.5071908252122
 20
-35.52383893513916
 30
0.0
 11
-87.04394667324459
 21
-34.022515241032494
 31
0.0
  0
LINE
  5
127
330
17
100
AcDbEntity
  8
0
100
AcDbLine
 10
-89.73114345489554
 20
-35.6309209149292
 30
0.0
 11
-88.5071908252122
 21
-35.523838935139175
 31
0.0
  0
LINE
  5
128
330
17
100
AcDbEntity
  8
0
100
AcDbLine
 10
-89.73114345489554
 20
-35.6309209149292
 30
0.0
 11
-94.67301403507118
 21
-51.84450030882429
 31
0.0
  0
LINE
  5
129
330
17
100
AcDbEntity
  8
0
100
AcDbLine
 10
-94.67301403507119
 20
-51.84450030882429
 30
0.0
 11
-96.45725304658772
 21
-54.5008486103238
 31
0.0
  0
LINE
  5
12A
330
17
100
AcDbEntity
  8
0
100
AcDbLine
 10
-96.76876361348626
 20
-56.08192323310946
 30
-8.881784197001252e-16
 11
-96.45725304658774
 21
-54.5008486103238
 31
-8.881784197001252e-16
  0
LINE
  5
12B
330
17
100
AcDbEntity
  8
0
100
AcDbLine
 10
-96.76876361348621
 20
-56.08192323310947
 30
0.0
 11
-97.06668684522072
 21
-57.50467324923178
 31
0.0
  0
LINE
  5
12C
330
17
100
AcDbEntity
  8
0
100
AcDbLine
 10
-113.88709293340219
 20
-71.17900964858758
 30
0.0
 11
-97.06668684522072
 21
-57.50467324923181
 31
0.0
  0
LINE
  5
12D
330
17
100
AcDbEntity
  8
0
100
AcDbLine
 10
-113.88709293339532
 20
-71.17900964859604
 30
0.0
 11
-100.86227984465879
 21
-87.57300533544556
 31
0.0
  0
LINE
  5
12E
330
17
100
AcDbEntity
  8
0
100
AcDbLine
 10
-100.86227984465873
 20
-87.57300533544549
 30
0.0
 11
-81.32781254660377
 21
-96.1533325494381
 31
0.0
  0
LINE
  5
12F
330
17
100
AcDbEntity
  8
0
100
AcDbLine
 10
-70.01899952477031
 20
-102.3934205401073
 30
0.0
 11
-81.32781254660378
 21
-96.15333254943815
 31
0.0
  0
LINE
  5
130
330
17
100
AcDbEntity
  8
0
100
AcDbLine
 10
-70.01899952476467
 20
-102.39342054011611
 30
0.0
 11
-57.198076750559615
 21
-94.17200133733726
 31
0.0
  0
ARC
  5
131
330
17
100
AcDbEntity
  8
0
100
AcDbCircle
 10
-54.258501228597
 20
-92.00835137704281
 30
0.0
 40
3.6499979999999996
100
AcDbArc
 50
356.83436902741624
 51
576.3546154239729
  0
CIRCLE
  5
132
330
17
100
AcDbEntity
  8
0
100
AcDbCircle
 10
-54.258501228597
 20
-92.00835137704281
 30
-4.0
 40
1.525
  0
CIRCLE
  5
133
330
17
100
AcDbEntity
  8
0
100
AcDbCircle
 10
-84.20554736553595
 20
-15.315018425341734
 30
-4.0
 40
1.525
  0
CIRCLE
  5
134
330
17
100
AcDbEntity
  8
0
100
AcDbCircle
 10
1.321680155184386
 20
-63.58298051617433
 30
-4.0
 40
1.525
  0
CIRCLE
  5
135
330
17
100
AcDbEntity
  8
0
100
AcDbCircle
 10
58.41396463310894
 20
-33.19730089791581
 30
-4.0
 40
1.525
  0
CIRCLE
  5
136
330
17
100
AcDbEntity
  8
0
100
AcDbCircle
 10
-86.89297754143496
 20
63.69782522885001
 30
-4.0
 40
1.525
  0
CIRCLE
  5
137
330
17
100
AcDbEntity
  8
0
100
AcDbCircle
 10
6.13751491366208
 20
83.85036778902293
 30
-4.0
 40
1.525
  0
CIRCLE
  5
138
330
17
100
AcDbEntity
  8
0
100
AcDbCircle
 10
60.3234470831309
 20
68.30441991025337
 30
-4.0
 40
1.525
  0
LINE
  5
139
330
17
100
AcDbEntity
  8
0
100
AcDbLine
 10
-52.733501228597
 20
-92.00835137704281
 30
-4.0
 11
-52.733501228597
 21
-92.00835137704281
 31
0.0
  0
LINE
  5
13A
330
17
100
AcDbEntity
  8
0
100
AcDbLine
 10
-82.68054736553594
 20
-15.315018425341734
 30
-4.0
 11
-82.68054736553594
 21
-15.315018425341734
 31
0.0
  0
LINE
  5
13B
330
17
100
AcDbEntity
  8
0
100
AcDbLine
 10
2.846680155184386
 20
-63.58298051617433
 30
-4.0
 11
2.846680155184386
 21
-63.58298051617433
 31
0.0
  0
LINE
  5
13C
330
17
100
AcDbEntity
  8
0
100
AcDbLine
 10
59.93896463310894
 20
-33.19730089791581
 30
-4.0
 11
59.93896463310894
 21
-33.19730089791581
 31
0.0
  0
LINE
  5
13D
330
17
100
AcDbEntity
  8
0
100
AcDbLine
 10
-85.36797754143495
 20
63.69782522885001
 30
-4.0
 11
-85.36797754143495
 21
63.69782522885001
 31
0.0
  0
LINE
  5
13E
330
17
100
AcDbEntity
  8
0
100
AcDbLine
 10
7.662514913662079
 20
83.85036778902293
 30
-4.0
 11
7.662514913662079
 21
83.85036778902293
 31
0.0
  0
LINE
  5
13F
330
17
100
AcDbEntity
  8
0
100
AcDbLine
 10
61.8484470831309
 20
68.30441991025337
 30
-4.0
 11
61.8484470831309
 21
68.30441991025337
 31
0.0
  0
LINE
  5
140
330
17
100
AcDbEntity
  8
0
100
AcDbLine
 10
-50.28461012037192
 20
-92.18779017301598
 30
-2.0
 11
-50.61407287286016
 21
-92.20991367486985
 31
-2.0
  0
LINE
  5
141
330
17
100
AcDbEntity
  8
0
100
AcDbLine
 10
-50.61407287286016
 20
-92.20991367486985
 30
-2.0000000000000018
 11
-50.61407287286016
 21
-92.20991367486985
 31
-1.7763568394002505e-15
  0
LINE
  5
142
330
17
100
AcDbEntity
  8
0
100
AcDbLine
 10
-50.284610120371916
 20
-92.18779017301597
 30
-2.0
 11
-50.284610120371916
 21
-92.18779017301597
 31
0.0
  0
LINE
  5
143
330
17
100
AcDbEntity
  8
0
100
AcDbLine
 10
-50.28461012037191
 20
-92.18779017301597
 30
-2.0
 11
-42.099214391958284
 21
-91.00969330150878
 31
-2.0
  0
LINE
  5
144
330
17
100
AcDbEntity
  8
0
100
AcDbLine
 10
-42.099214391958284
 20
-91.00969330150878
 30
-2.0
 11
-42.099214391958284
 21
-91.00969330150878
 31
0.0
  0
LINE
  5
145
330
17
100
AcDbEntity
  8
0
100
AcDbLine
 10
-42.09921439195707
 20
-91.00969330151068
 30
-2.0
 11
-29.161068955724353
 21
-82.74194877299412
 31
-2.0
  0
LINE
  5
146
330
17
100
AcDbEntity
  8
0
100
AcDbLine
 10
-29.161068955724353
 20
-82.74194877299412
 30
-2.0
 11
-29.161068955724353
 21
-82.74194877299412
 31
0.0
  0
LINE
  5
147
330
17
100
AcDbEntity
  8
0
100
AcDbLine
 10
-29.161068955724353
 20
-82.74194877299412
 30
-2.0
 11
-6.226406110945417
 21
-63.18823865284999
 31
-2.0
  0
LINE
  5
148
330
17
100
AcDbEntity
  8
0
100
AcDbLine
 10
-6.226406110945414
 20
-63.188238652849996
 30
-2.0
 11
-6.226406110945414
 21
-63.188238652849996
 31
0.0
  0
LINE
  5
149
330
17
100
AcDbEntity
  8
0
100
AcDbLine
 10
-6.2264061109454145
 20
-63.18823865285
 30
-2.0
 11
-2.3069096895546473
 21
-63.18823865285
 31
-2.0
  0
LINE
  5
14A
330
17
100
AcDbEntity
  8
0
100
AcDbLine
 10
-2.3069096895546473
 20
-63.18823865285
 30
-2.0000000000000004
 11
-2.3069096895546473
 21
-63.18823865285
 31
0.0
  0
ARC
  5
14B
330
17
100
AcDbEntity
  8
0
100
AcDbCircle
 10
1.321680155184386
 20
-63.58298051617433
 30
-2.0
 40
3.6499979999999996
100
AcDbArc
 50
6.2085965471962865
 51
173.7914034528037
  0
LINE
  5
14C
330
17
100
AcDbEntity
  8
0
100
AcDbLine
 10
4.950269999923419
 20
-63.18823865285
 30
-2.0
 11
4.950269999923419
 21
-63.18823865285
 31
0.0
  0
LINE
  5
14D
330
17
100
AcDbEntity
  8
0
100
AcDbLine
 10
4.950269999923419
 20
-63.18823865285
 30
-2.0
 11
13.481519039637625
 21
-63.18823865285
 31
-2.0
  0
LINE
  5
14E
330
17
100
AcDbEntity
  8
0
100
AcDbLine
 10
13.48151903963762
 20
-63.18823865285
 30
-2.0
 11
13.48151903963762
 21
-63.18823865285
 31
0.0
  0
LINE
  5
14F
330
17
100
AcDbEntity
  8
0
100
AcDbLine
 10
13.481519039637622
 20
-63.18823865285001
 30
-2.0
 11
17.190655372153195
 21
-51.92586062187465
 31
-2.0
  0
LINE
  5
150
330
17
100
AcDbEntity
  8
0
100
AcDbLine
 10
17.19065537215319
 20
-51.92586062187465
 30
-2.0
 11
17.19065537215319
 21
-51.92586062187465
 31
0.0
  0
LINE
  5
151
330
17
100
AcDbEntity
  8
0
100
AcDbLine
 10
17.1906553721532
 20
-51.92586062187465
 30
-2.0
 11
13.902684029420595
 21
-51.92586062187465
 31
-2.0
  0
LINE
  5
152
330
17
100
AcDbEntity
  8
0
100
AcDbLine
 10
13.902684029420595
 20
-51.92586062187465
 30
-2.0
 11
13.902684029420595
 21
-51.92586062187465
 31
0.0
  0
LINE
  5
153
330
17
100
AcDbEntity
  8
0
100
AcDbLine
 10
13.715905538199145
 20
-47.48260155767187
 30
-2.0
 11
13.902684029420596
 21
-51.92586062187465
 31
-2.0
  0
LINE
  5
154
330
17
100
AcDbEntity
  8
0
100
AcDbLine
 10
13.715905538199141
 20
-47.48260155767187
 30
-2.0
 11
13.715905538199141
 21
-47.48260155767187
 31
0.0
  0
LINE
  5
155
330
17
100
AcDbEntity
  8
0
100
AcDbLine
 10
14.322051134352606
 20
-46.44732623165211
 30
-2.0
 11
13.715905538199138
 21
-47.48260155767187
 31
-2.0
  0
LINE
  5
156
330
17
100
AcDbEntity
  8
0
100
AcDbLine
 10
14.32205113435261
 20
-46.44732623165211
 30
-2.0
 11
14.32205113435261
 21
-46.44732623165211
 31
0.0
  0
LINE
  5
157
330
17
100
AcDbEntity
  8
0
100
AcDbLine
 10
55.456340746612824
 20
-46.4473262316521
 30
-2.0
 11
14.322051134352613
 21
-46.4473262316521
 31
-2.0
  0
LINE
  5
158
330
17
100
AcDbEntity
  8
0
100
AcDbLine
 10
55.4563407466128
 20
-46.44732623165211
 30
-2.0
 11
55.4563407466128
 21
-46.44732623165211
 31
0.0
  0
LINE
  5
159
330
17
100
AcDbEntity
  8
0
100
AcDbLine
 10
59.996531951011754
 20
-41.05382263384801
 30
-2.0
 11
55.4563407466128
 21
-46.44732623165211
 31
-2.0
  0
LINE
  5
15A
330
17
100
AcDbEntity
  8
0
100
AcDbLine
 10
59.996531951011754
 20
-41.05382263384801
 30
-2.0
 11
59.996531951011754
 21
-41.05382263384801
 31
0.0
  0
LINE
  5
15B
330
17
100
AcDbEntity
  8
0
100
AcDbLine
 10
59.62334993672295
 20
-36.64111747076147
 30
-2.0
 11
59.99653195101176
 21
-41.053822633848014
 31
-2.0
  0
LINE
  5
15C
330
17
100
AcDbEntity
  8
0
100
AcDbLine
 10
59.62334993672296
 20
-36.64111747076147
 30
-2.000000000000001
 11
59.62334993672296
 21
-36.64111747076147
 31
-8.881784197001252e-16
  0
ARC
  5
15D
330
17
100
AcDbEntity
  8
0
100
AcDbCircle
 10
58.41396463310894
 20
-33.19730089791581
 30
-2.0
 40
3.6499979999999996
100
AcDbArc
 50
80.31794677523195
 51
289.35004447815203
  0
LINE
  5
15E
330
17
100
AcDbEntity
  8
0
100
AcDbLine
 10
59.02782355643913
 20
-29.59929275141976
 30
-1.9999999999999978
 11
59.02782355643913
 21
-29.59929275141976
 31
1.7763568394002505e-15
  0
LINE
  5
15F
330
17
100
AcDbEntity
  8
0
100
AcDbLine
 10
58.475401095101226
 20
-23.06715198896545
 30
-2.0
 11
59.02782355643913
 21
-29.59929275141976
 31
-2.0
  0
LINE
  5
160
330
17
100
AcDbEntity
  8
0
100
AcDbLine
 10
58.47540109510125
 20
-23.06715198896545
 30
-2.0
 11
58.47540109510125
 21
-23.06715198896545
 31
0.0
  0
LINE
  5
161
330
17
100
AcDbEntity
  8
0
100
AcDbLine
 10
58.130789870670995
 20
-15.05
 30
-2.0
 11
58.47540109510125
 21
-23.06715198896545
 31
-2.0
  0
LINE
  5
162
330
17
100
AcDbEntity
  8
0
100
AcDbLine
 10
58.130789870671
 20
-15.05
 30
-2.0
 11
58.130789870671
 21
-15.05
 31
0.0
  0
LINE
  5
163
330
17
100
AcDbEntity
  8
0
100
AcDbLine
 10
58.13078987067101
 20
-15.050000000000002
 30
-2.0
 11
58.13078987067101
 21
3.0500000000000007
 31
-2.0
  0
LINE
  5
164
330
17
100
AcDbEntity
  8
0
100
AcDbLine
 10
58.130789870671
 20
3.0500000000000007
 30
-2.0
 11
58.130789870671
 21
3.0500000000000007
 31
0.0
  0
LINE
  5
165
330
17
100
AcDbEntity
  8
0
100
AcDbLine
 10
58.130789870671016
 20
3.0500000000000007
 30
-2.0
 11
58.47540109510126
 21
11.067151988965447
 31
-2.0
  0
LINE
  5
166
330
17
100
AcDbEntity
  8
0
100
AcDbLine
 10
58.47540109510125
 20
11.067151988965449
 30
-2.0
 11
58.47540109510125
 21
11.067151988965449
 31
0.0
  0
LINE
  5
167
330
17
100
AcDbEntity
  8
0
100
AcDbLine
 10
60.05757919894588
 20
29.77567817847155
 30
-2.0
 11
58.47540109510125
 21
11.067151988965449
 31
-2.0
  0
LINE
  5
168
330
17
100
AcDbEntity
  8
0
100
AcDbLine
 10
60.05757919894589
 20
29.775678178471555
 30
-2.0
 11
60.05757919894589
 21
29.775678178471555
 31
0.0
  0
LINE
  5
169
330
17
100
AcDbEntity
  8
0
100
AcDbLine
 10
60.05759668817711
 20
29.77588498056247
 30
-2.0
 11
60.0575791989459
 21
29.775678178471555
 31
-2.0
  0
LINE
  5
16A
330
17
100
AcDbEntity
  8
0
100
AcDbLine
 10
60.05759668817709
 20
29.77588498056247
 30
-2.0
 11
60.05759668817709
 21
29.77588498056247
 31
0.0
  0
LINE
  5
16B
330
17
100
AcDbEntity
  8
0
100
AcDbLine
 10
60.06760761045249
 20
29.855197877171847
 30
-2.000000000000001
 11
60.0575966881771
 21
29.77588498056247
 31
-2.000000000000001
  0
LINE
  5
16C
330
17
100
AcDbEntity
  8
0
100
AcDbLine
 10
60.06760761045249
 20
29.855197877171847
 30
-2.0
 11
60.06760761045249
 21
29.855197877171847
 31
0.0
  0
LINE
  5
16D
330
17
100
AcDbEntity
  8
0
100
AcDbLine
 10
60.31620706552512
 20
38.40362212279493
 30
-2.0
 11
60.06760761045249
 21
29.855197877171847
 31
-2.0
  0
LINE
  5
16E
330
17
100
AcDbEntity
  8
0
100
AcDbLine
 10
60.31620706552511
 20
38.403622122794935
 30
-2.0
 11
60.31620706552511
 21
38.403622122794935
 31
0.0
  0
LINE
  5
16F
330
17
100
AcDbEntity
  8
0
100
AcDbLine
 10
60.31620706552452
 20
38.40362212279496
 30
-2.0
 11
60.95159424006725
 21
54.078685933789686
 31
-2.0
  0
LINE
  5
170
330
17
100
AcDbEntity
  8
0
100
AcDbLine
 10
60.95159424006724
 20
54.07868593378968
 30
-2.0
 11
60.95159424006724
 21
54.07868593378968
 31
0.0
  0
LINE
  5
171
330
17
100
AcDbEntity
  8
0
100
AcDbLine
 10
61.35036933801791
 20
61.480835507970234
 30
-2.0
 11
60.951594240067244
 21
54.078685933789686
 31
-2.0
  0
LINE
  5
172
330
17
100
AcDbEntity
  8
0
100
AcDbLine
 10
61.350369338017906
 20
61.48083550797023
 30
-2.0
 11
61.350369338017906
 21
61.48083550797023
 31
0.0
  0
LINE
  5
173
330
17
100
AcDbEntity
  8
0
100
AcDbLine
 10
61.35036933801793
 20
61.48083550797023
 30
-2.0
 11
61.58908100731855
 21
64.88087552322558
 31
-2.0
  0
LINE
  5
174
330
17
100
AcDbEntity
  8
0
100
AcDbLine
 10
61.58908100731855
 20
64.88087552322558
 30
-2.0
 11
61.58908100731855
 21
64.88087552322558
 31
0.0
  0
ARC
  5
175
330
17
100
AcDbEntity
  8
0
100
AcDbCircle
 10
60.3234470831309
 20
68.30441991025337
 30
-2.0
 40
3.6499979999999996
100
AcDbArc
 50
61.679269276919804
 51
290.2886106940766
  0
LINE
  5
176
330
17
100
AcDbEntity
  8
0
100
AcDbLine
 10
62.055030778288405
 20
71.51753417941168
 30
-2.0000000000000004
 11
62.055030778288405
 21
71.51753417941168
 31
-8.881784197001252e-16
  0
LINE
  5
177
330
17
100
AcDbEntity
  8
0
100
AcDbLine
 10
62.055030778288405
 20
71.51753417941168
 30
-2.0
 11
62.06911751043951
 21
71.71817561909606
 31
-2.0
  0
LINE
  5
178
330
17
100
AcDbEntity
  8
0
100
AcDbLine
 10
62.069117510439504
 20
71.71817561909603
 30
-2.0
 11
62.069117510439504
 21
71.71817561909603
 31
0.0
  0
LINE
  5
179
330
17
100
AcDbEntity
  8
0
100
AcDbLine
 10
57.75276600628986
 20
75.62298426629744
 30
-2.0000000000000018
 11
62.06911751043951
 21
71.71817561909603
 31
-2.0000000000000018
  0
LINE
  5
17A
330
17
100
AcDbEntity
  8
0
100
AcDbLine
 10
57.75276600628985
 20
75.62298426629742
 30
-2.0
 11
57.75276600628985
 21
75.62298426629742
 31
0.0
  0
LINE
  5
17B
330
17
100
AcDbEntity
  8
0
100
AcDbLine
 10
19.453444125013597
 20
75.62298426629742
 30
-2.0
 11
57.75276600628985
 21
75.62298426629742
 31
-2.0
  0
LINE
  5
17C
330
17
100
AcDbEntity
  8
0
100
AcDbLine
 10
19.4534441250136
 20
75.62298426629742
 30
-2.0
 11
19.4534441250136
 21
75.62298426629742
 31
0.0
  0
LINE
  5
17D
330
17
100
AcDbEntity
  8
0
100
AcDbLine
 10
15.857501605458822
 20
81.62298426629742
 30
-2.0
 11
19.453444125013597
 21
75.62298426629742
 31
-2.0
  0
LINE
  5
17E
330
17
100
AcDbEntity
  8
0
100
AcDbLine
 10
15.857501605458825
 20
81.62298426629742
 30
-2.0
 11
15.857501605458825
 21
81.62298426629742
 31
0.0
  0
LINE
  5
17F
330
17
100
AcDbEntity
  8
0
100
AcDbLine
 10
9.029097186863893
 20
81.62298426629742
 30
-2.0
 11
15.857501605458827
 21
81.62298426629742
 31
-2.0
  0
LINE
  5
180
330
17
100
AcDbEntity
  8
0
100
AcDbLine
 10
9.029097186863893
 20
81.62298426629742
 30
-1.9999999999999996
 11
9.029097186863893
 21
81.62298426629742
 31
8.881784197001252e-16
  0
ARC
  5
181
330
17
100
AcDbEntity
  8
0
100
AcDbCircle
 10
6.13751491366208
 20
83.85036778902293
 30
-2.0
 40
3.6499979999999996
100
AcDbArc
 50
217.6070317943133
 51
322.39296820568666
  0
LINE
  5
182
330
17
100
AcDbEntity
  8
0
100
AcDbLine
 10
3.245932640460272
 20
81.62298426629742
 30
-2.0
 11
3.245932640460272
 21
81.62298426629742
 31
0.0
  0
LINE
  5
183
330
17
100
AcDbEntity
  8
0
100
AcDbLine
 10
-1.6058467329909183
 20
81.62298426629742
 30
-2.0
 11
3.245932640460272
 21
81.62298426629742
 31
-2.0
  0
LINE
  5
184
330
17
100
AcDbEntity
  8
0
100
AcDbLine
 10
-1.6058467329909183
 20
81.62298426629742
 30
-2.0
 11
-1.6058467329909183
 21
81.62298426629742
 31
0.0
  0
LINE
  5
185
330
17
100
AcDbEntity
  8
0
100
AcDbLine
 10
-5.049709694876373
 20
84.4429842662974
 30
-2.0
 11
-1.6058467329909192
 21
81.62298426629741
 31
-2.0
  0
LINE
  5
186
330
17
100
AcDbEntity
  8
0
100
AcDbLine
 10
-5.0497096948763724
 20
84.44298426629742
 30
-2.0
 11
-5.0497096948763724
 21
84.44298426629742
 31
0.0
  0
LINE
  5
187
330
17
100
AcDbEntity
  8
0
100
AcDbLine
 10
-21.9718505406992
 20
84.44298426629742
 30
-2.0
 11
-5.049709694876372
 21
84.44298426629742
 31
-2.0
  0
LINE
  5
188
330
17
100
AcDbEntity
  8
0
100
AcDbLine
 10
-21.971850540699197
 20
84.44298426629742
 30
-2.0
 11
-21.971850540699197
 21
84.44298426629742
 31
0.0
  0
LINE
  5
189
330
17
100
AcDbEntity
  8
0
100
AcDbLine
 10
-21.971850540699197
 20
84.44298426629742
 30
-2.0
 11
-23.35859111888587
 21
81.62298426629742
 31
-2.0
  0
LINE
  5
18A
330
17
100
AcDbEntity
  8
0
100
AcDbLine
 10
-23.358591118885872
 20
81.62298426629742
 30
-2.0
 11
-23.358591118885872
 21
81.62298426629742
 31
0.0
  0
LINE
  5
18B
330
17
100
AcDbEntity
  8
0
100
AcDbLine
 10
-23.358591118885872
 20
81.62298426629741
 30
-2.0
 11
-58.28819379803235
 21
81.62298426629741
 31
-2.0
  0
LINE
  5
18C
330
17
100
AcDbEntity
  8
0
100
AcDbLine
 10
-58.28819379803235
 20
81.62298426629742
 30
-2.0
 11
-58.28819379803235
 21
81.62298426629742
 31
0.0
  0
LINE
  5
18D
330
17
100
AcDbEntity
  8
0
100
AcDbLine
 10
-58.28819379803235
 20
81.62298426629742
 30
-2.0
 11
-78.75514979056231
 21
76.01179048136305
 31
-2.0
  0
LINE
  5
18E
330
17
100
AcDbEntity
  8
0
100
AcDbLine
 10
-78.7551497905623
 20
76.01179048136305
 30
-2.0
 11
-78.7551497905623
 21
76.01179048136305
 31
0.0
  0
LINE
  5
18F
330
17
100
AcDbEntity
  8
0
100
AcDbLine
 10
-83.7551497905623
 20
70.01179048136305
 30
-2.0
 11
-78.7551497905623
 21
76.01179048136305
 31
-2.0
  0
LINE
  5
190
330
17
100
AcDbEntity
  8
0
100
AcDbLine
 10
-83.7551497905623
 20
70.01179048136305
 30
-2.0
 11
-83.7551497905623
 21
70.01179048136305
 31
0.0
  0
LINE
  5
191
330
17
100
AcDbEntity
  8
0
100
AcDbLine
 10
-83.75514979056229
 20
70.01179048136305
 30
-2.0
 11
-85.23979009606924
 21
66.95196976628058
 31
-2.0
  0
LINE
  5
192
330
17
100
AcDbEntity
  8
0
100
AcDbLine
 10
-85.23979009606926
 20
66.95196976628058
 30
-2.0
 11
-85.23979009606926
 21
66.95196976628058
 31
0.0
  0
ARC
  5
193
330
17
100
AcDbEntity
  8
0
100
AcDbCircle
 10
-86.89297754143496
 20
63.69782522885001
 30
-2.0
 40
3.6499979999999996
100
AcDbArc
 50
245.16593025803016
 51
423.068283152138
  0
LINE
  5
194
330
17
100
AcDbEntity
  8
0
100
AcDbLine
 10
-88.42594673541055
 20
60.38535019493265
 30
-1.9999999999999996
 11
-88.42594673541055
 21
60.38535019493265
 31
8.881784197001252e-16
  0
LINE
  5
195
330
17
100
AcDbEntity
  8
0
100
AcDbLine
 10
-88.42594673541055
 20
60.385350194932656
 30
-2.0
 11
-89.93080529230764
 21
57.28385997633696
 31
-2.0
  0
LINE
  5
196
330
17
100
AcDbEntity
  8
0
100
AcDbLine
 10
-89.93080529230765
 20
57.28385997633697
 30
-2.0
 11
-89.93080529230765
 21
57.28385997633697
 31
0.0
  0
LINE
  5
197
330
17
100
AcDbEntity
  8
0
100
AcDbLine
 10
-91.60563489561994
 20
52.78539016792736
 30
-2.0
 11
-89.93080529230764
 21
57.28385997633697
 31
-2.0
  0
LINE
  5
198
330
17
100
AcDbEntity
  8
0
100
AcDbLine
 10
-91.60563489561996
 20
52.78539016792736
 30
-2.0
 11
-91.60563489561996
 21
52.78539016792736
 31
0.0
  0
LINE
  5
199
330
17
100
AcDbEntity
  8
0
100
AcDbLine
 10
-95.97248233101573
 20
37.196928919424295
 30
-2.0
 11
-91.60563489561996
 21
52.78539016792737
 31
-2.0
  0
LINE
  5
19A
330
17
100
AcDbEntity
  8
0
100
AcDbLine
 10
-95.97248233101573
 20
37.196928919424295
 30
-2.0
 11
-95.97248233101573
 21
37.196928919424295
 31
0.0
  0
LINE
  5
19B
330
17
100
AcDbEntity
  8
0
100
AcDbLine
 10
-97.02532414916669
 20
31.958351377042813
 30
-2.0
 11
-95.97248233101573
 21
37.196928919424295
 31
-2.0
  0
LINE
  5
19C
330
17
100
AcDbEntity
  8
0
100
AcDbLine
 10
-97.02532414916669
 20
31.958351377042813
 30
-2.0
 11
-97.02532414916669
 21
31.958351377042813
 31
0.0
  0
LINE
  5
19D
330
17
100
AcDbEntity
  8
0
100
AcDbLine
 10
-99.27343071571471
 20
14.666599968246492
 30
-2.0
 11
-97.02532414916669
 21
31.958351377042813
 31
-2.0
  0
LINE
  5
19E
330
17
100
AcDbEntity
  8
0
100
AcDbLine
 10
-99.27343071571471
 20
14.666599968246505
 30
-2.0
 11
-99.27343071571471
 21
14.666599968246505
 31
0.0
  0
LINE
  5
19F
330
17
100
AcDbEntity
  8
0
100
AcDbLine
 10
-85.64487530540637
 20
9.05000000000001
 30
-2.0
 11
-99.27343071571472
 21
14.666599968246512
 31
-2.0
  0
LINE
  5
1A0
330
17
100
AcDbEntity
  8
0
100
AcDbLine
 10
-85.64487530540637
 20
9.05
 30
-2.0
 11
-85.64487530540637
 21
9.05
 31
0.0
  0
LINE
  5
1A1
330
17
100
AcDbEntity
  8
0
100
AcDbLine
 10
-85.64487530540639
 20
9.05
 30
-2.0
 11
-85.64487530540637
 21
-8.95
 31
-2.0
  0
LINE
  5
1A2
330
17
100
AcDbEntity
  8
0
100
AcDbLine
 10
-85.64487530540637
 20
-8.95
 30
-2.0
 11
-85.64487530540637
 21
-8.95
 31
0.0
  0
LINE
  5
1A3
330
17
100
AcDbEntity
  8
0
100
AcDbLine
 10
-85.6448753054064
 20
-8.95
 30
-2.0
 11
-85.4573040848346
 21
-11.886375761590564
 31
-2.0
  0
LINE
  5
1A4
330
17
100
AcDbEntity
  8
0
100
AcDbLine
 10
-85.45730408483459
 20
-11.886375761590564
 30
-2.0
 11
-85.45730408483459
 21
-11.886375761590564
 31
0.0
  0
ARC
  5
1A5
330
17
100
AcDbEntity
  8
0
100
AcDbCircle
 10
-84.20554736553595
 20
-15.315018425341734
 30
-2.0
 40
3.6499979999999996
100
AcDbArc
 50
281.5729198019507
 51
470.05653758263355
  0
LINE
  5
1A6
330
17
100
AcDbEntity
  8
0
100
AcDbLine
 10
-83.4733033320826
 20
-18.890812613417435
 30
-2.0
 11
-83.4733033320826
 21
-18.890812613417435
 31
0.0
  0
LINE
  5
1A7
330
17
100
AcDbEntity
  8
0
100
AcDbLine
 10
-83.02532414916669
 20
-19.958351377042817
 30
-2.0
 11
-83.47330333208261
 21
-18.890812613417438
 31
-2.0
  0
LINE
  5
1A8
330
17
100
AcDbEntity
  8
0
100
AcDbLine
 10
-83.02532414916669
 20
-19.958351377042813
 30
-2.0
 11
-83.02532414916669
 21
-19.958351377042813
 31
0.0
  0
LINE
  5
1A9
330
17
100
AcDbEntity
  8
0
100
AcDbLine
 10
-83.0253241491667
 20
-19.958351377042813
 30
-2.0
 11
-83.0253241491667
 21
-20.058351377042815
 31
-2.0
  0
LINE
  5
1AA
330
17
100
AcDbEntity
  8
0
100
AcDbLine
 10
-83.02532414916669
 20
-20.058351377042815
 30
-2.0
 11
-83.02532414916669
 21
-20.058351377042815
 31
0.0
  0
LINE
  5
1AB
330
17
100
AcDbEntity
  8
0
100
AcDbLine
 10
-87.04394667324459
 20
-34.022515241032494
 30
-2.0
 11
-83.02532414916669
 21
-20.058351377042815
 31
-2.0
  0
LINE
  5
1AC
330
17
100
AcDbEntity
  8
0
100
AcDbLine
 10
-87.04394667324459
 20
-34.022515241032494
 30
-2.0
 11
-87.04394667324459
 21
-34.022515241032494
 31
0.0
  0
LINE
  5
1AD
330
17
100
AcDbEntity
  8
0
100
AcDbLine
 10
-88.5071908252122
 20
-35.52383893513916
 30
-2.0
 11
-87.04394667324459
 21
-34.022515241032494
 31
-2.0
  0
LINE
  5
1AE
330
17
100
AcDbEntity
  8
0
100
AcDbLine
 10
-88.5071908252122
 20
-35.52383893513917
 30
-2.0
 11
-88.5071908252122
 21
-35.52383893513917
 31
0.0
  0
LINE
  5
1AF
330
17
100
AcDbEntity
  8
0
100
AcDbLine
 10
-89.73114345489554
 20
-35.6309209149292
 30
-2.0
 11
-88.5071908252122
 21
-35.523838935139175
 31
-2.0
  0
LINE
  5
1B0
330
17
100
AcDbEntity
  8
0
100
AcDbLine
 10
-89.73114345489554
 20
-35.6309209149292
 30
-2.0
 11
-89.73114345489554
 21
-35.6309209149292
 31
0.0
  0
LINE
  5
1B1
330
17
100
AcDbEntity
  8
0
100
AcDbLine
 10
-89.73114345489554
 20
-35.6309209149292
 30
-2.0
 11
-94.67301403507118
 21
-51.84450030882429
 31
-2.0
  0
LINE
  5
1B2
330
17
100
AcDbEntity
  8
0
100
AcDbLine
 10
-94.67301403507118
 20
-51.84450030882429
 30
-2.0
 11
-94.67301403507118
 21
-51.84450030882429
 31
0.0
  0
LINE
  5
1B3
330
17
100
AcDbEntity
  8
0
100
AcDbLine
 10
-94.67301403507119
 20
-51.84450030882429
 30
-2.0
 11
-96.45725304658772
 21
-54.5008486103238
 31
-2.0
  0
LINE
  5
1B4
330
17
100
AcDbEntity
  8
0
100
AcDbLine
 10
-96.45725304658772
 20
-54.5008486103238
 30
-2.0
 11
-96.45725304658772
 21
-54.5008486103238
 31
0.0
  0
LINE
  5
1B5
330
17
100
AcDbEntity
  8
0
100
AcDbLine
 10
-96.76876361348626
 20
-56.08192323310946
 30
-2.000000000000001
 11
-96.45725304658774
 21
-54.5008486103238
 31
-2.000000000000001
  0
LINE
  5
1B6
330
17
100
AcDbEntity
  8
0
100
AcDbLine
 10
-96.76876361348623
 20
-56.081923233109464
 30
-2.0
 11
-96.76876361348623
 21
-56.081923233109464
 31
0.0
  0
LINE
  5
1B7
330
17
100
AcDbEntity
  8
0
100
AcDbLine
 10
-96.76876361348621
 20
-56.08192323310947
 30
-2.0
 11
-97.06668684522072
 21
-57.50467324923178
 31
-2.0
  0
LINE
  5
1B8
330
17
100
AcDbEntity
  8
0
100
AcDbLine
 10
-97.06668684522073
 20
-57.50467324923178
 30
-2.0
 11
-97.06668684522073
 21
-57.50467324923178
 31
0.0
  0
LINE
  5
1B9
330
17
100
AcDbEntity
  8
0
100
AcDbLine
 10
-113.88709293340219
 20
-71.17900964858758
 30
-2.0000000000000004
 11
-97.06668684522072
 21
-57.50467324923181
 31
-2.0000000000000004
  0
LINE
  5
1BA
330
17
100
AcDbEntity
  8
0
100
AcDbLine
 10
-113.88709293339531
 20
-71.17900964859602
 30
-2.0
 11
-113.88709293339531
 21
-71.17900964859602
 31
0.0
  0
LINE
  5
1BB
330
17
100
AcDbEntity
  8
0
100
AcDbLine
 10
-113.88709293339532
 20
-71.17900964859604
 30
-2.0
 11
-100.86227984465879
 21
-87.57300533544556
 31
-2.0
  0
LINE
  5
1BC
330
17
100
AcDbEntity
  8
0
100
AcDbLine
 10
-100.86227984465876
 20
-87.57300533544553
 30
-2.0
 11
-100.86227984465876
 21
-87.57300533544553
 31
0.0
  0
LINE
  5
1BD
330
17
100
AcDbEntity
  8
0
100
AcDbLine
 10
-100.86227984465873
 20
-87.57300533544549
 30
-2.0
 11
-81.32781254660377
 21
-96.1533325494381
 31
-2.0
  0
LINE
  5
1BE
330
17
100
AcDbEntity
  8
0
100
AcDbLine
 10
-81.32781254660378
 20
-96.15333254943815
 30
-2.0
 11
-81.32781254660378
 21
-96.15333254943815
 31
0.0
  0
LINE
  5
1BF
330
17
100
AcDbEntity
  8
0
100
AcDbLine
 10
-70.01899952477031
 20
-102.3934205401073
 30
-2.0
 11
-81.32781254660378
 21
-96.15333254943815
 31
-2.0
  0
LINE
  5
1C0
330
17
100
AcDbEntity
  8
0
100
AcDbLine
 10
-70.01899952477031
 20
-102.3934205401073
 30
-2.0
 11
-70.01899952477031
 21
-102.3934205401073
 31
0.0
  0
LINE
  5
1C1
330
17
100
AcDbEntity
  8
0
100
AcDbLine
 10
-70.01899952476467
 20
-102.39342054011611
 30
-2.0
 11
-57.198076750559615
 21
-94.17200133733726
 31
-2.0
  0
LINE
  5
1C2
330
17
100
AcDbEntity
  8
0
100
AcDbLine
 10
-57.19807675055961
 20
-94.17200133733728
 30
-2.0
 11
-57.19807675055961
 21
-94.17200133733728
 31
0.0
  0
ARC
  5
1C3
330
17
100
AcDbEntity
  8
0
100
AcDbCircle
 10
-54.258501228597
 20
-92.00835137704281
 30
-2.0
 40
3.6499979999999996
100
AcDbArc
 50
356.83436902741624
 51
576.3546154239729
  0
ENDSEC
  0
SECTION
  2
OBJECTS
  0
DICTIONARY
  5
A
330
0
100
AcDbDictionary
281
1
  3
ACAD_COLOR
350
B
  3
ACAD_GROUP
350
C
  3
ACAD_LAYOUT
350
D
  3
ACAD_MATERIAL
350
E
  3
ACAD_MLEADERSTYLE
350
F
  3
ACAD_MLINESTYLE
350
10
  3
ACAD_PLOTSETTINGS
350
11
  3
ACAD_PLOTSTYLENAME
350
12
  3
ACAD_SCALELIST
350
14
  3
ACAD_TABLESTYLE
350
15
  3
ACAD_VISUALSTYLE
350
16
  3
EZDXF_META
350
2D
  0
DICTIONARY
  5
B
330
A
100
AcDbDictionary
281
1
  0
DICTIONARY
  5
C
330
A
100
AcDbDictionary
281
1
  0
DICTIONARY
  5
D
330
A
100
AcDbDictionary
281
1
  3
Model
350
1A
  3
Layout1
350
1E
  0
DICTIONARY
  5
E
330
A
100
AcDbDictionary
281
1
  3
ByBlock
350
1F
  3
ByLayer
350
20
  3
Global
350
21
  0
DICTIONARY
  5
F
330
A
100
AcDbDictionary
281
1
  3
Standard
350
2C
  0
DICTIONARY
  5
10
330
A
100
AcDbDictionary
281
1
  3
Standard
350
22
  0
DICTIONARY
  5
11
330
A
100
AcDbDictionary
281
1
  0
ACDBDICTIONARYWDFLT
  5
12
330
A
100
AcDbDictionary
281
1
  3
Normal
350
13
100
AcDbDictionaryWithDefault
340
13
  0
ACDBPLACEHOLDER
  5
13
330
12
  0
DICTIONARY
  5
14
330
A
100
AcDbDictionary
281
1
  0
DICTIONARY
  5
15
330
A
100
AcDbDictionary
281
1
  0
DICTIONARY
  5
16
330
A
100
AcDbDictionary
281
1
  0
LAYOUT
  5
1A
330
D
100
AcDbPlotSettings
  1

  2
Adobe PDF
  4
A3
  6

 40
7.5
 41
20.0
 42
7.5
 43
20.0
 44
420.0
 45
297.0
 46
0.0
 47
0.0
 48
0.0
 49
0.0
140
0.0
141
0.0
142
1.0
143
1.0
 70
1024
 72
1
 73
1
 74
5
  7

 75
16
 76
0
 77
2
 78
300
147
1.0
148
0.0
149
0.0
100
AcDbLayout
  1
Model
 70
1
 71
0
 10
0.0
 20
0.0
 11
420.0
 21
297.0
 12
0.0
 22
0.0
 32
0.0
 14
1e+20
 24
1e+20
 34
1e+20
 15
-1e+20
 25
-1e+20
 35
-1e+20
146
0.0
 13
0.0
 23
0.0
 33
0.0
 16
1.0
 26
0.0
 36
0.0
 17
0.0
 27
1.0
 37
0.0
 76
1
330
17
  0
LAYOUT
  5
1E
330
D
100
AcDbPlotSettings
  1

  2
Adobe PDF
  4
A3
  6

 40
7.5
 41
20.0
 42
7.5
 43
20.0
 44
420.0
 45
297.0
 46
0.0
 47
0.0
 48
0.0
 49
0.0
140
0.0
141
0.0
142
1.0
143
1.0
 70
0
 72
1
 73
1
 74
5
  7

 75
16
 76
0
 77
2
 78
300
147
1.0
148
0.0
149
0.0
100
AcDbLayout
  1
Layout1
 70
1
 71
1
 10
0.0
 20
0.0
 11
420.0
 21
297.0
 12
0.0
 22
0.0
 32
0.0
 14
1e+20
 24
1e+20
 34
1e+20
 15
-1e+20
 25
-1e+20
 35
-1e+20
146
0.0
 13
0.0
 23
0.0
 33
0.0
 16
1.0
 26
0.0
 36
0.0
 17
0.0
 27
1.0
 37
0.0
 76
1
330
1B
  0
MATERIAL
  5
1F
102
{ACAD_REACTORS
330
E
102
}
330
E
100
AcDbMaterial
  1
ByBlock
  2

 70
0
 40
1.0
 71
1
 41
1.0
 91
-1023410177
 42
1.0
 72
1
  3

 73
1
 74
1
 75
1
 44
0.5
 73
0
 45
1.0
 46
1.0
 77
1
  4

 78
1
 79
1
170
1
 48
1.0
171
1
  6

172
1
173
1
174
1
140
1.0
141
1.0
175
1
  7

176
1
177
1
178
1
143
1.0
179
1
  8

270
1
271
1
272
1
145
1.0
146
1.0
273
1
  9

274
1
275
1
276
1
 42
1.0
 72
1
  3

 73
1
 74
1
 75
1
 94
63
  0
MATERIAL
  5
20
102
{ACAD_REACTORS
330
E
102
}
330
E
100
AcDbMaterial
  1
ByLayer
  2

 70
0
 40
1.0
 71
1
 41
1.0
 91
-1023410177
 42
1.0
 72
1
  3

 73
1
 74
1
 75
1
 44
0.5
 73
0
 45
1.0
 46
1.0
 77
1
  4

 78
1
 79
1
170
1
 48
1.0
171
1
  6

172
1
173
1
174
1
140
1.0
141
1.0
175
1
  7

176
1
177
1
178
1
143
1.0
179
1
  8

270
1
271
1
272
1
145
1.0
146
1.0
273
1
  9

274
1
275
1
276
1
 42
1.0
 72
1
  3

 73
1
 74
1
 75
1
 94
63
  0
MATERIAL
  5
21
102
{ACAD_REACTORS
330
E
102
}
330
E
100
AcDbMaterial
  1
Global
  2

 70
0
 40
1.0
 71
1
 41
1.0
 91
-1023410177
 42
1.0
 72
1
  3

 73
1
 74
1
 75
1
 44
0.5
 73
0
 45
1.0
 46
1.0
 77
1
  4

 78
1
 79
1
170
1
 48
1.0
171
1
  6

172
1
173
1
174
1
140
1.0
141
1.0
175
1
  7

176
1
177
1
178
1
143
1.0
179
1
  8

270
1
271
1
272
1
145
1.0
146
1.0
273
1
  9

274
1
275
1
276
1
 42
1.0
 72
1
  3

 73
1
 74
1
 75
1
 94
63
  0
MLINESTYLE
  5
22
102
{ACAD_REACTORS
330
10
102
}
330
10
100
AcDbMlineStyle
  2
Standard
 70
0
  3

 62
256
 51
90.0
 52
90.0
 71
2
 49
0.5
 62
256
  6
BYLAYER
 49
-0.5
 62
256
  6
BYLAYER
  0
MLEADERSTYLE
  5
2C
102
{ACAD_REACTORS
330
F
102
}
330
F
100
AcDbMLeaderStyle
179
2
170
2
171
1
172
0
 90
2
 40
0.0
 41
0.0
173
1
 91
-1056964608
 92
-2
290
1
 42
2.0
291
1
 43
8.0
  3
Standard
 44
4.0
300

342
29
174
1
175
1
176
0
178
1
 93
-1056964608
 45
4.0
292
0
297
0
 46
4.0
 94
-1056964608
 47
1.0
 49
1.0
140
1.0
294
1
141
0.0
177
0
142
1.0
295
0
296
0
143
3.75
271
0
272
9
273
9
  0
DICTIONARY
  5
2D
330
A
100
AcDbDictionary
280
1
281
1
  3
CREATED_BY_EZDXF
350
2E
  3
WRITTEN_BY_EZDXF
350
1C6
  0
DICTIONARYVAR
  5
2E
330
2D
100
DictionaryVariables
280
0
  1
0.17.2 @ 2022-09-22T20:09:28.804721+00:00
  0
DICTIONARYVAR
  5
1C6
330
2D
100
DictionaryVariables
280
0
  1
0.17.2 @ 2022-09-22T20:09:28.835370+00:00
  0
ENDSEC
  0
EOF
