  0
SECTION
  2
HEADER
  9
$ACADVER
  1
AC1027
  9
$ACADMAINTVER
 70
105
  9
$DWGCODEPAGE
  3
ANSI_1252
  9
$LASTSAVEDBY
  1
ezdxf
  9
$REQUIREDVERSIONS
160
0
  9
$INSBASE
 10
0.0
 20
0.0
 30
0.0
  9
$EXTMIN
 10
1e+20
 20
1e+20
 30
1e+20
  9
$EXTMAX
 10
-1e+20
 20
-1e+20
 30
-1e+20
  9
$LIMMIN
 10
0.0
 20
0.0
  9
$LIMMAX
 10
420.0
 20
297.0
  9
$ORTHOMODE
 70
0
  9
$REGENMODE
 70
1
  9
$FILLMODE
 70
1
  9
$QTEXTMODE
 70
0
  9
$MIRRTEXT
 70
1
  9
$LTSCALE
 40
1.0
  9
$ATTMODE
 70
1
  9
$TEXTSIZE
 40
2.5
  9
$TRACEWID
 40
1.0
  9
$TEXTSTYLE
  7
Standard
  9
$CLAYER
  8
0
  9
$CELTYPE
  6
ByLayer
  9
$CECOLOR
 62
256
  9
$CELTSCALE
 40
1.0
  9
$DISPSILH
 70
0
  9
$DIMSCALE
 40
1.0
  9
$DIMASZ
 40
2.5
  9
$DIMEXO
 40
0.625
  9
$DIMDLI
 40
3.75
  9
$DIMRND
 40
0.0
  9
$DIMDLE
 40
0.0
  9
$DIMEXE
 40
1.25
  9
$DIMTP
 40
0.0
  9
$DIMTM
 40
0.0
  9
$DIMTXT
 40
2.5
  9
$DIMCEN
 40
2.5
  9
$DIMTSZ
 40
0.0
  9
$DIMTOL
 70
0
  9
$DIMLIM
 70
0
  9
$DIMTIH
 70
0
  9
$DIMTOH
 70
0
  9
$DIMSE1
 70
0
  9
$DIMSE2
 70
0
  9
$DIMTAD
 70
1
  9
$DIMZIN
 70
8
  9
$DIMBLK
  1

  9
$DIMASO
 70
1
  9
$DIMSHO
 70
1
  9
$DIMPOST
  1

  9
$DIMAPOST
  1

  9
$DIMALT
 70
0
  9
$DIMALTD
 70
3
  9
$DIMALTF
 40
0.03937007874
  9
$DIMLFAC
 40
1.0
  9
$DIMTOFL
 70
1
  9
$DIMTVP
 40
0.0
  9
$DIMTIX
 70
0
  9
$DIMSOXD
 70
0
  9
$DIMSAH
 70
0
  9
$DIMBLK1
  1

  9
$DIMBLK2
  1

  9
$DIMSTYLE
  2
ISO-25
  9
$DIMCLRD
 70
0
  9
$DIMCLRE
 70
0
  9
$DIMCLRT
 70
0
  9
$DIMTFAC
 40
1.0
  9
$DIMGAP
 40
0.625
  9
$DIMJUST
 70
0
  9
$DIMSD1
 70
0
  9
$DIMSD2
 70
0
  9
$DIMTOLJ
 70
0
  9
$DIMTZIN
 70
8
  9
$DIMALTZ
 70
0
  9
$DIMALTTZ
 70
0
  9
$DIMUPT
 70
0
  9
$DIMDEC
 70
2
  9
$DIMTDEC
 70
2
  9
$DIMALTU
 70
2
  9
$DIMALTTD
 70
3
  9
$DIMTXSTY
  7
Standard
  9
$DIMAUNIT
 70
0
  9
$DIMADEC
 70
0
  9
$DIMALTRND
 40
0.0
  9
$DIMAZIN
 70
0
  9
$DIMDSEP
 70
44
  9
$DIMATFIT
 70
3
  9
$DIMFRAC
 70
0
  9
$DIMLDRBLK
  1

  9
$DIMLUNIT
 70
2
  9
$DIMLWD
 70
-2
  9
$DIMLWE
 70
-2
  9
$DIMTMOVE
 70
0
  9
$DIMFXL
 40
1.0
  9
$DIMFXLON
 70
0
  9
$DIMJOGANG
 40
0.785398163397
  9
$DIMTFILL
 70
0
  9
$DIMTFILLCLR
 70
0
  9
$DIMARCSYM
 70
0
  9
$DIMLTYPE
  6

  9
$DIMLTEX1
  6

  9
$DIMLTEX2
  6

  9
$DIMTXTDIRECTION
 70
0
  9
$LUNITS
 70
2
  9
$LUPREC
 70
4
  9
$SKETCHINC
 40
1.0
  9
$FILLETRAD
 40
10.0
  9
$AUNITS
 70
0
  9
$AUPREC
 70
2
  9
$MENU
  1
.
  9
$ELEVATION
 40
0.0
  9
$PELEVATION
 40
0.0
  9
$THICKNESS
 40
0.0
  9
$LIMCHECK
 70
0
  9
$CHAMFERA
 40
0.0
  9
$CHAMFERB
 40
0.0
  9
$CHAMFERC
 40
0.0
  9
$CHAMFERD
 40
0.0
  9
$SKPOLY
 70
0
  9
$TDCREATE
 40
2459451.80755787
  9
$TDUCREATE
 40
2458532.153996898
  9
$TDUPDATE
 40
2459451.80755787
  9
$TDUUPDATE
 40
2458532.1544311
  9
$TDINDWG
 40
0.0
  9
$TDUSRTIMER
 40
0.0
  9
$USRTIMER
 70
1
  9
$ANGBASE
 50
0.0
  9
$ANGDIR
 70
0
  9
$PDMODE
 70
0
  9
$PDSIZE
 40
0.0
  9
$PLINEWID
 40
0.0
  9
$SPLFRAME
 70
0
  9
$SPLINETYPE
 70
6
  9
$SPLINESEGS
 70
8
  9
$HANDSEED
  5
1EE
  9
$SURFTAB1
 70
6
  9
$SURFTAB2
 70
6
  9
$SURFTYPE
 70
6
  9
$SURFU
 70
6
  9
$SURFV
 70
6
  9
$UCSBASE
  2

  9
$UCSNAME
  2

  9
$UCSORG
 10
0.0
 20
0.0
 30
0.0
  9
$UCSXDIR
 10
1.0
 20
0.0
 30
0.0
  9
$UCSYDIR
 10
0.0
 20
1.0
 30
0.0
  9
$UCSORTHOREF
  2

  9
$UCSORTHOVIEW
 70
0
  9
$UCSORGTOP
 10
0.0
 20
0.0
 30
0.0
  9
$UCSORGBOTTOM
 10
0.0
 20
0.0
 30
0.0
  9
$UCSORGLEFT
 10
0.0
 20
0.0
 30
0.0
  9
$UCSORGRIGHT
 10
0.0
 20
0.0
 30
0.0
  9
$UCSORGFRONT
 10
0.0
 20
0.0
 30
0.0
  9
$UCSORGBACK
 10
0.0
 20
0.0
 30
0.0
  9
$PUCSBASE
  2

  9
$PUCSNAME
  2

  9
$PUCSORG
 10
0.0
 20
0.0
 30
0.0
  9
$PUCSXDIR
 10
1.0
 20
0.0
 30
0.0
  9
$PUCSYDIR
 10
0.0
 20
1.0
 30
0.0
  9
$PUCSORTHOREF
  2

  9
$PUCSORTHOVIEW
 70
0
  9
$PUCSORGTOP
 10
0.0
 20
0.0
 30
0.0
  9
$PUCSORGBOTTOM
 10
0.0
 20
0.0
 30
0.0
  9
$PUCSORGLEFT
 10
0.0
 20
0.0
 30
0.0
  9
$PUCSORGRIGHT
 10
0.0
 20
0.0
 30
0.0
  9
$PUCSORGFRONT
 10
0.0
 20
0.0
 30
0.0
  9
$PUCSORGBACK
 10
0.0
 20
0.0
 30
0.0
  9
$USERI1
 70
0
  9
$USERI2
 70
0
  9
$USERI3
 70
0
  9
$USERI4
 70
0
  9
$USERI5
 70
0
  9
$USERR1
 40
0.0
  9
$USERR2
 40
0.0
  9
$USERR3
 40
0.0
  9
$USERR4
 40
0.0
  9
$USERR5
 40
0.0
  9
$WORLDVIEW
 70
1
  9
$SHADEDGE
 70
3
  9
$SHADEDIF
 70
70
  9
$TILEMODE
 70
1
  9
$MAXACTVP
 70
64
  9
$PINSBASE
 10
0.0
 20
0.0
 30
0.0
  9
$PLIMCHECK
 70
0
  9
$PEXTMIN
 10
1e+20
 20
1e+20
 30
1e+20
  9
$PEXTMAX
 10
-1e+20
 20
-1e+20
 30
-1e+20
  9
$PLIMMIN
 10
0.0
 20
0.0
  9
$PLIMMAX
 10
420.0
 20
297.0
  9
$UNITMODE
 70
0
  9
$VISRETAIN
 70
1
  9
$PLINEGEN
 70
0
  9
$PSLTSCALE
 70
1
  9
$TREEDEPTH
 70
3020
  9
$CMLSTYLE
  2
Standard
  9
$CMLJUST
 70
0
  9
$CMLSCALE
 40
20.0
  9
$PROXYGRAPHICS
 70
1
  9
$MEASUREMENT
 70
1
  9
$CELWEIGHT
370
-1
  9
$ENDCAPS
280
0
  9
$JOINSTYLE
280
0
  9
$LWDISPLAY
290
0
  9
$INSUNITS
 70
6
  9
$HYPERLINKBASE
  1

  9
$STYLESHEET
  1

  9
$XEDIT
290
1
  9
$CEPSNTYPE
380
0
  9
$PSTYLEMODE
290
1
  9
$FINGERPRINTGUID
  2
{5BD652E2-97A7-44FB-ACD2-D9310E7C1023}
  9
$VERSIONGUID
  2
{D96C54E6-AA2C-4593-98E8-C116CD92A36A}
  9
$EXTNAMES
290
1
  9
$PSVPSCALE
 40
0.0
  9
$OLESTARTUP
290
0
  9
$SORTENTS
280
127
  9
$INDEXCTL
280
0
  9
$HIDETEXT
280
1
  9
$XCLIPFRAME
280
0
  9
$HALOGAP
280
0
  9
$OBSCOLOR
 70
257
  9
$OBSLTYPE
280
0
  9
$INTERSECTIONDISPLAY
280
0
  9
$INTERSECTIONCOLOR
 70
257
  9
$DIMASSOC
280
2
  9
$PROJECTNAME
  1

  9
$CAMERADISPLAY
290
0
  9
$LENSLENGTH
 40
50.0
  9
$CAMERAHEIGHT
 40
0.0
  9
$STEPSPERSEC
 40
24.0
  9
$STEPSIZE
 40
100.0
  9
$3DDWFPREC
 40
2.0
  9
$PSOLWIDTH
 40
0.005
  9
$PSOLHEIGHT
 40
0.08
  9
$LOFTANG1
 40
1.570796326795
  9
$LOFTANG2
 40
1.570796326795
  9
$LOFTMAG1
 40
0.0
  9
$LOFTMAG2
 40
0.0
  9
$LOFTPARAM
 70
7
  9
$LOFTNORMALS
280
1
  9
$LATITUDE
 40
37.795
  9
$LONGITUDE
 40
-122.394
  9
$NORTHDIRECTION
 40
0.0
  9
$TIMEZONE
 70
-8000
  9
$LIGHTGLYPHDISPLAY
280
1
  9
$TILEMODELIGHTSYNCH
280
1
  9
$CMATERIAL
347
20
  9
$SOLIDHIST
280
0
  9
$SHOWHIST
280
1
  9
$DWFFRAME
280
2
  9
$DGNFRAME
280
2
  9
$REALWORLDSCALE
290
1
  9
$INTERFERECOLOR
 62
256
  9
$CSHADOW
280
0
  9
$SHADOWPLANELOCATION
 40
0.0
  0
ENDSEC
  0
SECTION
  2
CLASSES
  0
CLASS
  1
ACDBDICTIONARYWDFLT
  2
AcDbDictionaryWithDefault
  3
ObjectDBX Classes
 90
0
 91
0
280
0
281
0
  0
CLASS
  1
SUN
  2
AcDbSun
  3
SCENEOE
 90
1153
 91
0
280
0
281
0
  0
CLASS
  1
VISUALSTYLE
  2
AcDbVisualStyle
  3
ObjectDBX Classes
 90
4095
 91
0
280
0
281
0
  0
CLASS
  1
MATERIAL
  2
AcDbMaterial
  3
ObjectDBX Classes
 90
1153
 91
0
280
0
281
0
  0
CLASS
  1
SCALE
  2
AcDbScale
  3
ObjectDBX Classes
 90
1153
 91
0
280
0
281
0
  0
CLASS
  1
TABLESTYLE
  2
AcDbTableStyle
  3
ObjectDBX Classes
 90
4095
 91
0
280
0
281
0
  0
CLASS
  1
MLEADERSTYLE
  2
AcDbMLeaderStyle
  3
ACDB_MLEADERSTYLE_CLASS
 90
4095
 91
0
280
0
281
0
  0
CLASS
  1
DICTIONARYVAR
  2
AcDbDictionaryVar
  3
ObjectDBX Classes
 90
0
 91
0
280
0
281
0
  0
CLASS
  1
CELLSTYLEMAP
  2
AcDbCellStyleMap
  3
ObjectDBX Classes
 90
1152
 91
0
280
0
281
0
  0
CLASS
  1
MENTALRAYRENDERSETTINGS
  2
AcDbMentalRayRenderSettings
  3
SCENEOE
 90
1024
 91
0
280
0
281
0
  0
CLASS
  1
ACDBDETAILVIEWSTYLE
  2
AcDbDetailViewStyle
  3
ObjectDBX Classes
 90
1025
 91
0
280
0
281
0
  0
CLASS
  1
ACDBSECTIONVIEWSTYLE
  2
AcDbSectionViewStyle
  3
ObjectDBX Classes
 90
1025
 91
0
280
0
281
0
  0
CLASS
  1
RASTERVARIABLES
  2
AcDbRasterVariables
  3
ISM
 90
0
 91
0
280
0
281
0
  0
CLASS
  1
ACDBPLACEHOLDER
  2
AcDbPlaceHolder
  3
ObjectDBX Classes
 90
0
 91
0
280
0
281
0
  0
CLASS
  1
LAYOUT
  2
AcDbLayout
  3
ObjectDBX Classes
 90
0
 91
0
280
0
281
0
  0
ENDSEC
  0
SECTION
  2
TABLES
  0
TABLE
  2
VPORT
  5
8
330
0
100
AcDbSymbolTable
 70
1
  0
VPORT
  5
23
330
8
100
AcDbSymbolTableRecord
100
AcDbViewportTableRecord
  2
*Active
 70
0
 10
0.0
 20
0.0
 11
1.0
 21
1.0
 12
344.2
 22
148.5
 13
0.0
 23
0.0
 14
0.5
 24
0.5
 15
0.5
 25
0.5
 16
0.0
 26
0.0
 36
1.0
 17
0.0
 27
0.0
 37
0.0
 40
297.0
 41
1.34
 42
50.0
 43
0.0
 44
0.0
 50
0.0
 51
0.0
 71
0
 72
1000
 73
1
 74
3
 75
0
 76
0
 77
0
 78
0
281
0
 65
0
146
0.0
  0
ENDTAB
  0
TABLE
  2
LTYPE
  5
2
330
0
100
AcDbSymbolTable
 70
3
  0
LTYPE
  5
24
330
2
100
AcDbSymbolTableRecord
100
AcDbLinetypeTableRecord
  2
ByBlock
 70
0
  3

 72
65
 73
0
 40
0.0
  0
LTYPE
  5
25
330
2
100
AcDbSymbolTableRecord
100
AcDbLinetypeTableRecord
  2
ByLayer
 70
0
  3

 72
65
 73
0
 40
0.0
  0
LTYPE
  5
26
330
2
100
AcDbSymbolTableRecord
100
AcDbLinetypeTableRecord
  2
Continuous
 70
0
  3

 72
65
 73
0
 40
0.0
  0
ENDTAB
  0
TABLE
  2
LAYER
  5
1
330
0
100
AcDbSymbolTable
 70
2
  0
LAYER
  5
27
330
1
100
AcDbSymbolTableRecord
100
AcDbLayerTableRecord
  2
0
 70
0
 62
7
  6
Continuous
370
-3
390
13
347
21
  0
LAYER
  5
28
330
1
100
AcDbSymbolTableRecord
100
AcDbLayerTableRecord
  2
Defpoints
 70
0
 62
7
  6
Continuous
290
0
370
-3
390
13
347
21
  0
ENDTAB
  0
TABLE
  2
STYLE
  5
5
330
0
100
AcDbSymbolTable
 70
1
  0
STYLE
  5
29
330
5
100
AcDbSymbolTableRecord
100
AcDbTextStyleTableRecord
  2
Standard
 70
0
 40
0.0
 41
1.0
 50
0.0
 71
0
 42
2.5
  3
txt
  4

  0
ENDTAB
  0
TABLE
  2
VIEW
  5
7
330
0
100
AcDbSymbolTable
 70
0
  0
ENDTAB
  0
TABLE
  2
UCS
  5
6
330
0
100
AcDbSymbolTable
 70
0
  0
ENDTAB
  0
TABLE
  2
APPID
  5
3
330
0
100
AcDbSymbolTable
 70
3
  0
APPID
  5
2A
330
3
100
AcDbSymbolTableRecord
100
AcDbRegAppTableRecord
  2
ACAD
 70
0
  0
APPID
  5
1EB
330
3
100
AcDbSymbolTableRecord
100
AcDbRegAppTableRecord
  2
HATCHBACKGROUNDCOLOR
 70
0
  0
APPID
  5
1EC
330
3
100
AcDbSymbolTableRecord
100
AcDbRegAppTableRecord
  2
EZDXF
 70
0
  0
ENDTAB
  0
TABLE
  2
DIMSTYLE
  5
4
330
0
100
AcDbSymbolTable
 70
1
100
AcDbDimStyleTable
  0
DIMSTYLE
105
2B
330
4
100
AcDbSymbolTableRecord
100
AcDbDimStyleTableRecord
  2
Standard
 70
0
 40
1.0
 41
2.5
 42
0.625
 43
3.75
 44
1.25
 45
0.0
 46
0.0
 47
0.0
 48
0.0
 49
2.5
140
2.5
141
2.5
142
0.0
143
0.03937007874
144
1.0
145
0.0
146
1.0
147
0.625
148
0.0
 69
0
 70
0
 71
0
 72
0
 73
0
 74
0
 75
0
 76
0
 77
1
 78
8
 79
0
170
0
171
3
172
1
173
0
174
0
175
0
176
0
177
0
178
0
179
0
271
0
272
2
273
2
274
3
275
0
276
0
277
2
278
44
279
0
280
0
281
0
282
0
283
0
284
8
285
0
286
0
288
0
289
3
290
0
371
-2
372
-2
  0
ENDTAB
  0
TABLE
  2
BLOCK_RECORD
  5
9
330
0
100
AcDbSymbolTable
 70
2
  0
BLOCK_RECORD
  5
17
330
9
100
AcDbSymbolTableRecord
100
AcDbBlockTableRecord
  2
*Model_Space
340
1A
 70
0
280
1
281
0
  0
BLOCK_RECORD
  5
1B
330
9
100
AcDbSymbolTableRecord
100
AcDbBlockTableRecord
  2
*Paper_Space
340
1E
 70
0
280
1
281
0
  0
ENDTAB
  0
ENDSEC
  0
SECTION
  2
BLOCKS
  0
BLOCK
  5
18
330
17
100
AcDbEntity
  8
0
100
AcDbBlockBegin
  2
*Model_Space
 70
0
 10
0.0
 20
0.0
 30
0.0
  3
*Model_Space
  1

  0
ENDBLK
  5
19
330
17
100
AcDbEntity
  8
0
100
AcDbBlockEnd
  0
BLOCK
  5
1C
330
1B
100
AcDbEntity
  8
0
100
AcDbBlockBegin
  2
*Paper_Space
 70
0
 10
0.0
 20
0.0
 30
0.0
  3
*Paper_Space
  1

  0
ENDBLK
  5
1D
330
1B
100
AcDbEntity
  8
0
100
AcDbBlockEnd
  0
ENDSEC
  0
SECTION
  2
ENTITIES
  0
LINE
  5
2F
330
17
100
AcDbEntity
  8
0
100
AcDbLine
 10
95.99388843920076
 20
-64.05996925586595
 30
-5.0
 11
89.69573675335738
 21
-55.9987027072886
 31
-5.0
  0
LINE
  5
30
330
17
100
AcDbEntity
  8
0
100
AcDbLine
 10
99.07736750616111
 20
-70.18938861064777
 30
-5.0
 11
95.99388843920046
 21
-64.05996925586616
 31
-5.0
  0
LINE
  5
31
330
17
100
AcDbEntity
  8
0
100
AcDbLine
 10
99.0773675061611
 20
-70.18938861064777
 30
-5.0
 11
98.7653005196299
 21
-72.76309685638253
 31
-5.0
  0
LINE
  5
32
330
17
100
AcDbEntity
  8
0
100
AcDbLine
 10
98.7653005196299
 20
-72.76309685638253
 30
-5.0
 11
97.34939207762741
 21
-81.92016336341057
 31
-5.0
  0
LINE
  5
33
330
17
100
AcDbEntity
  8
0
100
AcDbLine
 10
97.3493920776274
 20
-81.92016336341055
 30
-5.0
 11
83.33715376698748
 21
-93.42763571163862
 31
-5.0
  0
LINE
  5
34
330
17
100
AcDbEntity
  8
0
100
AcDbLine
 10
83.33715376698748
 20
-93.42763571163862
 30
-5.0
 11
80.88336203158303
 21
-94.53397080901446
 31
-5.0
  0
LINE
  5
35
330
17
100
AcDbEntity
  8
0
100
AcDbLine
 10
78.71344578547294
 20
-94.4966029871356
 30
-5.0
 11
80.88336203158305
 21
-94.53397080901449
 31
-5.0
  0
LINE
  5
36
330
17
100
AcDbEntity
  8
0
100
AcDbLine
 10
78.71344578547297
 20
-94.4966029871356
 30
-5.0
 11
64.82881600484944
 21
-106.77311014323682
 31
-5.0
  0
LINE
  5
37
330
17
100
AcDbEntity
  8
0
100
AcDbLine
 10
52.22321119314188
 20
-107.30454188555703
 30
-5.0
 11
64.82881600484944
 21
-106.77311014323685
 31
-5.0
  0
LINE
  5
38
330
17
100
AcDbEntity
  8
0
100
AcDbLine
 10
52.22321119314188
 20
-107.304541885557
 30
-5.0
 11
50.583150744044126
 21
-107.40938873401113
 31
-5.0
  0
LINE
  5
39
330
17
100
AcDbEntity
  8
0
100
AcDbLine
 10
49.89476716897413
 20
-107.07015780154642
 30
-5.0
 11
50.58315074404413
 21
-107.40938873401115
 31
-5.0
  0
LINE
  5
3A
330
17
100
AcDbEntity
  8
0
100
AcDbLine
 10
49.89476716897413
 20
-107.0701578015464
 30
-5.000000000000001
 11
46.48796400963657
 21
-103.6486168681212
 31
-5.000000000000001
  0
LINE
  5
3B
330
17
100
AcDbEntity
  8
0
100
AcDbLine
 10
46.48796400963785
 20
-103.64861686812029
 30
-5.0
 11
39.53770838519887
 21
-94.08241068399204
 31
-5.0
  0
LINE
  5
3C
330
17
100
AcDbEntity
  8
0
100
AcDbLine
 10
41.08289995542132
 20
-89.73841634695664
 30
-5.0
 11
39.53770838519885
 21
-94.08241068399202
 31
-5.0
  0
LINE
  5
3D
330
17
100
AcDbEntity
  8
0
100
AcDbLine
 10
41.082899955421325
 20
-89.73841634695665
 30
-5.0
 11
31.09768051029677
 21
-78.6487066678855
 31
-5.0
  0
LINE
  5
3E
330
17
100
AcDbEntity
  8
0
100
AcDbLine
 10
31.09768051029677
 20
-78.6487066678855
 30
-5.0
 11
23.733483055230096
 21
-66.37893283825969
 31
-5.0
  0
LINE
  5
3F
330
17
100
AcDbEntity
  8
0
100
AcDbLine
 10
23.733483055230117
 20
-66.37893283825971
 30
-5.0
 11
6.186322526823736
 21
-69.17195499541648
 31
-5.0
  0
LINE
  5
40
330
17
100
AcDbEntity
  8
0
100
AcDbLine
 10
-15.8850839116618
 20
-69.17195499541646
 30
-5.0
 11
6.186322526823737
 21
-69.17195499541646
 31
-5.0
  0
LINE
  5
41
330
17
100
AcDbEntity
  8
0
100
AcDbLine
 10
-23.62143590446404
 20
-51.92586062187464
 30
-5.0
 11
-15.885083911661802
 21
-69.17195499541647
 31
-5.0
  0
LINE
  5
42
330
17
100
AcDbEntity
  8
0
100
AcDbLine
 10
-23.621435904464036
 20
-51.92586062187464
 30
-5.0
 11
-55.337585986527536
 21
-51.92586062187464
 31
-5.0
  0
LINE
  5
43
330
17
100
AcDbEntity
  8
0
100
AcDbLine
 10
-55.337585986527536
 20
-51.92586062187465
 30
-5.0
 11
-59.43086880290556
 21
-47.4265648898132
 31
-5.0
  0
LINE
  5
44
330
17
100
AcDbEntity
  8
0
100
AcDbLine
 10
-64.73666583044465
 20
-41.254587986311996
 30
-5.0
 11
-59.43086880290556
 21
-47.4265648898132
 31
-5.0
  0
LINE
  5
45
330
17
100
AcDbEntity
  8
0
100
AcDbLine
 10
-64.90132529782416
 20
-40.7483635188703
 30
-5.0
 11
-64.73666583044466
 21
-41.25458798631199
 31
-5.0
  0
LINE
  5
46
330
17
100
AcDbEntity
  8
0
100
AcDbLine
 10
-64.73666583044466
 20
-33.69755378290613
 30
-5.0
 11
-64.90132529782414
 21
-40.74836351887029
 31
-5.0
  0
LINE
  5
47
330
17
100
AcDbEntity
  8
0
100
AcDbLine
 10
-63.74097095143315
 20
-22.642870574991804
 30
-5.0
 11
-64.73666583044465
 21
-33.69755378290613
 31
-5.0
  0
LINE
  5
48
330
17
100
AcDbEntity
  8
0
100
AcDbLine
 10
-63.74097095143314
 20
-22.642870574991804
 30
-5.0
 11
-63.388881793409766
 21
-14.95
 31
-5.0
  0
LINE
  5
49
330
17
100
AcDbEntity
  8
0
100
AcDbLine
 10
-63.38888179340978
 20
2.9499999999999993
 30
-5.0
 11
-63.38888179340978
 21
-14.95
 31
-5.0
  0
LINE
  5
4A
330
17
100
AcDbEntity
  8
0
100
AcDbLine
 10
-63.38888179340979
 20
2.9499999999999984
 30
-5.0
 11
-63.74097095143315
 21
10.642870574991804
 31
-5.0
  0
LINE
  5
4B
330
17
100
AcDbEntity
  8
0
100
AcDbLine
 10
-63.74097095143317
 20
10.642870574991802
 30
-5.0
 11
-64.73666583044468
 21
21.697553782906112
 31
-5.0
  0
LINE
  5
4C
330
17
100
AcDbEntity
  8
0
100
AcDbLine
 10
-64.73666583044522
 20
21.697553782906102
 30
-5.0
 11
-64.89906954497496
 21
28.65177093051806
 31
-5.0
  0
LINE
  5
4D
330
17
100
AcDbEntity
  8
0
100
AcDbLine
 10
-65.1820458262153
 20
36.4902262173376
 30
-5.0
 11
-64.89906954497496
 21
28.65177093051806
 31
-5.0
  0
LINE
  5
4E
330
17
100
AcDbEntity
  8
0
100
AcDbLine
 10
-65.18204582621567
 20
36.49022621733758
 30
-5.0
 11
-65.96208846907237
 21
51.99208490334898
 31
-5.0
  0
LINE
  5
4F
330
17
100
AcDbEntity
  8
0
100
AcDbLine
 10
-66.41223876200897
 20
58.72312098462393
 30
-5.0
 11
-65.96208846907236
 21
51.99208490334898
 31
-5.0
  0
LINE
  5
50
330
17
100
AcDbEntity
  8
0
100
AcDbLine
 10
-66.41223876200945
 20
58.723120984623876
 30
-5.000000000000001
 11
-67.52154859237129
 21
71.45105148964998
 31
-5.000000000000001
  0
LINE
  5
51
330
17
100
AcDbEntity
  8
0
100
AcDbLine
 10
-67.27503496966241
 20
74.27947673802421
 30
-5.0
 11
-67.52154859237129
 21
71.45105148964998
 31
-5.0
  0
LINE
  5
52
330
17
100
AcDbEntity
  8
0
100
AcDbLine
 10
-58.45828267780448
 20
81.70410286595609
 30
-5.0
 11
-67.27503496966241
 21
74.27947673802421
 31
-5.0
  0
LINE
  5
53
330
17
100
AcDbEntity
  8
0
100
AcDbLine
 10
-58.45828267780448
 20
81.70410286595609
 30
-5.0
 11
-20.2768902747491
 21
81.70410286595609
 31
-5.0
  0
LINE
  5
54
330
17
100
AcDbEntity
  8
0
100
AcDbLine
 10
-20.276890274749103
 20
81.70410286595609
 30
-5.0
 11
-16.64234903305479
 21
87.70410286595609
 31
-5.0
  0
LINE
  5
55
330
17
100
AcDbEntity
  8
0
100
AcDbLine
 10
-9.011629897046413
 20
87.70410286595612
 30
-5.0
 11
-16.64234903305478
 21
87.70410286595612
 31
-5.0
  0
ARC
  5
56
330
17
100
AcDbEntity
  8
0
100
AcDbCircle
 10
-6.592180649537833
 20
84.2039209450697
 30
-5.0
 40
4.254998018867925
100
AcDbArc
 50
55.346403742881435
 51
124.6535962571185
  0
LINE
  5
57
330
17
100
AcDbEntity
  8
0
100
AcDbLine
 10
0.7443168703473848
 20
87.70410286595612
 30
-5.0
 11
-4.172731402029249
 21
87.70410286595612
 31
-5.0
  0
LINE
  5
58
330
17
100
AcDbEntity
  8
0
100
AcDbLine
 10
0.7443168703473937
 20
87.70410286595609
 30
-5.0
 11
4.218049232378938
 21
90.52410286595608
 31
-5.0
  0
LINE
  5
59
330
17
100
AcDbEntity
  8
0
100
AcDbLine
 10
4.218049232378927
 20
90.52410286595608
 30
-5.0
 11
21.22648749384969
 21
90.52410286595608
 31
-5.0
  0
LINE
  5
5A
330
17
100
AcDbEntity
  8
0
100
AcDbLine
 10
22.48785255769524
 20
87.70410286595609
 30
-5.0
 11
21.226487493849692
 21
90.52410286595608
 31
-5.0
  0
LINE
  5
5B
330
17
100
AcDbEntity
  8
0
100
AcDbLine
 10
57.08638175503829
 20
87.7041028659561
 30
-5.0
 11
22.487852557695238
 21
87.7041028659561
 31
-5.0
  0
LINE
  5
5C
330
17
100
AcDbEntity
  8
0
100
AcDbLine
 10
57.0863817550383
 20
87.70410286595612
 30
-5.000000000000002
 11
67.90867178793329
 21
80.96534363740984
 31
-5.000000000000002
  0
LINE
  5
5D
330
17
100
AcDbEntity
  8
0
100
AcDbLine
 10
77.40867178793327
 20
70.46534363740982
 30
-5.0
 11
67.90867178793327
 21
80.96534363740982
 31
-5.0
  0
LINE
  5
5E
330
17
100
AcDbEntity
  8
0
100
AcDbLine
 10
77.40867178793336
 20
70.46534363740986
 30
-5.0
 11
79.17902064920143
 21
66.9246385048205
 31
-5.0
  0
ARC
  5
5F
330
17
100
AcDbEntity
  8
0
100
AcDbCircle
 10
76.04064775487771
 20
64.05137838489678
 30
-5.0
 40
4.254998018867925
100
AcDbArc
 50
10.655111901884936
 51
42.47489452449787
  0
LINE
  5
60
330
17
100
AcDbEntity
  8
0
100
AcDbLine
 10
80.22228090461257
 20
64.83811362728038
 30
-5.0
 11
83.77262372182223
 21
57.73741313238377
 31
-5.0
  0
LINE
  5
61
330
17
100
AcDbEntity
  8
0
100
AcDbLine
 10
83.77262372182216
 20
57.73741313238375
 30
-5.0000000000000036
 11
85.53824863169088
 21
53.13538997642098
 31
-5.0000000000000036
  0
LINE
  5
62
330
17
100
AcDbEntity
  8
0
100
AcDbLine
 10
85.53824863169089
 20
53.13538997642098
 30
-5.0
 11
90.03824173746415
 21
37.546928727917916
 31
-5.0
  0
LINE
  5
63
330
17
100
AcDbEntity
  8
0
100
AcDbLine
 10
90.0382417374641
 20
37.546928727917916
 30
-5.0
 11
91.14815986680837
 21
32.18776079279529
 31
-5.0
  0
LINE
  5
64
330
17
100
AcDbEntity
  8
0
100
AcDbLine
 10
91.14815986680837
 20
32.18776079279529
 30
-5.0
 11
93.47752756599643
 21
14.801094889393116
 31
-5.0
  0
LINE
  5
65
330
17
100
AcDbEntity
  8
0
100
AcDbLine
 10
93.85609995557634
 20
9.05
 30
-5.0
 11
93.47752756599643
 21
14.80109488939312
 31
-5.0
  0
LINE
  5
66
330
17
100
AcDbEntity
  8
0
100
AcDbLine
 10
93.85609995557635
 20
9.050000000000002
 30
-5.0
 11
93.85609995557635
 21
-9.049999999999999
 31
-5.0
  0
LINE
  5
67
330
17
100
AcDbEntity
  8
0
100
AcDbLine
 10
93.85609995557637
 20
-9.05
 30
-5.0
 11
93.47752756599645
 21
-14.801094889393122
 31
-5.0
  0
LINE
  5
68
330
17
100
AcDbEntity
  8
0
100
AcDbLine
 10
91.14815986680838
 20
-32.18776079279529
 30
-5.0
 11
93.47752756599644
 21
-14.801094889393116
 31
-5.0
  0
LINE
  5
69
330
17
100
AcDbEntity
  8
0
100
AcDbLine
 10
84.32799312670045
 20
-38.124212612802545
 30
-5.0
 11
91.14815986680838
 21
-32.187760792795274
 31
-5.0
  0
LINE
  5
6A
330
17
100
AcDbEntity
  8
0
100
AcDbLine
 10
92.18731475116047
 20
-44.71896648919158
 30
-5.0
 11
84.32799312670045
 21
-38.12421261280255
 31
-5.0
  0
LINE
  5
6B
330
17
100
AcDbEntity
  8
0
100
AcDbLine
 10
93.62263626373023
 20
-46.469153112577615
 30
-5.0
 11
92.18731475116108
 21
-44.71896648919085
 31
-5.0
  0
LINE
  5
6C
330
17
100
AcDbEntity
  8
0
100
AcDbLine
 10
89.6957367533574
 20
-55.998702707288615
 30
-5.0
 11
93.62263626373024
 21
-46.46915311257764
 31
-5.0
  0
CIRCLE
  5
6D
330
17
100
AcDbEntity
  8
0
100
AcDbCircle
 10
48.05454856042901
 20
-93.13776079279529
 30
-5.0
 40
2.0
  0
CIRCLE
  5
6E
330
17
100
AcDbEntity
  8
0
100
AcDbCircle
 10
87.76284371640239
 20
-23.444427841094207
 30
-5.0
 40
2.0
  0
CIRCLE
  5
6F
330
17
100
AcDbEntity
  8
0
100
AcDbCircle
 10
-59.875383401331646
 20
68.65797306630014
 30
-5.0
 40
2.0
  0
CIRCLE
  5
70
330
17
100
AcDbEntity
  8
0
100
AcDbCircle
 10
-6.592180649537838
 20
84.2039209450697
 30
-5.0
 40
2.0
  0
CIRCLE
  5
71
330
17
100
AcDbEntity
  8
0
100
AcDbCircle
 10
-57.493707498129154
 20
-33.32671031366827
 30
-5.0
 40
2.0
  0
CIRCLE
  5
72
330
17
100
AcDbEntity
  8
0
100
AcDbCircle
 10
76.04064775487771
 20
64.05137838489678
 30
-5.0
 40
2.0
  0
CIRCLE
  5
73
330
17
100
AcDbEntity
  8
0
100
AcDbCircle
 10
-1.4287652517031364
 20
-63.83298032466794
 30
-5.0
 40
2.0
  0
LINE
  5
74
330
17
100
AcDbEntity
  8
0
100
AcDbLine
 10
95.99388843920045
 20
-64.05996925586616
 30
-5.0
 11
95.99388843920045
 21
-64.05996925586616
 31
0.0
  0
LINE
  5
75
330
17
100
AcDbEntity
  8
0
100
AcDbLine
 10
89.69573675335738
 20
-55.9987027072886
 30
-5.0
 11
89.69573675335738
 21
-55.9987027072886
 31
0.0
  0
LINE
  5
76
330
17
100
AcDbEntity
  8
0
100
AcDbLine
 10
95.99388843920076
 20
-64.05996925586595
 30
0.0
 11
89.69573675335738
 21
-55.9987027072886
 31
0.0
  0
LINE
  5
77
330
17
100
AcDbEntity
  8
0
100
AcDbLine
 10
99.0773675061611
 20
-70.18938861064777
 30
-5.0
 11
99.0773675061611
 21
-70.18938861064777
 31
0.0
  0
LINE
  5
78
330
17
100
AcDbEntity
  8
0
100
AcDbLine
 10
99.07736750616111
 20
-70.18938861064777
 30
0.0
 11
95.99388843920046
 21
-64.05996925586616
 31
0.0
  0
LINE
  5
79
330
17
100
AcDbEntity
  8
0
100
AcDbLine
 10
93.62263626373021
 20
-46.46915311257763
 30
-5.0
 11
93.62263626373021
 21
-46.46915311257763
 31
0.0
  0
LINE
  5
7A
330
17
100
AcDbEntity
  8
0
100
AcDbLine
 10
89.6957367533574
 20
-55.998702707288615
 30
0.0
 11
93.62263626373024
 21
-46.46915311257764
 31
0.0
  0
LINE
  5
7B
330
17
100
AcDbEntity
  8
0
100
AcDbLine
 10
98.7653005196299
 20
-72.76309685638253
 30
-5.0
 11
98.7653005196299
 21
-72.76309685638253
 31
0.0
  0
LINE
  5
7C
330
17
100
AcDbEntity
  8
0
100
AcDbLine
 10
99.0773675061611
 20
-70.18938861064777
 30
0.0
 11
98.7653005196299
 21
-72.76309685638253
 31
0.0
  0
LINE
  5
7D
330
17
100
AcDbEntity
  8
0
100
AcDbLine
 10
92.18731475116107
 20
-44.718966489190855
 30
-5.0
 11
92.18731475116107
 21
-44.718966489190855
 31
0.0
  0
LINE
  5
7E
330
17
100
AcDbEntity
  8
0
100
AcDbLine
 10
93.62263626373023
 20
-46.469153112577615
 30
0.0
 11
92.18731475116108
 21
-44.71896648919085
 31
0.0
  0
LINE
  5
7F
330
17
100
AcDbEntity
  8
0
100
AcDbLine
 10
97.34939207762741
 20
-81.92016336341057
 30
-5.0
 11
97.34939207762741
 21
-81.92016336341057
 31
0.0
  0
LINE
  5
80
330
17
100
AcDbEntity
  8
0
100
AcDbLine
 10
98.7653005196299
 20
-72.76309685638253
 30
0.0
 11
97.34939207762741
 21
-81.92016336341057
 31
0.0
  0
LINE
  5
81
330
17
100
AcDbEntity
  8
0
100
AcDbLine
 10
84.32799312670045
 20
-38.12421261280255
 30
-5.0
 11
84.32799312670045
 21
-38.12421261280255
 31
0.0
  0
LINE
  5
82
330
17
100
AcDbEntity
  8
0
100
AcDbLine
 10
92.18731475116047
 20
-44.71896648919158
 30
0.0
 11
84.32799312670045
 21
-38.12421261280255
 31
0.0
  0
LINE
  5
83
330
17
100
AcDbEntity
  8
0
100
AcDbLine
 10
83.33715376698748
 20
-93.42763571163863
 30
-5.0
 11
83.33715376698748
 21
-93.42763571163863
 31
0.0
  0
LINE
  5
84
330
17
100
AcDbEntity
  8
0
100
AcDbLine
 10
97.3493920776274
 20
-81.92016336341055
 30
0.0
 11
83.33715376698748
 21
-93.42763571163862
 31
0.0
  0
LINE
  5
85
330
17
100
AcDbEntity
  8
0
100
AcDbLine
 10
91.14815986680838
 20
-32.18776079279529
 30
-5.0
 11
91.14815986680838
 21
-32.18776079279529
 31
0.0
  0
LINE
  5
86
330
17
100
AcDbEntity
  8
0
100
AcDbLine
 10
84.32799312670045
 20
-38.124212612802545
 30
0.0
 11
91.14815986680838
 21
-32.187760792795274
 31
0.0
  0
LINE
  5
87
330
17
100
AcDbEntity
  8
0
100
AcDbLine
 10
80.88336203158305
 20
-94.53397080901448
 30
-5.0
 11
80.88336203158305
 21
-94.53397080901448
 31
0.0
  0
LINE
  5
88
330
17
100
AcDbEntity
  8
0
100
AcDbLine
 10
83.33715376698748
 20
-93.42763571163862
 30
0.0
 11
80.88336203158303
 21
-94.53397080901446
 31
0.0
  0
LINE
  5
89
330
17
100
AcDbEntity
  8
0
100
AcDbLine
 10
93.47752756599645
 20
-14.80109488939312
 30
-5.0
 11
93.47752756599645
 21
-14.80109488939312
 31
0.0
  0
LINE
  5
8A
330
17
100
AcDbEntity
  8
0
100
AcDbLine
 10
91.14815986680838
 20
-32.18776079279529
 30
0.0
 11
93.47752756599644
 21
-14.801094889393116
 31
0.0
  0
LINE
  5
8B
330
17
100
AcDbEntity
  8
0
100
AcDbLine
 10
78.71344578547296
 20
-94.49660298713559
 30
-5.0
 11
78.71344578547296
 21
-94.49660298713559
 31
0.0
  0
LINE
  5
8C
330
17
100
AcDbEntity
  8
0
100
AcDbLine
 10
78.71344578547294
 20
-94.4966029871356
 30
0.0
 11
80.88336203158305
 21
-94.53397080901449
 31
0.0
  0
LINE
  5
8D
330
17
100
AcDbEntity
  8
0
100
AcDbLine
 10
93.85609995557635
 20
-9.05
 30
-5.0
 11
93.85609995557635
 21
-9.05
 31
0.0
  0
LINE
  5
8E
330
17
100
AcDbEntity
  8
0
100
AcDbLine
 10
93.85609995557637
 20
-9.05
 30
0.0
 11
93.47752756599645
 21
-14.801094889393122
 31
0.0
  0
LINE
  5
8F
330
17
100
AcDbEntity
  8
0
100
AcDbLine
 10
64.82881600484944
 20
-106.77311014323682
 30
-5.0
 11
64.82881600484944
 21
-106.77311014323682
 31
0.0
  0
LINE
  5
90
330
17
100
AcDbEntity
  8
0
100
AcDbLine
 10
78.71344578547297
 20
-94.4966029871356
 30
0.0
 11
64.82881600484944
 21
-106.77311014323682
 31
0.0
  0
LINE
  5
91
330
17
100
AcDbEntity
  8
0
100
AcDbLine
 10
93.85609995557634
 20
9.05
 30
-5.0
 11
93.85609995557634
 21
9.05
 31
0.0
  0
LINE
  5
92
330
17
100
AcDbEntity
  8
0
100
AcDbLine
 10
93.85609995557635
 20
9.050000000000002
 30
0.0
 11
93.85609995557635
 21
-9.049999999999999
 31
0.0
  0
LINE
  5
93
330
17
100
AcDbEntity
  8
0
100
AcDbLine
 10
52.22321119314188
 20
-107.304541885557
 30
-5.0
 11
52.22321119314188
 21
-107.304541885557
 31
0.0
  0
LINE
  5
94
330
17
100
AcDbEntity
  8
0
100
AcDbLine
 10
52.22321119314188
 20
-107.30454188555703
 30
0.0
 11
64.82881600484944
 21
-106.77311014323685
 31
0.0
  0
LINE
  5
95
330
17
100
AcDbEntity
  8
0
100
AcDbLine
 10
93.47752756599644
 20
14.80109488939312
 30
-5.0
 11
93.47752756599644
 21
14.80109488939312
 31
0.0
  0
LINE
  5
96
330
17
100
AcDbEntity
  8
0
100
AcDbLine
 10
93.85609995557634
 20
9.05
 30
0.0
 11
93.47752756599643
 21
14.80109488939312
 31
0.0
  0
LINE
  5
97
330
17
100
AcDbEntity
  8
0
100
AcDbLine
 10
50.583150744044126
 20
-107.40938873401113
 30
-5.0
 11
50.583150744044126
 21
-107.40938873401113
 31
0.0
  0
LINE
  5
98
330
17
100
AcDbEntity
  8
0
100
AcDbLine
 10
52.22321119314188
 20
-107.304541885557
 30
0.0
 11
50.583150744044126
 21
-107.40938873401113
 31
0.0
  0
LINE
  5
99
330
17
100
AcDbEntity
  8
0
100
AcDbLine
 10
91.14815986680838
 20
32.18776079279529
 30
-5.0
 11
91.14815986680838
 21
32.18776079279529
 31
0.0
  0
LINE
  5
9A
330
17
100
AcDbEntity
  8
0
100
AcDbLine
 10
91.14815986680837
 20
32.18776079279529
 30
0.0
 11
93.47752756599643
 21
14.801094889393116
 31
0.0
  0
LINE
  5
9B
330
17
100
AcDbEntity
  8
0
100
AcDbLine
 10
49.894767168974134
 20
-107.0701578015464
 30
-5.0
 11
49.894767168974134
 21
-107.0701578015464
 31
0.0
  0
LINE
  5
9C
330
17
100
AcDbEntity
  8
0
100
AcDbLine
 10
49.89476716897413
 20
-107.07015780154642
 30
0.0
 11
50.58315074404413
 21
-107.40938873401115
 31
0.0
  0
LINE
  5
9D
330
17
100
AcDbEntity
  8
0
100
AcDbLine
 10
90.03824173746413
 20
37.546928727917916
 30
-5.0
 11
90.03824173746413
 21
37.546928727917916
 31
0.0
  0
LINE
  5
9E
330
17
100
AcDbEntity
  8
0
100
AcDbLine
 10
90.0382417374641
 20
37.546928727917916
 30
0.0
 11
91.14815986680837
 21
32.18776079279529
 31
0.0
  0
LINE
  5
9F
330
17
100
AcDbEntity
  8
0
100
AcDbLine
 10
46.48796400963657
 20
-103.6486168681212
 30
-5.0
 11
46.48796400963657
 21
-103.6486168681212
 31
0.0
  0
LINE
  5
A0
330
17
100
AcDbEntity
  8
0
100
AcDbLine
 10
49.89476716897413
 20
-107.0701578015464
 30
-8.881784197001252e-16
 11
46.48796400963657
 21
-103.6486168681212
 31
-8.881784197001252e-16
  0
LINE
  5
A1
330
17
100
AcDbEntity
  8
0
100
AcDbLine
 10
85.53824863169088
 20
53.13538997642098
 30
-5.0
 11
85.53824863169088
 21
53.13538997642098
 31
0.0
  0
LINE
  5
A2
330
17
100
AcDbEntity
  8
0
100
AcDbLine
 10
85.53824863169089
 20
53.13538997642098
 30
0.0
 11
90.03824173746415
 21
37.546928727917916
 31
0.0
  0
LINE
  5
A3
330
17
100
AcDbEntity
  8
0
100
AcDbLine
 10
39.537708385198854
 20
-94.08241068399202
 30
-5.0
 11
39.537708385198854
 21
-94.08241068399202
 31
0.0
  0
LINE
  5
A4
330
17
100
AcDbEntity
  8
0
100
AcDbLine
 10
46.48796400963785
 20
-103.64861686812029
 30
0.0
 11
39.53770838519887
 21
-94.08241068399204
 31
0.0
  0
LINE
  5
A5
330
17
100
AcDbEntity
  8
0
100
AcDbLine
 10
83.77262372182216
 20
57.737413132383736
 30
-5.0
 11
83.77262372182216
 21
57.737413132383736
 31
0.0
  0
LINE
  5
A6
330
17
100
AcDbEntity
  8
0
100
AcDbLine
 10
83.77262372182216
 20
57.73741313238375
 30
-3.552713678800501e-15
 11
85.53824863169088
 21
53.13538997642098
 31
-3.552713678800501e-15
  0
LINE
  5
A7
330
17
100
AcDbEntity
  8
0
100
AcDbLine
 10
41.082899955421325
 20
-89.73841634695664
 30
-5.0
 11
41.082899955421325
 21
-89.73841634695664
 31
0.0
  0
LINE
  5
A8
330
17
100
AcDbEntity
  8
0
100
AcDbLine
 10
41.08289995542132
 20
-89.73841634695664
 30
0.0
 11
39.53770838519885
 21
-94.08241068399202
 31
0.0
  0
LINE
  5
A9
330
17
100
AcDbEntity
  8
0
100
AcDbLine
 10
80.22228090461255
 20
64.83811362728036
 30
-5.0
 11
80.22228090461255
 21
64.83811362728036
 31
0.0
  0
LINE
  5
AA
330
17
100
AcDbEntity
  8
0
100
AcDbLine
 10
80.22228090461257
 20
64.83811362728038
 30
0.0
 11
83.77262372182223
 21
57.73741313238377
 31
0.0
  0
LINE
  5
AB
330
17
100
AcDbEntity
  8
0
100
AcDbLine
 10
31.09768051029676
 20
-78.6487066678855
 30
-5.0
 11
31.09768051029676
 21
-78.6487066678855
 31
0.0
  0
LINE
  5
AC
330
17
100
AcDbEntity
  8
0
100
AcDbLine
 10
41.082899955421325
 20
-89.73841634695665
 30
0.0
 11
31.09768051029677
 21
-78.6487066678855
 31
0.0
  0
LINE
  5
AD
330
17
100
AcDbEntity
  8
0
100
AcDbLine
 10
79.17902064920142
 20
66.9246385048205
 30
-5.0
 11
79.17902064920142
 21
66.9246385048205
 31
0.0
  0
ARC
  5
AE
330
17
100
AcDbEntity
  8
0
100
AcDbCircle
 10
76.04064775487771
 20
64.05137838489678
 30
0.0
 40
4.254998018867925
100
AcDbArc
 50
10.655111901884936
 51
42.47489452449787
  0
LINE
  5
AF
330
17
100
AcDbEntity
  8
0
100
AcDbLine
 10
23.733483055230117
 20
-66.37893283825971
 30
-5.0
 11
23.733483055230117
 21
-66.37893283825971
 31
0.0
  0
LINE
  5
B0
330
17
100
AcDbEntity
  8
0
100
AcDbLine
 10
31.09768051029677
 20
-78.6487066678855
 30
0.0
 11
23.733483055230096
 21
-66.37893283825969
 31
0.0
  0
LINE
  5
B1
330
17
100
AcDbEntity
  8
0
100
AcDbLine
 10
77.40867178793327
 20
70.46534363740982
 30
-5.0
 11
77.40867178793327
 21
70.46534363740982
 31
0.0
  0
LINE
  5
B2
330
17
100
AcDbEntity
  8
0
100
AcDbLine
 10
77.40867178793336
 20
70.46534363740986
 30
0.0
 11
79.17902064920143
 21
66.9246385048205
 31
0.0
  0
LINE
  5
B3
330
17
100
AcDbEntity
  8
0
100
AcDbLine
 10
6.1863225268237345
 20
-69.17195499541647
 30
-5.0
 11
6.1863225268237345
 21
-69.17195499541647
 31
0.0
  0
LINE
  5
B4
330
17
100
AcDbEntity
  8
0
100
AcDbLine
 10
23.733483055230117
 20
-66.37893283825971
 30
0.0
 11
6.186322526823736
 21
-69.17195499541648
 31
0.0
  0
LINE
  5
B5
330
17
100
AcDbEntity
  8
0
100
AcDbLine
 10
67.90867178793327
 20
80.96534363740982
 30
-5.0
 11
67.90867178793327
 21
80.96534363740982
 31
0.0
  0
LINE
  5
B6
330
17
100
AcDbEntity
  8
0
100
AcDbLine
 10
77.40867178793327
 20
70.46534363740982
 30
0.0
 11
67.90867178793327
 21
80.96534363740982
 31
0.0
  0
LINE
  5
B7
330
17
100
AcDbEntity
  8
0
100
AcDbLine
 10
-15.885083911661798
 20
-69.17195499541647
 30
-5.0
 11
-15.885083911661798
 21
-69.17195499541647
 31
0.0
  0
LINE
  5
B8
330
17
100
AcDbEntity
  8
0
100
AcDbLine
 10
-15.8850839116618
 20
-69.17195499541646
 30
0.0
 11
6.186322526823737
 21
-69.17195499541646
 31
0.0
  0
LINE
  5
B9
330
17
100
AcDbEntity
  8
0
100
AcDbLine
 10
57.08638175503829
 20
87.70410286595609
 30
-5.0
 11
57.08638175503829
 21
87.70410286595609
 31
0.0
  0
LINE
  5
BA
330
17
100
AcDbEntity
  8
0
100
AcDbLine
 10
57.0863817550383
 20
87.70410286595612
 30
-1.7763568394002505e-15
 11
67.90867178793329
 21
80.96534363740984
 31
-1.7763568394002505e-15
  0
LINE
  5
BB
330
17
100
AcDbEntity
  8
0
100
AcDbLine
 10
-23.62143590446404
 20
-51.92586062187464
 30
-5.0
 11
-23.62143590446404
 21
-51.92586062187464
 31
0.0
  0
LINE
  5
BC
330
17
100
AcDbEntity
  8
0
100
AcDbLine
 10
-23.62143590446404
 20
-51.92586062187464
 30
0.0
 11
-15.885083911661802
 21
-69.17195499541647
 31
0.0
  0
LINE
  5
BD
330
17
100
AcDbEntity
  8
0
100
AcDbLine
 10
22.487852557695238
 20
87.70410286595609
 30
-5.0
 11
22.487852557695238
 21
87.70410286595609
 31
0.0
  0
LINE
  5
BE
330
17
100
AcDbEntity
  8
0
100
AcDbLine
 10
57.08638175503829
 20
87.7041028659561
 30
0.0
 11
22.487852557695238
 21
87.7041028659561
 31
0.0
  0
LINE
  5
BF
330
17
100
AcDbEntity
  8
0
100
AcDbLine
 10
-55.337585986527536
 20
-51.92586062187465
 30
-5.0
 11
-55.337585986527536
 21
-51.92586062187465
 31
0.0
  0
LINE
  5
C0
330
17
100
AcDbEntity
  8
0
100
AcDbLine
 10
-23.621435904464036
 20
-51.92586062187464
 30
0.0
 11
-55.337585986527536
 21
-51.92586062187464
 31
0.0
  0
LINE
  5
C1
330
17
100
AcDbEntity
  8
0
100
AcDbLine
 10
21.22648749384969
 20
90.52410286595608
 30
-5.0
 11
21.22648749384969
 21
90.52410286595608
 31
0.0
  0
LINE
  5
C2
330
17
100
AcDbEntity
  8
0
100
AcDbLine
 10
22.48785255769524
 20
87.70410286595609
 30
0.0
 11
21.226487493849692
 21
90.52410286595608
 31
0.0
  0
LINE
  5
C3
330
17
100
AcDbEntity
  8
0
100
AcDbLine
 10
-59.43086880290556
 20
-47.4265648898132
 30
-5.0
 11
-59.43086880290556
 21
-47.4265648898132
 31
0.0
  0
LINE
  5
C4
330
17
100
AcDbEntity
  8
0
100
AcDbLine
 10
-55.337585986527536
 20
-51.92586062187465
 30
0.0
 11
-59.43086880290556
 21
-47.4265648898132
 31
0.0
  0
LINE
  5
C5
330
17
100
AcDbEntity
  8
0
100
AcDbLine
 10
4.218049232378928
 20
90.52410286595608
 30
-5.0
 11
4.218049232378928
 21
90.52410286595608
 31
0.0
  0
LINE
  5
C6
330
17
100
AcDbEntity
  8
0
100
AcDbLine
 10
4.218049232378927
 20
90.52410286595608
 30
0.0
 11
21.22648749384969
 21
90.52410286595608
 31
0.0
  0
LINE
  5
C7
330
17
100
AcDbEntity
  8
0
100
AcDbLine
 10
-64.73666583044465
 20
-41.25458798631199
 30
-5.0
 11
-64.73666583044465
 21
-41.25458798631199
 31
0.0
  0
LINE
  5
C8
330
17
100
AcDbEntity
  8
0
100
AcDbLine
 10
-64.73666583044465
 20
-41.254587986311996
 30
0.0
 11
-59.43086880290556
 21
-47.4265648898132
 31
0.0
  0
LINE
  5
C9
330
17
100
AcDbEntity
  8
0
100
AcDbLine
 10
0.7443168703473848
 20
87.70410286595609
 30
-5.0
 11
0.7443168703473848
 21
87.70410286595609
 31
0.0
  0
LINE
  5
CA
330
17
100
AcDbEntity
  8
0
100
AcDbLine
 10
0.7443168703473937
 20
87.70410286595609
 30
0.0
 11
4.218049232378938
 21
90.52410286595608
 31
0.0
  0
LINE
  5
CB
330
17
100
AcDbEntity
  8
0
100
AcDbLine
 10
-64.90132529782414
 20
-40.74836351887029
 30
-5.0
 11
-64.90132529782414
 21
-40.74836351887029
 31
0.0
  0
LINE
  5
CC
330
17
100
AcDbEntity
  8
0
100
AcDbLine
 10
-64.90132529782416
 20
-40.7483635188703
 30
0.0
 11
-64.73666583044466
 21
-41.25458798631199
 31
0.0
  0
LINE
  5
CD
330
17
100
AcDbEntity
  8
0
100
AcDbLine
 10
-4.172731402029249
 20
87.70410286595612
 30
-5.0
 11
-4.172731402029249
 21
87.70410286595612
 31
0.0
  0
LINE
  5
CE
330
17
100
AcDbEntity
  8
0
100
AcDbLine
 10
0.7443168703473848
 20
87.70410286595612
 30
0.0
 11
-4.172731402029249
 21
87.70410286595612
 31
0.0
  0
LINE
  5
CF
330
17
100
AcDbEntity
  8
0
100
AcDbLine
 10
-64.73666583044465
 20
-33.69755378290613
 30
-5.0
 11
-64.73666583044465
 21
-33.69755378290613
 31
0.0
  0
LINE
  5
D0
330
17
100
AcDbEntity
  8
0
100
AcDbLine
 10
-64.73666583044466
 20
-33.69755378290613
 30
0.0
 11
-64.90132529782414
 21
-40.74836351887029
 31
0.0
  0
LINE
  5
D1
330
17
100
AcDbEntity
  8
0
100
AcDbLine
 10
-9.011629897046413
 20
87.70410286595612
 30
-5.0
 11
-9.011629897046413
 21
87.70410286595612
 31
0.0
  0
ARC
  5
D2
330
17
100
AcDbEntity
  8
0
100
AcDbCircle
 10
-6.592180649537833
 20
84.2039209450697
 30
0.0
 40
4.254998018867925
100
AcDbArc
 50
55.346403742881435
 51
124.6535962571185
  0
LINE
  5
D3
330
17
100
AcDbEntity
  8
0
100
AcDbLine
 10
-63.74097095143314
 20
-22.642870574991804
 30
-5.0
 11
-63.74097095143314
 21
-22.642870574991804
 31
0.0
  0
LINE
  5
D4
330
17
100
AcDbEntity
  8
0
100
AcDbLine
 10
-63.74097095143315
 20
-22.642870574991804
 30
0.0
 11
-64.73666583044465
 21
-33.69755378290613
 31
0.0
  0
LINE
  5
D5
330
17
100
AcDbEntity
  8
0
100
AcDbLine
 10
-16.642349033054785
 20
87.70410286595609
 30
-5.0
 11
-16.642349033054785
 21
87.70410286595609
 31
0.0
  0
LINE
  5
D6
330
17
100
AcDbEntity
  8
0
100
AcDbLine
 10
-9.011629897046413
 20
87.70410286595612
 30
0.0
 11
-16.64234903305478
 21
87.70410286595612
 31
0.0
  0
LINE
  5
D7
330
17
100
AcDbEntity
  8
0
100
AcDbLine
 10
-63.388881793409766
 20
-14.95
 30
-5.0
 11
-63.388881793409766
 21
-14.95
 31
0.0
  0
LINE
  5
D8
330
17
100
AcDbEntity
  8
0
100
AcDbLine
 10
-63.74097095143314
 20
-22.642870574991804
 30
0.0
 11
-63.388881793409766
 21
-14.95
 31
0.0
  0
LINE
  5
D9
330
17
100
AcDbEntity
  8
0
100
AcDbLine
 10
-20.2768902747491
 20
81.70410286595609
 30
-5.0
 11
-20.2768902747491
 21
81.70410286595609
 31
0.0
  0
LINE
  5
DA
330
17
100
AcDbEntity
  8
0
100
AcDbLine
 10
-20.276890274749103
 20
81.70410286595609
 30
0.0
 11
-16.64234903305479
 21
87.70410286595609
 31
0.0
  0
LINE
  5
DB
330
17
100
AcDbEntity
  8
0
100
AcDbLine
 10
-63.388881793409766
 20
2.9499999999999993
 30
-5.0
 11
-63.388881793409766
 21
2.9499999999999993
 31
0.0
  0
LINE
  5
DC
330
17
100
AcDbEntity
  8
0
100
AcDbLine
 10
-63.38888179340978
 20
2.9499999999999993
 30
0.0
 11
-63.38888179340978
 21
-14.95
 31
0.0
  0
LINE
  5
DD
330
17
100
AcDbEntity
  8
0
100
AcDbLine
 10
-58.45828267780448
 20
81.70410286595609
 30
-5.0
 11
-58.45828267780448
 21
81.70410286595609
 31
0.0
  0
LINE
  5
DE
330
17
100
AcDbEntity
  8
0
100
AcDbLine
 10
-58.45828267780448
 20
81.70410286595609
 30
0.0
 11
-20.2768902747491
 21
81.70410286595609
 31
0.0
  0
LINE
  5
DF
330
17
100
AcDbEntity
  8
0
100
AcDbLine
 10
-63.74097095143314
 20
10.642870574991804
 30
-5.0
 11
-63.74097095143314
 21
10.642870574991804
 31
0.0
  0
LINE
  5
E0
330
17
100
AcDbEntity
  8
0
100
AcDbLine
 10
-63.38888179340979
 20
2.9499999999999984
 30
0.0
 11
-63.74097095143315
 21
10.642870574991804
 31
0.0
  0
LINE
  5
E1
330
17
100
AcDbEntity
  8
0
100
AcDbLine
 10
-67.27503496966241
 20
74.27947673802421
 30
-5.0
 11
-67.27503496966241
 21
74.27947673802421
 31
0.0
  0
LINE
  5
E2
330
17
100
AcDbEntity
  8
0
100
AcDbLine
 10
-58.45828267780448
 20
81.70410286595609
 30
0.0
 11
-67.27503496966241
 21
74.27947673802421
 31
0.0
  0
LINE
  5
E3
330
17
100
AcDbEntity
  8
0
100
AcDbLine
 10
-64.73666583044465
 20
21.697553782906116
 30
-5.0
 11
-64.73666583044465
 21
21.697553782906116
 31
0.0
  0
LINE
  5
E4
330
17
100
AcDbEntity
  8
0
100
AcDbLine
 10
-63.74097095143317
 20
10.642870574991802
 30
0.0
 11
-64.73666583044468
 21
21.697553782906112
 31
0.0
  0
LINE
  5
E5
330
17
100
AcDbEntity
  8
0
100
AcDbLine
 10
-67.52154859237129
 20
71.45105148964998
 30
-5.0
 11
-67.52154859237129
 21
71.45105148964998
 31
0.0
  0
LINE
  5
E6
330
17
100
AcDbEntity
  8
0
100
AcDbLine
 10
-67.27503496966241
 20
74.27947673802421
 30
0.0
 11
-67.52154859237129
 21
71.45105148964998
 31
0.0
  0
LINE
  5
E7
330
17
100
AcDbEntity
  8
0
100
AcDbLine
 10
-64.89906954497498
 20
28.65177093051806
 30
-5.0
 11
-64.89906954497498
 21
28.65177093051806
 31
0.0
  0
LINE
  5
E8
330
17
100
AcDbEntity
  8
0
100
AcDbLine
 10
-64.73666583044522
 20
21.697553782906102
 30
0.0
 11
-64.89906954497496
 21
28.65177093051806
 31
0.0
  0
LINE
  5
E9
330
17
100
AcDbEntity
  8
0
100
AcDbLine
 10
-66.41223876200897
 20
58.72312098462392
 30
-5.0
 11
-66.41223876200897
 21
58.72312098462392
 31
0.0
  0
LINE
  5
EA
330
17
100
AcDbEntity
  8
0
100
AcDbLine
 10
-66.41223876200945
 20
58.723120984623876
 30
-8.881784197001252e-16
 11
-67.52154859237129
 21
71.45105148964998
 31
-8.881784197001252e-16
  0
LINE
  5
EB
330
17
100
AcDbEntity
  8
0
100
AcDbLine
 10
-65.18204582621532
 20
36.4902262173376
 30
-5.0
 11
-65.18204582621532
 21
36.4902262173376
 31
0.0
  0
LINE
  5
EC
330
17
100
AcDbEntity
  8
0
100
AcDbLine
 10
-65.1820458262153
 20
36.4902262173376
 30
0.0
 11
-64.89906954497496
 21
28.65177093051806
 31
0.0
  0
LINE
  5
ED
330
17
100
AcDbEntity
  8
0
100
AcDbLine
 10
-65.96208846907236
 20
51.992084903348974
 30
-5.0
 11
-65.96208846907236
 21
51.992084903348974
 31
0.0
  0
LINE
  5
EE
330
17
100
AcDbEntity
  8
0
100
AcDbLine
 10
-66.41223876200897
 20
58.72312098462393
 30
0.0
 11
-65.96208846907236
 21
51.99208490334898
 31
0.0
  0
LINE
  5
EF
330
17
100
AcDbEntity
  8
0
100
AcDbLine
 10
-65.18204582621567
 20
36.49022621733758
 30
0.0
 11
-65.96208846907237
 21
51.99208490334898
 31
0.0
  0
LINE
  5
F0
330
17
100
AcDbEntity
  8
0
100
AcDbLine
 10
46.05454856042901
 20
-93.13776079279529
 30
-5.0
 11
46.05454856042901
 21
-93.13776079279529
 31
-4.0
  0
CIRCLE
  5
F1
330
17
100
AcDbEntity
  8
0
100
AcDbCircle
 10
48.05454856042901
 20
-93.13776079279529
 30
-4.0
 40
2.0
  0
LINE
  5
F2
330
17
100
AcDbEntity
  8
0
100
AcDbLine
 10
85.76284371640239
 20
-23.444427841094207
 30
-5.0
 11
85.76284371640239
 21
-23.444427841094207
 31
-4.0
  0
CIRCLE
  5
F3
330
17
100
AcDbEntity
  8
0
100
AcDbCircle
 10
87.76284371640239
 20
-23.444427841094207
 30
-4.0
 40
2.0
  0
LINE
  5
F4
330
17
100
AcDbEntity
  8
0
100
AcDbLine
 10
-3.4287652517031364
 20
-63.83298032466794
 30
-5.0
 11
-3.4287652517031364
 21
-63.83298032466794
 31
-4.0
  0
CIRCLE
  5
F5
330
17
100
AcDbEntity
  8
0
100
AcDbCircle
 10
-1.4287652517031364
 20
-63.83298032466794
 30
-4.0
 40
2.0
  0
LINE
  5
F6
330
17
100
AcDbEntity
  8
0
100
AcDbLine
 10
-59.493707498129154
 20
-33.32671031366827
 30
-5.0
 11
-59.493707498129154
 21
-33.32671031366827
 31
-4.0
  0
CIRCLE
  5
F7
330
17
100
AcDbEntity
  8
0
100
AcDbCircle
 10
-57.493707498129154
 20
-33.32671031366827
 30
-4.0
 40
2.0
  0
LINE
  5
F8
330
17
100
AcDbEntity
  8
0
100
AcDbLine
 10
74.04064775487771
 20
64.05137838489678
 30
-5.0
 11
74.04064775487771
 21
64.05137838489678
 31
-4.0
  0
CIRCLE
  5
F9
330
17
100
AcDbEntity
  8
0
100
AcDbCircle
 10
76.04064775487771
 20
64.05137838489678
 30
-4.0
 40
2.0
  0
LINE
  5
FA
330
17
100
AcDbEntity
  8
0
100
AcDbLine
 10
-8.592180649537838
 20
84.2039209450697
 30
-5.0
 11
-8.592180649537838
 21
84.2039209450697
 31
-4.0
  0
CIRCLE
  5
FB
330
17
100
AcDbEntity
  8
0
100
AcDbCircle
 10
-6.592180649537838
 20
84.2039209450697
 30
-4.0
 40
2.0
  0
LINE
  5
FC
330
17
100
AcDbEntity
  8
0
100
AcDbLine
 10
-61.875383401331646
 20
68.65797306630014
 30
-5.0
 11
-61.875383401331646
 21
68.65797306630014
 31
-4.0
  0
CIRCLE
  5
FD
330
17
100
AcDbEntity
  8
0
100
AcDbCircle
 10
-59.875383401331646
 20
68.65797306630014
 30
-4.0
 40
2.0
  0
CIRCLE
  5
FE
330
17
100
AcDbEntity
  8
0
100
AcDbCircle
 10
48.05454856042901
 20
-93.13776079279529
 30
0.0
 40
1.0
  0
CIRCLE
  5
FF
330
17
100
AcDbEntity
  8
0
100
AcDbCircle
 10
87.7628437164024
 20
-23.444427841094203
 30
0.0
 40
1.0
  0
CIRCLE
  5
100
330
17
100
AcDbEntity
  8
0
100
AcDbCircle
 10
-1.4287652517031317
 20
-63.83298032466795
 30
0.0
 40
1.0
  0
CIRCLE
  5
101
330
17
100
AcDbEntity
  8
0
100
AcDbCircle
 10
-57.49370749812915
 20
-33.32671031366827
 30
0.0
 40
1.0
  0
CIRCLE
  5
102
330
17
100
AcDbEntity
  8
0
100
AcDbCircle
 10
76.04064775487771
 20
64.05137838489678
 30
0.0
 40
1.0
  0
CIRCLE
  5
103
330
17
100
AcDbEntity
  8
0
100
AcDbCircle
 10
-6.592180649537833
 20
84.2039209450697
 30
0.0
 40
1.0
  0
CIRCLE
  5
104
330
17
100
AcDbEntity
  8
0
100
AcDbCircle
 10
-59.87538340133163
 20
68.65797306630014
 30
0.0
 40
1.0
  0
LINE
  5
105
330
17
100
AcDbEntity
  8
0
100
AcDbLine
 10
46.15741134026735
 20
-87.91243845463026
 30
0.0
 11
45.620819141067194
 21
-89.6474930016505
 31
0.0
  0
LINE
  5
106
330
17
100
AcDbEntity
  8
0
100
AcDbLine
 10
36.17219189514279
 20
-76.82272877555911
 30
0.0
 11
46.15741134026735
 21
-87.91243845463026
 31
0.0
  0
LINE
  5
107
330
17
100
AcDbEntity
  8
0
100
AcDbLine
 10
36.172191895142795
 20
-76.82272877555911
 30
0.0
 11
25.136028486716178
 21
-61.88791306325354
 31
0.0
  0
LINE
  5
108
330
17
100
AcDbEntity
  8
0
100
AcDbLine
 10
25.13602848671618
 20
-61.88791306325353
 30
0.0
 11
24.252584461335932
 21
-61.02683012279944
 31
0.0
  0
LINE
  5
109
330
17
100
AcDbEntity
  8
0
100
AcDbLine
 10
24.157459337079498
 20
-61.01005699684981
 30
0.0
 11
24.252584461335918
 21
-61.02683012279947
 31
0.0
  0
LINE
  5
10A
330
17
100
AcDbEntity
  8
0
100
AcDbLine
 10
24.1574593370795
 20
-61.01005699684979
 30
0.0
 11
5.788437833753429
 21
-63.188238652849996
 31
0.0
  0
LINE
  5
10B
330
17
100
AcDbEntity
  8
0
100
AcDbLine
 10
5.788437833753431
 20
-63.18823865285001
 30
0.0
 11
2.7771016407687843
 21
-63.18823865285001
 31
0.0
  0
ARC
  5
10C
330
17
100
AcDbEntity
  8
0
100
AcDbCircle
 10
-1.4287652517031317
 20
-63.83298032466795
 30
0.0
 40
4.254998018867925
100
AcDbArc
 50
8.715355076372873
 51
171.28464492362713
  0
LINE
  5
10D
330
17
100
AcDbEntity
  8
0
100
AcDbLine
 10
-5.634632144175049
 20
-63.18823865285001
 30
0.0
 11
-13.65901480887047
 21
-63.18823865285001
 31
0.0
  0
LINE
  5
10E
330
17
100
AcDbEntity
  8
0
100
AcDbLine
 10
-17.258133347838648
 20
-51.92586062187464
 30
0.0
 11
-13.659014808870465
 21
-63.18823865285001
 31
0.0
  0
LINE
  5
10F
330
17
100
AcDbEntity
  8
0
100
AcDbLine
 10
-13.960766460386129
 20
-51.92586062187464
 30
0.0
 11
-17.25813334783865
 21
-51.92586062187464
 31
0.0
  0
LINE
  5
110
330
17
100
AcDbEntity
  8
0
100
AcDbLine
 10
-13.9607664603862
 20
-51.92586062187465
 30
0.0
 11
-13.754026908426065
 21
-47.48260155767187
 31
0.0
  0
LINE
  5
111
330
17
100
AcDbEntity
  8
0
100
AcDbLine
 10
-14.424951425225784
 20
-46.44732623165211
 30
0.0
 11
-13.75402690842606
 21
-47.48260155767187
 31
0.0
  0
LINE
  5
112
330
17
100
AcDbEntity
  8
0
100
AcDbLine
 10
-14.424951425225785
 20
-46.44732623165211
 30
0.0
 11
-55.47094555257118
 21
-46.44732623165211
 31
0.0
  0
LINE
  5
113
330
17
100
AcDbEntity
  8
0
100
AcDbLine
 10
-58.566864519855955
 20
-42.74448971991396
 30
0.0
 11
-55.47094555257118
 21
-46.44732623165211
 31
0.0
  0
LINE
  5
114
330
17
100
AcDbEntity
  8
0
100
AcDbLine
 10
-58.566864519855976
 20
-42.74448971991397
 30
-8.881784197001252e-16
 11
-59.58179431035127
 21
-41.27144348367832
 31
-8.881784197001252e-16
  0
LINE
  5
115
330
17
100
AcDbEntity
  8
0
100
AcDbLine
 10
-59.23945489455362
 20
-37.20709356387014
 30
0.0
 11
-59.58179431033944
 21
-41.271443483679306
 31
0.0
  0
ARC
  5
116
330
17
100
AcDbEntity
  8
0
100
AcDbCircle
 10
-57.49370749812915
 20
-33.32671031366827
 30
0.0
 40
4.254998018867925
100
AcDbArc
 50
-114.22252571742524
 51
104.5932299065079
  0
LINE
  5
117
330
17
100
AcDbEntity
  8
0
100
AcDbLine
 10
-58.01525578840462
 20
-22.673057138394864
 30
0.0
 11
-58.56577557315927
 21
-29.208983005665566
 31
0.0
  0
LINE
  5
118
330
17
100
AcDbEntity
  8
0
100
AcDbLine
 10
-57.6889623679889
 20
-15.05
 30
0.0
 11
-58.01525578840455
 21
-22.673057138394867
 31
0.0
  0
LINE
  5
119
330
17
100
AcDbEntity
  8
0
100
AcDbLine
 10
-57.68896236798912
 20
-15.050000000000006
 30
0.0
 11
-57.68896236798892
 21
3.0500000000000007
 31
0.0
  0
LINE
  5
11A
330
17
100
AcDbEntity
  8
0
100
AcDbLine
 10
-57.68896236798891
 20
3.0500000000000007
 30
0.0
 11
-58.01525578840456
 21
10.673057138394867
 31
0.0
  0
LINE
  5
11B
330
17
100
AcDbEntity
  8
0
100
AcDbLine
 10
-58.01525578840456
 20
10.673057138394867
 30
0.0
 11
-59.58179431035124
 21
29.27144348367831
 31
0.0
  0
LINE
  5
11C
330
17
100
AcDbEntity
  8
0
100
AcDbLine
 10
-59.5817943103512
 20
29.27144348367831
 30
0.0
 11
-59.58957913562011
 21
29.363867120857655
 31
0.0
  0
LINE
  5
11D
330
17
100
AcDbEntity
  8
0
100
AcDbLine
 10
-59.59049730213983
 20
29.37476785226321
 30
0.0
 11
-59.58957913562006
 21
29.363867120857655
 31
0.0
  0
LINE
  5
11E
330
17
100
AcDbEntity
  8
0
100
AcDbLine
 10
-60.119094607523316
 20
33.57878351790797
 30
0.0
 11
-59.59049730213984
 21
29.37476785226321
 31
0.0
  0
LINE
  5
11F
330
17
100
AcDbEntity
  8
0
100
AcDbLine
 10
-60.293276233371415
 20
38.40362212279494
 30
0.0
 11
-60.119094607523316
 21
33.578783517907965
 31
0.0
  0
LINE
  5
120
330
17
100
AcDbEntity
  8
0
100
AcDbLine
 10
-60.29327623337048
 20
38.403622122794985
 30
0.0
 11
-61.08203443648384
 21
54.07868593378968
 31
0.0
  0
LINE
  5
121
330
17
100
AcDbEntity
  8
0
100
AcDbLine
 10
-61.5770666661353
 20
61.48083550797023
 30
0.0
 11
-61.08203443648383
 21
54.07868593378968
 31
0.0
  0
LINE
  5
122
330
17
100
AcDbEntity
  8
0
100
AcDbLine
 10
-61.5770666661345
 20
61.4808355079703
 30
-8.881784197001252e-16
 11
-61.87526147552719
 21
64.90224466438902
 31
-8.881784197001252e-16
  0
ARC
  5
123
330
17
100
AcDbEntity
  8
0
100
AcDbCircle
 10
-59.87538340133163
 20
68.65797306630014
 30
0.0
 40
4.254998018867925
100
AcDbArc
 50
-118.03473902679269
 51
115.8257880017939
  0
LINE
  5
124
330
17
100
AcDbEntity
  8
0
100
AcDbLine
 10
-58.321686540080265
 20
75.62298426629742
 30
0.0
 11
-61.72901489152712
 21
72.48799375020326
 31
0.0
  0
LINE
  5
125
330
17
100
AcDbEntity
  8
0
100
AcDbLine
 10
-58.321686540080265
 20
75.62298426629742
 30
0.0
 11
-20.104737576632672
 21
75.62298426629742
 31
0.0
  0
LINE
  5
126
330
17
100
AcDbEntity
  8
0
100
AcDbLine
 10
-20.104737576632683
 20
75.62298426629742
 30
-1.7763568394002505e-15
 11
-16.43594995831554
 21
81.62298426629742
 31
-1.7763568394002505e-15
  0
LINE
  5
127
330
17
100
AcDbEntity
  8
0
100
AcDbLine
 10
-9.97504541194527
 20
81.62298426629744
 30
0.0
 11
-16.435949958315533
 21
81.62298426629744
 31
0.0
  0
ARC
  5
128
330
17
100
AcDbEntity
  8
0
100
AcDbCircle
 10
-6.592180649537833
 20
84.2039209450697
 30
0.0
 40
4.254998018867925
100
AcDbArc
 50
-142.65839316826452
 51
-37.341606831735504
  0
LINE
  5
129
330
17
100
AcDbEntity
  8
0
100
AcDbLine
 10
0.9507159450866425
 20
81.62298426629744
 30
0.0
 11
-3.2093158871303924
 21
81.62298426629744
 31
0.0
  0
LINE
  5
12A
330
17
100
AcDbEntity
  8
0
100
AcDbLine
 10
4.457123864807016
 20
84.44298426629744
 30
0.0
 11
0.9507159450866283
 21
81.62298426629744
 31
0.0
  0
LINE
  5
12B
330
17
100
AcDbEntity
  8
0
100
AcDbLine
 10
4.4571238648070235
 20
84.4429842662974
 30
0.0
 11
21.27762358195214
 21
84.4429842662974
 31
0.0
  0
LINE
  5
12C
330
17
100
AcDbEntity
  8
0
100
AcDbLine
 10
21.277623581952124
 20
84.4429842662974
 30
-1.7763568394002505e-15
 11
22.576521660015086
 21
81.62298426629741
 31
-1.7763568394002505e-15
  0
LINE
  5
12D
330
17
100
AcDbEntity
  8
0
100
AcDbLine
 10
57.211909047306335
 20
81.62298426629744
 30
0.0
 11
22.576521660015104
 21
81.62298426629744
 31
0.0
  0
LINE
  5
12E
330
17
100
AcDbEntity
  8
0
100
AcDbLine
 10
57.21190904730634
 20
81.62298426629744
 30
0.0
 11
67.80867178793329
 21
76.36534363740984
 31
0.0
  0
LINE
  5
12F
330
17
100
AcDbEntity
  8
0
100
AcDbLine
 10
72.80867178793328
 20
70.36534363740982
 30
0.0
 11
67.80867178793328
 21
76.36534363740982
 31
0.0
  0
LINE
  5
130
330
17
100
AcDbEntity
  8
0
100
AcDbLine
 10
72.80867178793326
 20
70.36534363740982
 30
0.0
 11
74.07799446577617
 21
67.82669296878896
 31
0.0
  0
ARC
  5
131
330
17
100
AcDbEntity
  8
0
100
AcDbCircle
 10
76.04064775487771
 20
64.05137838489678
 30
0.0
 40
4.254998018867925
100
AcDbArc
 50
-242.53166520109664
 51
-64.33832837252103
  0
LINE
  5
132
330
17
100
AcDbEntity
  8
0
100
AcDbLine
 10
77.8833010272368
 20
60.21606391820251
 30
0.0
 11
79.17262372182215
 21
57.637413132383735
 31
0.0
  0
LINE
  5
133
330
17
100
AcDbEntity
  8
0
100
AcDbLine
 10
80.9382486316909
 20
53.03538997642099
 30
-1.7763568394002505e-15
 11
79.17262372182218
 21
57.63741313238375
 31
-1.7763568394002505e-15
  0
LINE
  5
134
330
17
100
AcDbEntity
  8
0
100
AcDbLine
 10
85.43824173746414
 20
37.44692872791792
 30
0.0
 11
80.93824863169088
 21
53.03538997642099
 31
0.0
  0
LINE
  5
135
330
17
100
AcDbEntity
  8
0
100
AcDbLine
 10
86.54815986680839
 20
32.087760792795294
 30
0.0
 11
85.43824173746414
 21
37.44692872791792
 31
0.0
  0
LINE
  5
136
330
17
100
AcDbEntity
  8
0
100
AcDbLine
 10
88.87752756599644
 20
14.701094889393119
 30
0.0
 11
86.54815986680839
 21
32.087760792795294
 31
0.0
  0
LINE
  5
137
330
17
100
AcDbEntity
  8
0
100
AcDbLine
 10
89.25609995557637
 20
8.950000000000001
 30
0.0
 11
88.87752756599646
 21
14.70109488939312
 31
0.0
  0
LINE
  5
138
330
17
100
AcDbEntity
  8
0
100
AcDbLine
 10
89.25609995557636
 20
-8.95
 30
0.0
 11
89.25609995557636
 21
8.95
 31
0.0
  0
LINE
  5
139
330
17
100
AcDbEntity
  8
0
100
AcDbLine
 10
89.25609995557636
 20
-8.95
 30
0.0
 11
88.87752756599644
 21
-14.701094889393119
 31
0.0
  0
LINE
  5
13A
330
17
100
AcDbEntity
  8
0
100
AcDbLine
 10
88.87752756599646
 20
-14.70109488939312
 30
0.0
 11
88.27210797619162
 21
-19.22001568621735
 31
0.0
  0
ARC
  5
13B
330
17
100
AcDbEntity
  8
0
100
AcDbCircle
 10
87.7628437164024
 20
-23.444427841094203
 30
0.0
 40
4.254998018867925
100
AcDbArc
 50
-276.8739891416712
 51
-98.38746639009281
  0
LINE
  5
13C
330
17
100
AcDbEntity
  8
0
100
AcDbLine
 10
87.14218151558431
 20
-27.65391552643616
 30
0.0
 11
86.5481598668084
 21
-32.087760792795294
 31
0.0
  0
LINE
  5
13D
330
17
100
AcDbEntity
  8
0
100
AcDbLine
 10
86.54815986680839
 20
-32.087760792795294
 30
0.0
 11
78.56680011420903
 21
-39.13215027314399
 31
0.0
  0
LINE
  5
13E
330
17
100
AcDbEntity
  8
0
100
AcDbLine
 10
78.49839582860649
 20
-39.204577875485384
 30
0.0
 11
78.56680011420903
 21
-39.13215027314399
 31
0.0
  0
LINE
  5
13F
330
17
100
AcDbEntity
  8
0
100
AcDbLine
 10
79.93371734117565
 20
-40.954764498872166
 30
0.0
 11
78.4983958286065
 21
-39.2045778754854
 31
0.0
  0
LINE
  5
140
330
17
100
AcDbEntity
  8
0
100
AcDbLine
 10
88.7901022542687
 20
-48.38615381301369
 30
0.0
 11
79.93371734117564
 21
-40.95476449887216
 31
0.0
  0
LINE
  5
141
330
17
100
AcDbEntity
  8
0
100
AcDbLine
 10
84.51364688187527
 20
-57.272581312202874
 30
0.0
 11
88.79010225426907
 21
-48.38615381301289
 31
0.0
  0
LINE
  5
142
330
17
100
AcDbEntity
  8
0
100
AcDbLine
 10
84.51364688187527
 20
-57.272581312202874
 30
0.0
 11
88.21938384326978
 21
-62.01570832704839
 31
0.0
  0
LINE
  5
143
330
17
100
AcDbEntity
  8
0
100
AcDbLine
 10
94.33805844669334
 20
-73.73722413941937
 30
0.0
 11
88.21938384326975
 21
-62.01570832704838
 31
0.0
  0
LINE
  5
144
330
17
100
AcDbEntity
  8
0
100
AcDbLine
 10
94.33805844669334
 20
-73.73722413941937
 30
0.0
 11
93.59201192499104
 21
-77.64398550068414
 31
0.0
  0
LINE
  5
145
330
17
100
AcDbEntity
  8
0
100
AcDbLine
 10
93.59201192499104
 20
-77.64398550068411
 30
0.0
 11
79.71934642605603
 21
-89.0063091614451
 31
0.0
  0
LINE
  5
146
330
17
100
AcDbEntity
  8
0
100
AcDbLine
 10
76.64805359266046
 20
-89.65688311791953
 30
0.0
 11
79.71934642605605
 21
-89.00630916144515
 31
0.0
  0
LINE
  5
147
330
17
100
AcDbEntity
  8
0
100
AcDbLine
 10
76.64805359266047
 20
-89.65688311791955
 30
8.881784197001252e-16
 11
74.84453248338468
 21
-90.46527948782197
 31
8.881784197001252e-16
  0
LINE
  5
148
330
17
100
AcDbEntity
  8
0
100
AcDbLine
 10
74.84453248338467
 20
-90.46527948782196
 30
0.0
 11
60.89109563572042
 21
-102.67268191864915
 31
0.0
  0
LINE
  5
149
330
17
100
AcDbEntity
  8
0
100
AcDbLine
 10
55.18478526286066
 20
-103.07935047403794
 30
0.0
 11
60.89109563572042
 21
-102.67268191864915
 31
0.0
  0
LINE
  5
14A
330
17
100
AcDbEntity
  8
0
100
AcDbLine
 10
51.122805624089104
 20
-100.62933799827155
 30
0.0
 11
55.18478526286068
 21
-103.07935047403791
 31
0.0
  0
LINE
  5
14B
330
17
100
AcDbEntity
  8
0
100
AcDbLine
 10
48.731874295760534
 20
-97.33850334487195
 30
0.0
 11
51.1228056240891
 21
-100.62933799827155
 31
0.0
  0
ARC
  5
14C
330
17
100
AcDbEntity
  8
0
100
AcDbCircle
 10
48.05454856042901
 20
-93.13776079279529
 30
0.0
 40
4.254998018867925
100
AcDbArc
 50
-80.84048964749735
 51
124.88768489904885
  0
CIRCLE
  5
14D
330
17
100
AcDbEntity
  8
0
100
AcDbCircle
 10
48.05454856042901
 20
-93.13776079279529
 30
-4.0
 40
1.0
  0
CIRCLE
  5
14E
330
17
100
AcDbEntity
  8
0
100
AcDbCircle
 10
87.7628437164024
 20
-23.444427841094203
 30
-4.0
 40
1.0
  0
CIRCLE
  5
14F
330
17
100
AcDbEntity
  8
0
100
AcDbCircle
 10
-1.4287652517031317
 20
-63.83298032466795
 30
-4.0
 40
1.0
  0
CIRCLE
  5
150
330
17
100
AcDbEntity
  8
0
100
AcDbCircle
 10
-57.49370749812915
 20
-33.32671031366827
 30
-4.0
 40
1.0
  0
CIRCLE
  5
151
330
17
100
AcDbEntity
  8
0
100
AcDbCircle
 10
76.04064775487771
 20
64.05137838489678
 30
-4.0
 40
1.0
  0
CIRCLE
  5
152
330
17
100
AcDbEntity
  8
0
100
AcDbCircle
 10
-6.592180649537833
 20
84.2039209450697
 30
-4.0
 40
1.0
  0
CIRCLE
  5
153
330
17
100
AcDbEntity
  8
0
100
AcDbCircle
 10
-59.87538340133163
 20
68.65797306630014
 30
-4.0
 40
1.0
  0
LINE
  5
154
330
17
100
AcDbEntity
  8
0
100
AcDbLine
 10
47.05454856042901
 20
-93.13776079279529
 30
-4.0
 11
47.05454856042901
 21
-93.13776079279529
 31
0.0
  0
LINE
  5
155
330
17
100
AcDbEntity
  8
0
100
AcDbLine
 10
86.7628437164024
 20
-23.444427841094203
 30
-4.0
 11
86.7628437164024
 21
-23.444427841094203
 31
0.0
  0
LINE
  5
156
330
17
100
AcDbEntity
  8
0
100
AcDbLine
 10
-2.4287652517031315
 20
-63.83298032466795
 30
-4.0
 11
-2.4287652517031315
 21
-63.83298032466795
 31
0.0
  0
LINE
  5
157
330
17
100
AcDbEntity
  8
0
100
AcDbLine
 10
-58.49370749812915
 20
-33.32671031366827
 30
-4.0
 11
-58.49370749812915
 21
-33.32671031366827
 31
0.0
  0
LINE
  5
158
330
17
100
AcDbEntity
  8
0
100
AcDbLine
 10
75.04064775487771
 20
64.05137838489678
 30
-4.0
 11
75.04064775487771
 21
64.05137838489678
 31
0.0
  0
LINE
  5
159
330
17
100
AcDbEntity
  8
0
100
AcDbLine
 10
-7.592180649537833
 20
84.2039209450697
 30
-4.0
 11
-7.592180649537833
 21
84.2039209450697
 31
0.0
  0
LINE
  5
15A
330
17
100
AcDbEntity
  8
0
100
AcDbLine
 10
-60.87538340133163
 20
68.65797306630014
 30
-4.0
 11
-60.87538340133163
 21
68.65797306630014
 31
0.0
  0
LINE
  5
15B
330
17
100
AcDbEntity
  8
0
100
AcDbLine
 10
46.15741134026735
 20
-87.91243845463026
 30
-2.0
 11
45.620819141067194
 21
-89.6474930016505
 31
-2.0
  0
LINE
  5
15C
330
17
100
AcDbEntity
  8
0
100
AcDbLine
 10
45.6208191410672
 20
-89.6474930016505
 30
-2.0
 11
45.6208191410672
 21
-89.6474930016505
 31
0.0
  0
LINE
  5
15D
330
17
100
AcDbEntity
  8
0
100
AcDbLine
 10
46.15741134026735
 20
-87.91243845463026
 30
-2.0
 11
46.15741134026735
 21
-87.91243845463026
 31
0.0
  0
LINE
  5
15E
330
17
100
AcDbEntity
  8
0
100
AcDbLine
 10
36.17219189514279
 20
-76.82272877555911
 30
-2.0
 11
46.15741134026735
 21
-87.91243845463026
 31
-2.0
  0
LINE
  5
15F
330
17
100
AcDbEntity
  8
0
100
AcDbLine
 10
36.17219189514279
 20
-76.82272877555911
 30
-2.0
 11
36.17219189514279
 21
-76.82272877555911
 31
0.0
  0
LINE
  5
160
330
17
100
AcDbEntity
  8
0
100
AcDbLine
 10
36.172191895142795
 20
-76.82272877555911
 30
-2.0
 11
25.136028486716178
 21
-61.88791306325354
 31
-2.0
  0
LINE
  5
161
330
17
100
AcDbEntity
  8
0
100
AcDbLine
 10
25.13602848671617
 20
-61.88791306325354
 30
-2.0
 11
25.13602848671617
 21
-61.88791306325354
 31
0.0
  0
LINE
  5
162
330
17
100
AcDbEntity
  8
0
100
AcDbLine
 10
25.13602848671618
 20
-61.88791306325353
 30
-2.0
 11
24.252584461335932
 21
-61.02683012279944
 31
-2.0
  0
LINE
  5
163
330
17
100
AcDbEntity
  8
0
100
AcDbLine
 10
24.25258446133592
 20
-61.02683012279945
 30
-2.0
 11
24.25258446133592
 21
-61.02683012279945
 31
0.0
  0
LINE
  5
164
330
17
100
AcDbEntity
  8
0
100
AcDbLine
 10
24.157459337079498
 20
-61.01005699684981
 30
-2.0
 11
24.252584461335918
 21
-61.02683012279947
 31
-2.0
  0
LINE
  5
165
330
17
100
AcDbEntity
  8
0
100
AcDbLine
 10
24.1574593370795
 20
-61.0100569968498
 30
-2.0
 11
24.1574593370795
 21
-61.0100569968498
 31
0.0
  0
LINE
  5
166
330
17
100
AcDbEntity
  8
0
100
AcDbLine
 10
24.1574593370795
 20
-61.01005699684979
 30
-2.0
 11
5.788437833753429
 21
-63.188238652849996
 31
-2.0
  0
LINE
  5
167
330
17
100
AcDbEntity
  8
0
100
AcDbLine
 10
5.78843783375343
 20
-63.188238652849996
 30
-2.0
 11
5.78843783375343
 21
-63.188238652849996
 31
0.0
  0
LINE
  5
168
330
17
100
AcDbEntity
  8
0
100
AcDbLine
 10
5.788437833753431
 20
-63.18823865285001
 30
-2.0
 11
2.7771016407687843
 21
-63.18823865285001
 31
-2.0
  0
LINE
  5
169
330
17
100
AcDbEntity
  8
0
100
AcDbLine
 10
2.7771016407687843
 20
-63.18823865285001
 30
-2.0
 11
2.7771016407687843
 21
-63.18823865285001
 31
0.0
  0
ARC
  5
16A
330
17
100
AcDbEntity
  8
0
100
AcDbCircle
 10
-1.4287652517031317
 20
-63.83298032466795
 30
-2.0
 40
4.254998018867925
100
AcDbArc
 50
8.715355076372873
 51
171.28464492362713
  0
LINE
  5
16B
330
17
100
AcDbEntity
  8
0
100
AcDbLine
 10
-5.634632144175049
 20
-63.18823865285001
 30
-1.9999999999999996
 11
-5.634632144175049
 21
-63.18823865285001
 31
0.0
  0
LINE
  5
16C
330
17
100
AcDbEntity
  8
0
100
AcDbLine
 10
-5.634632144175049
 20
-63.18823865285001
 30
-2.0
 11
-13.65901480887047
 21
-63.18823865285001
 31
-2.0
  0
LINE
  5
16D
330
17
100
AcDbEntity
  8
0
100
AcDbLine
 10
-13.659014808870467
 20
-63.18823865285001
 30
-2.0
 11
-13.659014808870467
 21
-63.18823865285001
 31
0.0
  0
LINE
  5
16E
330
17
100
AcDbEntity
  8
0
100
AcDbLine
 10
-17.258133347838648
 20
-51.92586062187464
 30
-2.0
 11
-13.659014808870465
 21
-63.18823865285001
 31
-2.0
  0
LINE
  5
16F
330
17
100
AcDbEntity
  8
0
100
AcDbLine
 10
-17.25813334783865
 20
-51.92586062187464
 30
-2.0
 11
-17.25813334783865
 21
-51.92586062187464
 31
0.0
  0
LINE
  5
170
330
17
100
AcDbEntity
  8
0
100
AcDbLine
 10
-13.960766460386129
 20
-51.92586062187464
 30
-2.0
 11
-17.25813334783865
 21
-51.92586062187464
 31
-2.0
  0
LINE
  5
171
330
17
100
AcDbEntity
  8
0
100
AcDbLine
 10
-13.960766460386129
 20
-51.92586062187465
 30
-2.0
 11
-13.960766460386129
 21
-51.92586062187465
 31
0.0
  0
LINE
  5
172
330
17
100
AcDbEntity
  8
0
100
AcDbLine
 10
-13.9607664603862
 20
-51.92586062187465
 30
-2.0
 11
-13.754026908426065
 21
-47.48260155767187
 31
-2.0
  0
LINE
  5
173
330
17
100
AcDbEntity
  8
0
100
AcDbLine
 10
-13.754026908426063
 20
-47.48260155767187
 30
-2.0
 11
-13.754026908426063
 21
-47.48260155767187
 31
0.0
  0
LINE
  5
174
330
17
100
AcDbEntity
  8
0
100
AcDbLine
 10
-14.424951425225784
 20
-46.44732623165211
 30
-2.0
 11
-13.75402690842606
 21
-47.48260155767187
 31
-2.0
  0
LINE
  5
175
330
17
100
AcDbEntity
  8
0
100
AcDbLine
 10
-14.424951425225787
 20
-46.44732623165211
 30
-2.0
 11
-14.424951425225787
 21
-46.44732623165211
 31
0.0
  0
LINE
  5
176
330
17
100
AcDbEntity
  8
0
100
AcDbLine
 10
-14.424951425225785
 20
-46.44732623165211
 30
-2.0
 11
-55.47094555257118
 21
-46.44732623165211
 31
-2.0
  0
LINE
  5
177
330
17
100
AcDbEntity
  8
0
100
AcDbLine
 10
-55.47094555257118
 20
-46.44732623165211
 30
-2.0
 11
-55.47094555257118
 21
-46.44732623165211
 31
0.0
  0
LINE
  5
178
330
17
100
AcDbEntity
  8
0
100
AcDbLine
 10
-58.566864519855955
 20
-42.74448971991396
 30
-2.0
 11
-55.47094555257118
 21
-46.44732623165211
 31
-2.0
  0
LINE
  5
179
330
17
100
AcDbEntity
  8
0
100
AcDbLine
 10
-58.56686451985596
 20
-42.74448971991396
 30
-2.0
 11
-58.56686451985596
 21
-42.74448971991396
 31
0.0
  0
LINE
  5
17A
330
17
100
AcDbEntity
  8
0
100
AcDbLine
 10
-58.566864519855976
 20
-42.74448971991397
 30
-2.000000000000001
 11
-59.58179431035127
 21
-41.27144348367832
 31
-2.000000000000001
  0
LINE
  5
17B
330
17
100
AcDbEntity
  8
0
100
AcDbLine
 10
-59.58179431035125
 20
-41.271443483678304
 30
-2.0
 11
-59.58179431035125
 21
-41.271443483678304
 31
0.0
  0
LINE
  5
17C
330
17
100
AcDbEntity
  8
0
100
AcDbLine
 10
-59.23945489455362
 20
-37.20709356387014
 30
-2.0
 11
-59.58179431033944
 21
-41.271443483679306
 31
-2.0
  0
LINE
  5
17D
330
17
100
AcDbEntity
  8
0
100
AcDbLine
 10
-59.2394548945536
 20
-37.20709356387014
 30
-2.0000000000000027
 11
-59.2394548945536
 21
-37.20709356387014
 31
-2.6645352591003757e-15
  0
ARC
  5
17E
330
17
100
AcDbEntity
  8
0
100
AcDbCircle
 10
-57.49370749812915
 20
-33.32671031366827
 30
-2.0
 40
4.254998018867925
100
AcDbArc
 50
-114.22252571742524
 51
104.5932299065079
  0
LINE
  5
17F
330
17
100
AcDbEntity
  8
0
100
AcDbLine
 10
-58.56577557315926
 20
-29.208983005665566
 30
-1.9999999999999991
 11
-58.56577557315926
 21
-29.208983005665566
 31
8.881784197001252e-16
  0
LINE
  5
180
330
17
100
AcDbEntity
  8
0
100
AcDbLine
 10
-58.01525578840462
 20
-22.673057138394864
 30
-2.0
 11
-58.56577557315927
 21
-29.208983005665566
 31
-2.0
  0
LINE
  5
181
330
17
100
AcDbEntity
  8
0
100
AcDbLine
 10
-58.01525578840456
 20
-22.673057138394867
 30
-2.0
 11
-58.01525578840456
 21
-22.673057138394867
 31
0.0
  0
LINE
  5
182
330
17
100
AcDbEntity
  8
0
100
AcDbLine
 10
-57.6889623679889
 20
-15.05
 30
-2.0
 11
-58.01525578840455
 21
-22.673057138394867
 31
-2.0
  0
LINE
  5
183
330
17
100
AcDbEntity
  8
0
100
AcDbLine
 10
-57.688962367988914
 20
-15.05
 30
-2.0
 11
-57.688962367988914
 21
-15.05
 31
0.0
  0
LINE
  5
184
330
17
100
AcDbEntity
  8
0
100
AcDbLine
 10
-57.68896236798912
 20
-15.050000000000006
 30
-2.0
 11
-57.68896236798892
 21
3.0500000000000007
 31
-2.0
  0
LINE
  5
185
330
17
100
AcDbEntity
  8
0
100
AcDbLine
 10
-57.688962367988914
 20
3.0500000000000007
 30
-2.0
 11
-57.688962367988914
 21
3.0500000000000007
 31
0.0
  0
LINE
  5
186
330
17
100
AcDbEntity
  8
0
100
AcDbLine
 10
-57.68896236798891
 20
3.0500000000000007
 30
-2.0
 11
-58.01525578840456
 21
10.673057138394867
 31
-2.0
  0
LINE
  5
187
330
17
100
AcDbEntity
  8
0
100
AcDbLine
 10
-58.01525578840456
 20
10.673057138394867
 30
-2.0
 11
-58.01525578840456
 21
10.673057138394867
 31
0.0
  0
LINE
  5
188
330
17
100
AcDbEntity
  8
0
100
AcDbLine
 10
-58.01525578840456
 20
10.673057138394867
 30
-2.0
 11
-59.58179431035124
 21
29.27144348367831
 31
-2.0
  0
LINE
  5
189
330
17
100
AcDbEntity
  8
0
100
AcDbLine
 10
-59.58179431035125
 20
29.271443483678308
 30
-2.0
 11
-59.58179431035125
 21
29.271443483678308
 31
0.0
  0
LINE
  5
18A
330
17
100
AcDbEntity
  8
0
100
AcDbLine
 10
-59.5817943103512
 20
29.27144348367831
 30
-2.0
 11
-59.58957913562011
 21
29.363867120857655
 31
-2.0
  0
LINE
  5
18B
330
17
100
AcDbEntity
  8
0
100
AcDbLine
 10
-59.589579135620056
 20
29.363867120857655
 30
-2.0
 11
-59.589579135620056
 21
29.363867120857655
 31
0.0
  0
LINE
  5
18C
330
17
100
AcDbEntity
  8
0
100
AcDbLine
 10
-59.59049730213983
 20
29.37476785226321
 30
-2.0
 11
-59.58957913562006
 21
29.363867120857655
 31
-2.0
  0
LINE
  5
18D
330
17
100
AcDbEntity
  8
0
100
AcDbLine
 10
-59.59049730213984
 20
29.374767852263215
 30
-2.0
 11
-59.59049730213984
 21
29.374767852263215
 31
0.0
  0
LINE
  5
18E
330
17
100
AcDbEntity
  8
0
100
AcDbLine
 10
-60.119094607523316
 20
33.57878351790797
 30
-2.0
 11
-59.59049730213984
 21
29.37476785226321
 31
-2.0
  0
LINE
  5
18F
330
17
100
AcDbEntity
  8
0
100
AcDbLine
 10
-60.119094607523316
 20
33.578783517907965
 30
-2.0
 11
-60.119094607523316
 21
33.578783517907965
 31
0.0
  0
LINE
  5
190
330
17
100
AcDbEntity
  8
0
100
AcDbLine
 10
-60.293276233371415
 20
38.40362212279494
 30
-1.9999999999999996
 11
-60.119094607523316
 21
33.578783517907965
 31
-1.9999999999999996
  0
LINE
  5
191
330
17
100
AcDbEntity
  8
0
100
AcDbLine
 10
-60.293276233371415
 20
38.403622122794935
 30
-2.0
 11
-60.293276233371415
 21
38.403622122794935
 31
0.0
  0
LINE
  5
192
330
17
100
AcDbEntity
  8
0
100
AcDbLine
 10
-60.29327623337048
 20
38.403622122794985
 30
-2.0
 11
-61.08203443648384
 21
54.07868593378968
 31
-2.0
  0
LINE
  5
193
330
17
100
AcDbEntity
  8
0
100
AcDbLine
 10
-61.08203443648383
 20
54.07868593378968
 30
-2.0
 11
-61.08203443648383
 21
54.07868593378968
 31
0.0
  0
LINE
  5
194
330
17
100
AcDbEntity
  8
0
100
AcDbLine
 10
-61.5770666661353
 20
61.48083550797023
 30
-2.0
 11
-61.08203443648383
 21
54.07868593378968
 31
-2.0
  0
LINE
  5
195
330
17
100
AcDbEntity
  8
0
100
AcDbLine
 10
-61.5770666661353
 20
61.48083550797023
 30
-2.0
 11
-61.5770666661353
 21
61.48083550797023
 31
0.0
  0
LINE
  5
196
330
17
100
AcDbEntity
  8
0
100
AcDbLine
 10
-61.5770666661345
 20
61.4808355079703
 30
-2.000000000000001
 11
-61.87526147552719
 21
64.90224466438902
 31
-2.000000000000001
  0
LINE
  5
197
330
17
100
AcDbEntity
  8
0
100
AcDbLine
 10
-61.87526147552719
 20
64.90224466438902
 30
-2.0
 11
-61.87526147552719
 21
64.90224466438902
 31
0.0
  0
ARC
  5
198
330
17
100
AcDbEntity
  8
0
100
AcDbCircle
 10
-59.87538340133163
 20
68.65797306630014
 30
-2.0
 40
4.254998018867925
100
AcDbArc
 50
-118.03473902679269
 51
115.8257880017939
  0
LINE
  5
199
330
17
100
AcDbEntity
  8
0
100
AcDbLine
 10
-61.729014891527115
 20
72.48799375020324
 30
-2.0
 11
-61.729014891527115
 21
72.48799375020324
 31
0.0
  0
LINE
  5
19A
330
17
100
AcDbEntity
  8
0
100
AcDbLine
 10
-58.321686540080265
 20
75.62298426629742
 30
-2.0
 11
-61.72901489152712
 21
72.48799375020326
 31
-2.0
  0
LINE
  5
19B
330
17
100
AcDbEntity
  8
0
100
AcDbLine
 10
-58.321686540080265
 20
75.62298426629742
 30
-2.0
 11
-58.321686540080265
 21
75.62298426629742
 31
0.0
  0
LINE
  5
19C
330
17
100
AcDbEntity
  8
0
100
AcDbLine
 10
-58.321686540080265
 20
75.62298426629742
 30
-2.0
 11
-20.104737576632672
 21
75.62298426629742
 31
-2.0
  0
LINE
  5
19D
330
17
100
AcDbEntity
  8
0
100
AcDbLine
 10
-20.104737576632672
 20
75.62298426629742
 30
-2.0
 11
-20.104737576632672
 21
75.62298426629742
 31
0.0
  0
LINE
  5
19E
330
17
100
AcDbEntity
  8
0
100
AcDbLine
 10
-20.104737576632683
 20
75.62298426629742
 30
-2.0000000000000018
 11
-16.43594995831554
 21
81.62298426629742
 31
-2.0000000000000018
  0
LINE
  5
19F
330
17
100
AcDbEntity
  8
0
100
AcDbLine
 10
-16.43594995831553
 20
81.62298426629742
 30
-2.0
 11
-16.43594995831553
 21
81.62298426629742
 31
0.0
  0
LINE
  5
1A0
330
17
100
AcDbEntity
  8
0
100
AcDbLine
 10
-9.97504541194527
 20
81.62298426629744
 30
-2.0
 11
-16.435949958315533
 21
81.62298426629744
 31
-2.0
  0
LINE
  5
1A1
330
17
100
AcDbEntity
  8
0
100
AcDbLine
 10
-9.97504541194527
 20
81.62298426629744
 30
-2.0
 11
-9.97504541194527
 21
81.62298426629744
 31
0.0
  0
ARC
  5
1A2
330
17
100
AcDbEntity
  8
0
100
AcDbCircle
 10
-6.592180649537833
 20
84.2039209450697
 30
-2.0
 40
4.254998018867925
100
AcDbArc
 50
-142.65839316826452
 51
-37.341606831735504
  0
LINE
  5
1A3
330
17
100
AcDbEntity
  8
0
100
AcDbLine
 10
-3.2093158871303924
 20
81.62298426629744
 30
-2.0
 11
-3.2093158871303924
 21
81.62298426629744
 31
0.0
  0
LINE
  5
1A4
330
17
100
AcDbEntity
  8
0
100
AcDbLine
 10
0.9507159450866425
 20
81.62298426629744
 30
-2.0
 11
-3.2093158871303924
 21
81.62298426629744
 31
-2.0
  0
LINE
  5
1A5
330
17
100
AcDbEntity
  8
0
100
AcDbLine
 10
0.9507159450866407
 20
81.62298426629742
 30
-2.0
 11
0.9507159450866407
 21
81.62298426629742
 31
0.0
  0
LINE
  5
1A6
330
17
100
AcDbEntity
  8
0
100
AcDbLine
 10
4.457123864807016
 20
84.44298426629744
 30
-2.0
 11
0.9507159450866283
 21
81.62298426629744
 31
-2.0
  0
LINE
  5
1A7
330
17
100
AcDbEntity
  8
0
100
AcDbLine
 10
4.457123864807025
 20
84.44298426629742
 30
-2.0
 11
4.457123864807025
 21
84.44298426629742
 31
0.0
  0
LINE
  5
1A8
330
17
100
AcDbEntity
  8
0
100
AcDbLine
 10
4.4571238648070235
 20
84.4429842662974
 30
-2.0
 11
21.27762358195214
 21
84.4429842662974
 31
-2.0
  0
LINE
  5
1A9
330
17
100
AcDbEntity
  8
0
100
AcDbLine
 10
21.27762358195214
 20
84.44298426629742
 30
-2.0
 11
21.27762358195214
 21
84.44298426629742
 31
0.0
  0
LINE
  5
1AA
330
17
100
AcDbEntity
  8
0
100
AcDbLine
 10
21.277623581952124
 20
84.4429842662974
 30
-2.0000000000000018
 11
22.576521660015086
 21
81.62298426629741
 31
-2.0000000000000018
  0
LINE
  5
1AB
330
17
100
AcDbEntity
  8
0
100
AcDbLine
 10
22.576521660015104
 20
81.62298426629742
 30
-2.0
 11
22.576521660015104
 21
81.62298426629742
 31
0.0
  0
LINE
  5
1AC
330
17
100
AcDbEntity
  8
0
100
AcDbLine
 10
57.211909047306335
 20
81.62298426629744
 30
-2.0
 11
22.576521660015104
 21
81.62298426629744
 31
-2.0
  0
LINE
  5
1AD
330
17
100
AcDbEntity
  8
0
100
AcDbLine
 10
57.211909047306335
 20
81.62298426629742
 30
-2.0
 11
57.211909047306335
 21
81.62298426629742
 31
0.0
  0
LINE
  5
1AE
330
17
100
AcDbEntity
  8
0
100
AcDbLine
 10
57.21190904730634
 20
81.62298426629744
 30
-2.0
 11
67.80867178793329
 21
76.36534363740984
 31
-2.0
  0
LINE
  5
1AF
330
17
100
AcDbEntity
  8
0
100
AcDbLine
 10
67.80867178793328
 20
76.36534363740982
 30
-2.0
 11
67.80867178793328
 21
76.36534363740982
 31
0.0
  0
LINE
  5
1B0
330
17
100
AcDbEntity
  8
0
100
AcDbLine
 10
72.80867178793328
 20
70.36534363740982
 30
-2.0
 11
67.80867178793328
 21
76.36534363740982
 31
-2.0
  0
LINE
  5
1B1
330
17
100
AcDbEntity
  8
0
100
AcDbLine
 10
72.80867178793328
 20
70.36534363740982
 30
-2.0
 11
72.80867178793328
 21
70.36534363740982
 31
0.0
  0
LINE
  5
1B2
330
17
100
AcDbEntity
  8
0
100
AcDbLine
 10
72.80867178793326
 20
70.36534363740982
 30
-2.0
 11
74.07799446577617
 21
67.82669296878896
 31
-2.0
  0
LINE
  5
1B3
330
17
100
AcDbEntity
  8
0
100
AcDbLine
 10
74.07799446577617
 20
67.82669296878896
 30
-2.0
 11
74.07799446577617
 21
67.82669296878896
 31
0.0
  0
ARC
  5
1B4
330
17
100
AcDbEntity
  8
0
100
AcDbCircle
 10
76.04064775487771
 20
64.05137838489678
 30
-2.0
 40
4.254998018867925
100
AcDbArc
 50
-242.53166520109664
 51
-64.33832837252103
  0
LINE
  5
1B5
330
17
100
AcDbEntity
  8
0
100
AcDbLine
 10
77.88330102723681
 20
60.216063918202515
 30
-1.9999999999999996
 11
77.88330102723681
 21
60.216063918202515
 31
8.881784197001252e-16
  0
LINE
  5
1B6
330
17
100
AcDbEntity
  8
0
100
AcDbLine
 10
77.8833010272368
 20
60.21606391820251
 30
-2.0
 11
79.17262372182215
 21
57.637413132383735
 31
-2.0
  0
LINE
  5
1B7
330
17
100
AcDbEntity
  8
0
100
AcDbLine
 10
79.17262372182216
 20
57.63741313238374
 30
-2.0
 11
79.17262372182216
 21
57.63741313238374
 31
0.0
  0
LINE
  5
1B8
330
17
100
AcDbEntity
  8
0
100
AcDbLine
 10
80.9382486316909
 20
53.03538997642099
 30
-2.0000000000000018
 11
79.17262372182218
 21
57.63741313238375
 31
-2.0000000000000018
  0
LINE
  5
1B9
330
17
100
AcDbEntity
  8
0
100
AcDbLine
 10
80.93824863169088
 20
53.03538997642099
 30
-2.0
 11
80.93824863169088
 21
53.03538997642099
 31
0.0
  0
LINE
  5
1BA
330
17
100
AcDbEntity
  8
0
100
AcDbLine
 10
85.43824173746414
 20
37.44692872791792
 30
-2.0
 11
80.93824863169088
 21
53.03538997642099
 31
-2.0
  0
LINE
  5
1BB
330
17
100
AcDbEntity
  8
0
100
AcDbLine
 10
85.43824173746414
 20
37.44692872791792
 30
-2.0
 11
85.43824173746414
 21
37.44692872791792
 31
0.0
  0
LINE
  5
1BC
330
17
100
AcDbEntity
  8
0
100
AcDbLine
 10
86.54815986680839
 20
32.087760792795294
 30
-2.0
 11
85.43824173746414
 21
37.44692872791792
 31
-2.0
  0
LINE
  5
1BD
330
17
100
AcDbEntity
  8
0
100
AcDbLine
 10
86.54815986680839
 20
32.087760792795294
 30
-2.0
 11
86.54815986680839
 21
32.087760792795294
 31
0.0
  0
LINE
  5
1BE
330
17
100
AcDbEntity
  8
0
100
AcDbLine
 10
88.87752756599644
 20
14.701094889393119
 30
-2.0
 11
86.54815986680839
 21
32.087760792795294
 31
-2.0
  0
LINE
  5
1BF
330
17
100
AcDbEntity
  8
0
100
AcDbLine
 10
88.87752756599644
 20
14.701094889393119
 30
-2.0
 11
88.87752756599644
 21
14.701094889393119
 31
0.0
  0
LINE
  5
1C0
330
17
100
AcDbEntity
  8
0
100
AcDbLine
 10
89.25609995557637
 20
8.950000000000001
 30
-2.0
 11
88.87752756599646
 21
14.70109488939312
 31
-2.0
  0
LINE
  5
1C1
330
17
100
AcDbEntity
  8
0
100
AcDbLine
 10
89.25609995557636
 20
8.95
 30
-2.0
 11
89.25609995557636
 21
8.95
 31
0.0
  0
LINE
  5
1C2
330
17
100
AcDbEntity
  8
0
100
AcDbLine
 10
89.25609995557636
 20
-8.95
 30
-2.0
 11
89.25609995557636
 21
8.95
 31
-2.0
  0
LINE
  5
1C3
330
17
100
AcDbEntity
  8
0
100
AcDbLine
 10
89.25609995557636
 20
-8.95
 30
-2.0
 11
89.25609995557636
 21
-8.95
 31
0.0
  0
LINE
  5
1C4
330
17
100
AcDbEntity
  8
0
100
AcDbLine
 10
89.25609995557636
 20
-8.95
 30
-2.0
 11
88.87752756599644
 21
-14.701094889393119
 31
-2.0
  0
LINE
  5
1C5
330
17
100
AcDbEntity
  8
0
100
AcDbLine
 10
88.87752756599644
 20
-14.701094889393119
 30
-2.0
 11
88.87752756599644
 21
-14.701094889393119
 31
0.0
  0
LINE
  5
1C6
330
17
100
AcDbEntity
  8
0
100
AcDbLine
 10
88.87752756599646
 20
-14.70109488939312
 30
-2.0
 11
88.27210797619162
 21
-19.22001568621735
 31
-2.0
  0
LINE
  5
1C7
330
17
100
AcDbEntity
  8
0
100
AcDbLine
 10
88.27210797619163
 20
-19.220015686217355
 30
-2.0
 11
88.27210797619163
 21
-19.220015686217355
 31
0.0
  0
ARC
  5
1C8
330
17
100
AcDbEntity
  8
0
100
AcDbCircle
 10
87.7628437164024
 20
-23.444427841094203
 30
-2.0
 40
4.254998018867925
100
AcDbArc
 50
-276.8739891416712
 51
-98.38746639009281
  0
LINE
  5
1C9
330
17
100
AcDbEntity
  8
0
100
AcDbLine
 10
87.14218151558433
 20
-27.65391552643616
 30
-2.0000000000000004
 11
87.14218151558433
 21
-27.65391552643616
 31
0.0
  0
LINE
  5
1CA
330
17
100
AcDbEntity
  8
0
100
AcDbLine
 10
87.14218151558431
 20
-27.65391552643616
 30
-2.0
 11
86.5481598668084
 21
-32.087760792795294
 31
-2.0
  0
LINE
  5
1CB
330
17
100
AcDbEntity
  8
0
100
AcDbLine
 10
86.54815986680839
 20
-32.087760792795294
 30
-2.0
 11
86.54815986680839
 21
-32.087760792795294
 31
0.0
  0
LINE
  5
1CC
330
17
100
AcDbEntity
  8
0
100
AcDbLine
 10
86.54815986680839
 20
-32.087760792795294
 30
-2.0
 11
78.56680011420903
 21
-39.13215027314399
 31
-2.0
  0
LINE
  5
1CD
330
17
100
AcDbEntity
  8
0
100
AcDbLine
 10
78.56680011420903
 20
-39.13215027314399
 30
-2.0
 11
78.56680011420903
 21
-39.13215027314399
 31
0.0
  0
LINE
  5
1CE
330
17
100
AcDbEntity
  8
0
100
AcDbLine
 10
78.49839582860649
 20
-39.204577875485384
 30
-2.0000000000000004
 11
78.56680011420903
 21
-39.13215027314399
 31
-2.0000000000000004
  0
LINE
  5
1CF
330
17
100
AcDbEntity
  8
0
100
AcDbLine
 10
78.49839582860649
 20
-39.20457787548539
 30
-2.0
 11
78.49839582860649
 21
-39.20457787548539
 31
0.0
  0
LINE
  5
1D0
330
17
100
AcDbEntity
  8
0
100
AcDbLine
 10
79.93371734117565
 20
-40.954764498872166
 30
-2.0000000000000004
 11
78.4983958286065
 21
-39.2045778754854
 31
-2.0000000000000004
  0
LINE
  5
1D1
330
17
100
AcDbEntity
  8
0
100
AcDbLine
 10
79.93371734117564
 20
-40.95476449887216
 30
-2.0
 11
79.93371734117564
 21
-40.95476449887216
 31
0.0
  0
LINE
  5
1D2
330
17
100
AcDbEntity
  8
0
100
AcDbLine
 10
88.7901022542687
 20
-48.38615381301369
 30
-2.0
 11
79.93371734117564
 21
-40.95476449887216
 31
-2.0
  0
LINE
  5
1D3
330
17
100
AcDbEntity
  8
0
100
AcDbLine
 10
88.7901022542687
 20
-48.38615381301369
 30
-2.0
 11
88.7901022542687
 21
-48.38615381301369
 31
0.0
  0
LINE
  5
1D4
330
17
100
AcDbEntity
  8
0
100
AcDbLine
 10
84.51364688187527
 20
-57.272581312202874
 30
-2.0
 11
88.79010225426907
 21
-48.38615381301289
 31
-2.0
  0
LINE
  5
1D5
330
17
100
AcDbEntity
  8
0
100
AcDbLine
 10
84.51364688187527
 20
-57.272581312202874
 30
-2.0
 11
84.51364688187527
 21
-57.272581312202874
 31
0.0
  0
LINE
  5
1D6
330
17
100
AcDbEntity
  8
0
100
AcDbLine
 10
84.51364688187527
 20
-57.272581312202874
 30
-2.0
 11
88.21938384326978
 21
-62.01570832704839
 31
-2.0
  0
LINE
  5
1D7
330
17
100
AcDbEntity
  8
0
100
AcDbLine
 10
88.21938384326978
 20
-62.01570832704837
 30
-2.0
 11
88.21938384326978
 21
-62.01570832704837
 31
0.0
  0
LINE
  5
1D8
330
17
100
AcDbEntity
  8
0
100
AcDbLine
 10
94.33805844669334
 20
-73.73722413941937
 30
-2.0000000000000004
 11
88.21938384326975
 21
-62.01570832704838
 31
-2.0000000000000004
  0
LINE
  5
1D9
330
17
100
AcDbEntity
  8
0
100
AcDbLine
 10
94.33805844669335
 20
-73.73722413941937
 30
-2.0
 11
94.33805844669335
 21
-73.73722413941937
 31
0.0
  0
LINE
  5
1DA
330
17
100
AcDbEntity
  8
0
100
AcDbLine
 10
94.33805844669334
 20
-73.73722413941937
 30
-2.0
 11
93.59201192499104
 21
-77.64398550068414
 31
-2.0
  0
LINE
  5
1DB
330
17
100
AcDbEntity
  8
0
100
AcDbLine
 10
93.59201192499106
 20
-77.64398550068414
 30
-2.0
 11
93.59201192499106
 21
-77.64398550068414
 31
0.0
  0
LINE
  5
1DC
330
17
100
AcDbEntity
  8
0
100
AcDbLine
 10
93.59201192499104
 20
-77.64398550068411
 30
-2.0
 11
79.71934642605603
 21
-89.0063091614451
 31
-2.0
  0
LINE
  5
1DD
330
17
100
AcDbEntity
  8
0
100
AcDbLine
 10
79.71934642605605
 20
-89.00630916144513
 30
-2.0
 11
79.71934642605605
 21
-89.00630916144513
 31
0.0
  0
LINE
  5
1DE
330
17
100
AcDbEntity
  8
0
100
AcDbLine
 10
76.64805359266046
 20
-89.65688311791953
 30
-2.0
 11
79.71934642605605
 21
-89.00630916144515
 31
-2.0
  0
LINE
  5
1DF
330
17
100
AcDbEntity
  8
0
100
AcDbLine
 10
76.64805359266046
 20
-89.65688311791953
 30
-2.0
 11
76.64805359266046
 21
-89.65688311791953
 31
0.0
  0
LINE
  5
1E0
330
17
100
AcDbEntity
  8
0
100
AcDbLine
 10
76.64805359266047
 20
-89.65688311791955
 30
-1.9999999999999991
 11
74.84453248338468
 21
-90.46527948782197
 31
-1.9999999999999991
  0
LINE
  5
1E1
330
17
100
AcDbEntity
  8
0
100
AcDbLine
 10
74.84453248338467
 20
-90.46527948782196
 30
-2.0
 11
74.84453248338467
 21
-90.46527948782196
 31
0.0
  0
LINE
  5
1E2
330
17
100
AcDbEntity
  8
0
100
AcDbLine
 10
74.84453248338467
 20
-90.46527948782196
 30
-2.0
 11
60.89109563572042
 21
-102.67268191864915
 31
-2.0
  0
LINE
  5
1E3
330
17
100
AcDbEntity
  8
0
100
AcDbLine
 10
60.89109563572042
 20
-102.67268191864915
 30
-2.0
 11
60.89109563572042
 21
-102.67268191864915
 31
0.0
  0
LINE
  5
1E4
330
17
100
AcDbEntity
  8
0
100
AcDbLine
 10
55.18478526286066
 20
-103.07935047403794
 30
-2.0
 11
60.89109563572042
 21
-102.67268191864915
 31
-2.0
  0
LINE
  5
1E5
330
17
100
AcDbEntity
  8
0
100
AcDbLine
 10
55.18478526286066
 20
-103.07935047403792
 30
-2.0
 11
55.18478526286066
 21
-103.07935047403792
 31
0.0
  0
LINE
  5
1E6
330
17
100
AcDbEntity
  8
0
100
AcDbLine
 10
51.122805624089104
 20
-100.62933799827155
 30
-2.0
 11
55.18478526286068
 21
-103.07935047403791
 31
-2.0
  0
LINE
  5
1E7
330
17
100
AcDbEntity
  8
0
100
AcDbLine
 10
51.1228056240891
 20
-100.62933799827154
 30
-2.0
 11
51.1228056240891
 21
-100.62933799827154
 31
0.0
  0
LINE
  5
1E8
330
17
100
AcDbEntity
  8
0
100
AcDbLine
 10
48.731874295760534
 20
-97.33850334487195
 30
-2.0
 11
51.1228056240891
 21
-100.62933799827155
 31
-2.0
  0
LINE
  5
1E9
330
17
100
AcDbEntity
  8
0
100
AcDbLine
 10
48.731874295760534
 20
-97.33850334487194
 30
-2.0000000000000004
 11
48.731874295760534
 21
-97.33850334487194
 31
-8.881784197001252e-16
  0
ARC
  5
1EA
330
17
100
AcDbEntity
  8
0
100
AcDbCircle
 10
48.05454856042901
 20
-93.13776079279529
 30
-2.0
 40
4.254998018867925
100
AcDbArc
 50
-80.84048964749735
 51
124.88768489904885
  0
ENDSEC
  0
SECTION
  2
OBJECTS
  0
DICTIONARY
  5
A
330
0
100
AcDbDictionary
281
1
  3
ACAD_COLOR
350
B
  3
ACAD_GROUP
350
C
  3
ACAD_LAYOUT
350
D
  3
ACAD_MATERIAL
350
E
  3
ACAD_MLEADERSTYLE
350
F
  3
ACAD_MLINESTYLE
350
10
  3
ACAD_PLOTSETTINGS
350
11
  3
ACAD_PLOTSTYLENAME
350
12
  3
ACAD_SCALELIST
350
14
  3
ACAD_TABLESTYLE
350
15
  3
ACAD_VISUALSTYLE
350
16
  3
EZDXF_META
350
2D
  0
DICTIONARY
  5
B
330
A
100
AcDbDictionary
281
1
  0
DICTIONARY
  5
C
330
A
100
AcDbDictionary
281
1
  0
DICTIONARY
  5
D
330
A
100
AcDbDictionary
281
1
  3
Model
350
1A
  3
Layout1
350
1E
  0
DICTIONARY
  5
E
330
A
100
AcDbDictionary
281
1
  3
ByBlock
350
1F
  3
ByLayer
350
20
  3
Global
350
21
  0
DICTIONARY
  5
F
330
A
100
AcDbDictionary
281
1
  3
Standard
350
2C
  0
DICTIONARY
  5
10
330
A
100
AcDbDictionary
281
1
  3
Standard
350
22
  0
DICTIONARY
  5
11
330
A
100
AcDbDictionary
281
1
  0
ACDBDICTIONARYWDFLT
  5
12
330
A
100
AcDbDictionary
281
1
  3
Normal
350
13
100
AcDbDictionaryWithDefault
340
13
  0
ACDBPLACEHOLDER
  5
13
330
12
  0
DICTIONARY
  5
14
330
A
100
AcDbDictionary
281
1
  0
DICTIONARY
  5
15
330
A
100
AcDbDictionary
281
1
  0
DICTIONARY
  5
16
330
A
100
AcDbDictionary
281
1
  0
LAYOUT
  5
1A
330
D
100
AcDbPlotSettings
  1

  2
Adobe PDF
  4
A3
  6

 40
7.5
 41
20.0
 42
7.5
 43
20.0
 44
420.0
 45
297.0
 46
0.0
 47
0.0
 48
0.0
 49
0.0
140
0.0
141
0.0
142
1.0
143
1.0
 70
1024
 72
1
 73
1
 74
5
  7

 75
16
 76
0
 77
2
 78
300
147
1.0
148
0.0
149
0.0
100
AcDbLayout
  1
Model
 70
1
 71
0
 10
0.0
 20
0.0
 11
420.0
 21
297.0
 12
0.0
 22
0.0
 32
0.0
 14
1e+20
 24
1e+20
 34
1e+20
 15
-1e+20
 25
-1e+20
 35
-1e+20
146
0.0
 13
0.0
 23
0.0
 33
0.0
 16
1.0
 26
0.0
 36
0.0
 17
0.0
 27
1.0
 37
0.0
 76
1
330
17
  0
LAYOUT
  5
1E
330
D
100
AcDbPlotSettings
  1

  2
Adobe PDF
  4
A3
  6

 40
7.5
 41
20.0
 42
7.5
 43
20.0
 44
420.0
 45
297.0
 46
0.0
 47
0.0
 48
0.0
 49
0.0
140
0.0
141
0.0
142
1.0
143
1.0
 70
0
 72
1
 73
1
 74
5
  7

 75
16
 76
0
 77
2
 78
300
147
1.0
148
0.0
149
0.0
100
AcDbLayout
  1
Layout1
 70
1
 71
1
 10
0.0
 20
0.0
 11
420.0
 21
297.0
 12
0.0
 22
0.0
 32
0.0
 14
1e+20
 24
1e+20
 34
1e+20
 15
-1e+20
 25
-1e+20
 35
-1e+20
146
0.0
 13
0.0
 23
0.0
 33
0.0
 16
1.0
 26
0.0
 36
0.0
 17
0.0
 27
1.0
 37
0.0
 76
1
330
1B
  0
MATERIAL
  5
1F
102
{ACAD_REACTORS
330
E
102
}
330
E
100
AcDbMaterial
  1
ByBlock
  2

 70
0
 40
1.0
 71
1
 41
1.0
 91
-1023410177
 42
1.0
 72
1
  3

 73
1
 74
1
 75
1
 44
0.5
 73
0
 45
1.0
 46
1.0
 77
1
  4

 78
1
 79
1
170
1
 48
1.0
171
1
  6

172
1
173
1
174
1
140
1.0
141
1.0
175
1
  7

176
1
177
1
178
1
143
1.0
179
1
  8

270
1
271
1
272
1
145
1.0
146
1.0
273
1
  9

274
1
275
1
276
1
 42
1.0
 72
1
  3

 73
1
 74
1
 75
1
 94
63
  0
MATERIAL
  5
20
102
{ACAD_REACTORS
330
E
102
}
330
E
100
AcDbMaterial
  1
ByLayer
  2

 70
0
 40
1.0
 71
1
 41
1.0
 91
-1023410177
 42
1.0
 72
1
  3

 73
1
 74
1
 75
1
 44
0.5
 73
0
 45
1.0
 46
1.0
 77
1
  4

 78
1
 79
1
170
1
 48
1.0
171
1
  6

172
1
173
1
174
1
140
1.0
141
1.0
175
1
  7

176
1
177
1
178
1
143
1.0
179
1
  8

270
1
271
1
272
1
145
1.0
146
1.0
273
1
  9

274
1
275
1
276
1
 42
1.0
 72
1
  3

 73
1
 74
1
 75
1
 94
63
  0
MATERIAL
  5
21
102
{ACAD_REACTORS
330
E
102
}
330
E
100
AcDbMaterial
  1
Global
  2

 70
0
 40
1.0
 71
1
 41
1.0
 91
-1023410177
 42
1.0
 72
1
  3

 73
1
 74
1
 75
1
 44
0.5
 73
0
 45
1.0
 46
1.0
 77
1
  4

 78
1
 79
1
170
1
 48
1.0
171
1
  6

172
1
173
1
174
1
140
1.0
141
1.0
175
1
  7

176
1
177
1
178
1
143
1.0
179
1
  8

270
1
271
1
272
1
145
1.0
146
1.0
273
1
  9

274
1
275
1
276
1
 42
1.0
 72
1
  3

 73
1
 74
1
 75
1
 94
63
  0
MLINESTYLE
  5
22
102
{ACAD_REACTORS
330
10
102
}
330
10
100
AcDbMlineStyle
  2
Standard
 70
0
  3

 62
256
 51
90.0
 52
90.0
 71
2
 49
0.5
 62
256
  6
BYLAYER
 49
-0.5
 62
256
  6
BYLAYER
  0
MLEADERSTYLE
  5
2C
102
{ACAD_REACTORS
330
F
102
}
330
F
100
AcDbMLeaderStyle
179
2
170
2
171
1
172
0
 90
2
 40
0.0
 41
0.0
173
1
 91
-1056964608
 92
-2
290
1
 42
2.0
291
1
 43
8.0
  3
Standard
 44
4.0
300

342
29
174
1
175
1
176
0
178
1
 93
-1056964608
 45
4.0
292
0
297
0
 46
4.0
 94
-1056964608
 47
1.0
 49
1.0
140
1.0
294
1
141
0.0
177
0
142
1.0
295
0
296
0
143
3.75
271
0
272
9
273
9
  0
DICTIONARY
  5
2D
330
A
100
AcDbDictionary
281
1
  3
CREATED_BY_EZDXF
350
2E
  3
WRITTEN_BY_EZDXF
350
1ED
  0
DICTIONARYVAR
  5
2E
330
2D
100
DictionaryVariables
280
0
  1
0.16.4 @ 2021-08-24T23:22:53.392360+00:00
  0
DICTIONARYVAR
  5
1ED
330
2D
100
DictionaryVariables
280
0
  1
0.16.4 @ 2021-08-24T23:22:53.423362+00:00
  0
ENDSEC
  0
EOF
