  0
SECTION
  2
HEADER
  9
$ACADVER
  1
AC1027
  9
$ACADMAINTVER
 70
105
  9
$DWGCODEPAGE
  3
ANSI_1252
  9
$LASTSAVEDBY
  1
ezdxf
  9
$REQUIREDVERSIONS
160
0
  9
$INSBASE
 10
0.0
 20
0.0
 30
0.0
  9
$EXTMIN
 10
1e+20
 20
1e+20
 30
1e+20
  9
$EXTMAX
 10
-1e+20
 20
-1e+20
 30
-1e+20
  9
$LIMMIN
 10
0.0
 20
0.0
  9
$LIMMAX
 10
420.0
 20
297.0
  9
$ORTHOMODE
 70
0
  9
$REGENMODE
 70
1
  9
$FILLMODE
 70
1
  9
$QTEXTMODE
 70
0
  9
$MIRRTEXT
 70
1
  9
$LTSCALE
 40
1.0
  9
$ATTMODE
 70
1
  9
$TEXTSIZE
 40
2.5
  9
$TRACEWID
 40
1.0
  9
$TEXTSTYLE
  7
Standard
  9
$CLAYER
  8
0
  9
$CELTYPE
  6
ByLayer
  9
$CECOLOR
 62
256
  9
$CELTSCALE
 40
1.0
  9
$DISPSILH
 70
0
  9
$DIMSCALE
 40
1.0
  9
$DIMASZ
 40
2.5
  9
$DIMEXO
 40
0.625
  9
$DIMDLI
 40
3.75
  9
$DIMRND
 40
0.0
  9
$DIMDLE
 40
0.0
  9
$DIMEXE
 40
1.25
  9
$DIMTP
 40
0.0
  9
$DIMTM
 40
0.0
  9
$DIMTXT
 40
2.5
  9
$DIMCEN
 40
2.5
  9
$DIMTSZ
 40
0.0
  9
$DIMTOL
 70
0
  9
$DIMLIM
 70
0
  9
$DIMTIH
 70
0
  9
$DIMTOH
 70
0
  9
$DIMSE1
 70
0
  9
$DIMSE2
 70
0
  9
$DIMTAD
 70
1
  9
$DIMZIN
 70
8
  9
$DIMBLK
  1

  9
$DIMASO
 70
1
  9
$DIMSHO
 70
1
  9
$DIMPOST
  1

  9
$DIMAPOST
  1

  9
$DIMALT
 70
0
  9
$DIMALTD
 70
3
  9
$DIMALTF
 40
0.03937007874
  9
$DIMLFAC
 40
1.0
  9
$DIMTOFL
 70
1
  9
$DIMTVP
 40
0.0
  9
$DIMTIX
 70
0
  9
$DIMSOXD
 70
0
  9
$DIMSAH
 70
0
  9
$DIMBLK1
  1

  9
$DIMBLK2
  1

  9
$DIMSTYLE
  2
ISO-25
  9
$DIMCLRD
 70
0
  9
$DIMCLRE
 70
0
  9
$DIMCLRT
 70
0
  9
$DIMTFAC
 40
1.0
  9
$DIMGAP
 40
0.625
  9
$DIMJUST
 70
0
  9
$DIMSD1
 70
0
  9
$DIMSD2
 70
0
  9
$DIMTOLJ
 70
0
  9
$DIMTZIN
 70
8
  9
$DIMALTZ
 70
0
  9
$DIMALTTZ
 70
0
  9
$DIMUPT
 70
0
  9
$DIMDEC
 70
2
  9
$DIMTDEC
 70
2
  9
$DIMALTU
 70
2
  9
$DIMALTTD
 70
3
  9
$DIMTXSTY
  7
Standard
  9
$DIMAUNIT
 70
0
  9
$DIMADEC
 70
0
  9
$DIMALTRND
 40
0.0
  9
$DIMAZIN
 70
0
  9
$DIMDSEP
 70
44
  9
$DIMATFIT
 70
3
  9
$DIMFRAC
 70
0
  9
$DIMLDRBLK
  1

  9
$DIMLUNIT
 70
2
  9
$DIMLWD
 70
-2
  9
$DIMLWE
 70
-2
  9
$DIMTMOVE
 70
0
  9
$DIMFXL
 40
1.0
  9
$DIMFXLON
 70
0
  9
$DIMJOGANG
 40
0.785398163397
  9
$DIMTFILL
 70
0
  9
$DIMTFILLCLR
 70
0
  9
$DIMARCSYM
 70
0
  9
$DIMLTYPE
  6

  9
$DIMLTEX1
  6

  9
$DIMLTEX2
  6

  9
$DIMTXTDIRECTION
 70
0
  9
$LUNITS
 70
2
  9
$LUPREC
 70
4
  9
$SKETCHINC
 40
1.0
  9
$FILLETRAD
 40
10.0
  9
$AUNITS
 70
0
  9
$AUPREC
 70
2
  9
$MENU
  1
.
  9
$ELEVATION
 40
0.0
  9
$PELEVATION
 40
0.0
  9
$THICKNESS
 40
0.0
  9
$LIMCHECK
 70
0
  9
$CHAMFERA
 40
0.0
  9
$CHAMFERB
 40
0.0
  9
$CHAMFERC
 40
0.0
  9
$CHAMFERD
 40
0.0
  9
$SKPOLY
 70
0
  9
$TDCREATE
 40
2459846.9806828704
  9
$TDUCREATE
 40
2458532.153996898
  9
$TDUPDATE
 40
2459846.9806828704
  9
$TDUUPDATE
 40
2458532.1544311
  9
$TDINDWG
 40
0.0
  9
$TDUSRTIMER
 40
0.0
  9
$USRTIMER
 70
1
  9
$ANGBASE
 50
0.0
  9
$ANGDIR
 70
0
  9
$PDMODE
 70
0
  9
$PDSIZE
 40
0.0
  9
$PLINEWID
 40
0.0
  9
$SPLFRAME
 70
0
  9
$SPLINETYPE
 70
6
  9
$SPLINESEGS
 70
8
  9
$HANDSEED
  5
1AC
  9
$SURFTAB1
 70
6
  9
$SURFTAB2
 70
6
  9
$SURFTYPE
 70
6
  9
$SURFU
 70
6
  9
$SURFV
 70
6
  9
$UCSBASE
  2

  9
$UCSNAME
  2

  9
$UCSORG
 10
0.0
 20
0.0
 30
0.0
  9
$UCSXDIR
 10
1.0
 20
0.0
 30
0.0
  9
$UCSYDIR
 10
0.0
 20
1.0
 30
0.0
  9
$UCSORTHOREF
  2

  9
$UCSORTHOVIEW
 70
0
  9
$UCSORGTOP
 10
0.0
 20
0.0
 30
0.0
  9
$UCSORGBOTTOM
 10
0.0
 20
0.0
 30
0.0
  9
$UCSORGLEFT
 10
0.0
 20
0.0
 30
0.0
  9
$UCSORGRIGHT
 10
0.0
 20
0.0
 30
0.0
  9
$UCSORGFRONT
 10
0.0
 20
0.0
 30
0.0
  9
$UCSORGBACK
 10
0.0
 20
0.0
 30
0.0
  9
$PUCSBASE
  2

  9
$PUCSNAME
  2

  9
$PUCSORG
 10
0.0
 20
0.0
 30
0.0
  9
$PUCSXDIR
 10
1.0
 20
0.0
 30
0.0
  9
$PUCSYDIR
 10
0.0
 20
1.0
 30
0.0
  9
$PUCSORTHOREF
  2

  9
$PUCSORTHOVIEW
 70
0
  9
$PUCSORGTOP
 10
0.0
 20
0.0
 30
0.0
  9
$PUCSORGBOTTOM
 10
0.0
 20
0.0
 30
0.0
  9
$PUCSORGLEFT
 10
0.0
 20
0.0
 30
0.0
  9
$PUCSORGRIGHT
 10
0.0
 20
0.0
 30
0.0
  9
$PUCSORGFRONT
 10
0.0
 20
0.0
 30
0.0
  9
$PUCSORGBACK
 10
0.0
 20
0.0
 30
0.0
  9
$USERI1
 70
0
  9
$USERI2
 70
0
  9
$USERI3
 70
0
  9
$USERI4
 70
0
  9
$USERI5
 70
0
  9
$USERR1
 40
0.0
  9
$USERR2
 40
0.0
  9
$USERR3
 40
0.0
  9
$USERR4
 40
0.0
  9
$USERR5
 40
0.0
  9
$WORLDVIEW
 70
1
  9
$SHADEDGE
 70
3
  9
$SHADEDIF
 70
70
  9
$TILEMODE
 70
1
  9
$MAXACTVP
 70
64
  9
$PINSBASE
 10
0.0
 20
0.0
 30
0.0
  9
$PLIMCHECK
 70
0
  9
$PEXTMIN
 10
1e+20
 20
1e+20
 30
1e+20
  9
$PEXTMAX
 10
-1e+20
 20
-1e+20
 30
-1e+20
  9
$PLIMMIN
 10
0.0
 20
0.0
  9
$PLIMMAX
 10
420.0
 20
297.0
  9
$UNITMODE
 70
0
  9
$VISRETAIN
 70
1
  9
$PLINEGEN
 70
0
  9
$PSLTSCALE
 70
1
  9
$TREEDEPTH
 70
3020
  9
$CMLSTYLE
  2
Standard
  9
$CMLJUST
 70
0
  9
$CMLSCALE
 40
20.0
  9
$PROXYGRAPHICS
 70
1
  9
$MEASUREMENT
 70
1
  9
$CELWEIGHT
370
-1
  9
$ENDCAPS
280
0
  9
$JOINSTYLE
280
0
  9
$LWDISPLAY
290
0
  9
$INSUNITS
 70
6
  9
$HYPERLINKBASE
  1

  9
$STYLESHEET
  1

  9
$XEDIT
290
1
  9
$CEPSNTYPE
380
0
  9
$PSTYLEMODE
290
1
  9
$FINGERPRINTGUID
  2
{9E609AD6-9D75-461A-8029-DCCF00B33972}
  9
$VERSIONGUID
  2
{382E1CDD-CA7E-46C8-8841-05C464E9608E}
  9
$EXTNAMES
290
1
  9
$PSVPSCALE
 40
0.0
  9
$OLESTARTUP
290
0
  9
$SORTENTS
280
127
  9
$INDEXCTL
280
0
  9
$HIDETEXT
280
1
  9
$XCLIPFRAME
280
0
  9
$HALOGAP
280
0
  9
$OBSCOLOR
 70
257
  9
$OBSLTYPE
280
0
  9
$INTERSECTIONDISPLAY
280
0
  9
$INTERSECTIONCOLOR
 70
257
  9
$DIMASSOC
280
2
  9
$PROJECTNAME
  1

  9
$CAMERADISPLAY
290
0
  9
$LENSLENGTH
 40
50.0
  9
$CAMERAHEIGHT
 40
0.0
  9
$STEPSPERSEC
 40
24.0
  9
$STEPSIZE
 40
100.0
  9
$3DDWFPREC
 40
2.0
  9
$PSOLWIDTH
 40
0.005
  9
$PSOLHEIGHT
 40
0.08
  9
$LOFTANG1
 40
1.570796326795
  9
$LOFTANG2
 40
1.570796326795
  9
$LOFTMAG1
 40
0.0
  9
$LOFTMAG2
 40
0.0
  9
$LOFTPARAM
 70
7
  9
$LOFTNORMALS
280
1
  9
$LATITUDE
 40
37.795
  9
$LONGITUDE
 40
-122.394
  9
$NORTHDIRECTION
 40
0.0
  9
$TIMEZONE
 70
-8000
  9
$LIGHTGLYPHDISPLAY
280
1
  9
$TILEMODELIGHTSYNCH
280
1
  9
$CMATERIAL
347
20
  9
$SOLIDHIST
280
0
  9
$SHOWHIST
280
1
  9
$DWFFRAME
280
2
  9
$DGNFRAME
280
2
  9
$REALWORLDSCALE
290
1
  9
$INTERFERECOLOR
 62
256
  9
$CSHADOW
280
0
  9
$SHADOWPLANELOCATION
 40
0.0
  0
ENDSEC
  0
SECTION
  2
CLASSES
  0
CLASS
  1
ACDBDICTIONARYWDFLT
  2
AcDbDictionaryWithDefault
  3
ObjectDBX Classes
 90
0
 91
0
280
0
281
0
  0
CLASS
  1
SUN
  2
AcDbSun
  3
SCENEOE
 90
1153
 91
0
280
0
281
0
  0
CLASS
  1
VISUALSTYLE
  2
AcDbVisualStyle
  3
ObjectDBX Classes
 90
4095
 91
0
280
0
281
0
  0
CLASS
  1
MATERIAL
  2
AcDbMaterial
  3
ObjectDBX Classes
 90
1153
 91
0
280
0
281
0
  0
CLASS
  1
SCALE
  2
AcDbScale
  3
ObjectDBX Classes
 90
1153
 91
0
280
0
281
0
  0
CLASS
  1
TABLESTYLE
  2
AcDbTableStyle
  3
ObjectDBX Classes
 90
4095
 91
0
280
0
281
0
  0
CLASS
  1
MLEADERSTYLE
  2
AcDbMLeaderStyle
  3
ACDB_MLEADERSTYLE_CLASS
 90
4095
 91
0
280
0
281
0
  0
CLASS
  1
DICTIONARYVAR
  2
AcDbDictionaryVar
  3
ObjectDBX Classes
 90
0
 91
0
280
0
281
0
  0
CLASS
  1
CELLSTYLEMAP
  2
AcDbCellStyleMap
  3
ObjectDBX Classes
 90
1152
 91
0
280
0
281
0
  0
CLASS
  1
MENTALRAYRENDERSETTINGS
  2
AcDbMentalRayRenderSettings
  3
SCENEOE
 90
1024
 91
0
280
0
281
0
  0
CLASS
  1
ACDBDETAILVIEWSTYLE
  2
AcDbDetailViewStyle
  3
ObjectDBX Classes
 90
1025
 91
0
280
0
281
0
  0
CLASS
  1
ACDBSECTIONVIEWSTYLE
  2
AcDbSectionViewStyle
  3
ObjectDBX Classes
 90
1025
 91
0
280
0
281
0
  0
CLASS
  1
RASTERVARIABLES
  2
AcDbRasterVariables
  3
ISM
 90
0
 91
0
280
0
281
0
  0
CLASS
  1
ACDBPLACEHOLDER
  2
AcDbPlaceHolder
  3
ObjectDBX Classes
 90
0
 91
0
280
0
281
0
  0
CLASS
  1
LAYOUT
  2
AcDbLayout
  3
ObjectDBX Classes
 90
0
 91
0
280
0
281
0
  0
ENDSEC
  0
SECTION
  2
TABLES
  0
TABLE
  2
VPORT
  5
8
330
0
100
AcDbSymbolTable
 70
1
  0
VPORT
  5
23
330
8
100
AcDbSymbolTableRecord
100
AcDbViewportTableRecord
  2
*Active
 70
0
 10
0.0
 20
0.0
 11
1.0
 21
1.0
 12
0.0
 22
0.0
 13
0.0
 23
0.0
 14
0.5
 24
0.5
 15
0.5
 25
0.5
 16
0.0
 26
0.0
 36
1.0
 17
0.0
 27
0.0
 37
0.0
 40
1000.0
 41
1.34
 42
50.0
 43
0.0
 44
0.0
 50
0.0
 51
0.0
 71
0
 72
1000
 73
1
 74
3
 75
0
 76
0
 77
0
 78
0
281
0
 65
0
146
0.0
  0
ENDTAB
  0
TABLE
  2
LTYPE
  5
2
330
0
100
AcDbSymbolTable
 70
3
  0
LTYPE
  5
24
330
2
100
AcDbSymbolTableRecord
100
AcDbLinetypeTableRecord
  2
ByBlock
 70
0
  3

 72
65
 73
0
 40
0.0
  0
LTYPE
  5
25
330
2
100
AcDbSymbolTableRecord
100
AcDbLinetypeTableRecord
  2
ByLayer
 70
0
  3

 72
65
 73
0
 40
0.0
  0
LTYPE
  5
26
330
2
100
AcDbSymbolTableRecord
100
AcDbLinetypeTableRecord
  2
Continuous
 70
0
  3

 72
65
 73
0
 40
0.0
  0
ENDTAB
  0
TABLE
  2
LAYER
  5
1
330
0
100
AcDbSymbolTable
 70
2
  0
LAYER
  5
27
330
1
100
AcDbSymbolTableRecord
100
AcDbLayerTableRecord
  2
0
 70
0
 62
7
  6
Continuous
370
-3
390
13
347
21
  0
LAYER
  5
28
330
1
100
AcDbSymbolTableRecord
100
AcDbLayerTableRecord
  2
Defpoints
 70
0
 62
7
  6
Continuous
290
0
370
-3
390
13
347
21
  0
ENDTAB
  0
TABLE
  2
STYLE
  5
5
330
0
100
AcDbSymbolTable
 70
1
  0
STYLE
  5
29
330
5
100
AcDbSymbolTableRecord
100
AcDbTextStyleTableRecord
  2
Standard
 70
0
 40
0.0
 41
1.0
 50
0.0
 71
0
 42
2.5
  3
txt
  4

  0
ENDTAB
  0
TABLE
  2
VIEW
  5
7
330
0
100
AcDbSymbolTable
 70
0
  0
ENDTAB
  0
TABLE
  2
UCS
  5
6
330
0
100
AcDbSymbolTable
 70
0
  0
ENDTAB
  0
TABLE
  2
APPID
  5
3
330
0
100
AcDbSymbolTable
 70
3
  0
APPID
  5
2A
330
3
100
AcDbSymbolTableRecord
100
AcDbRegAppTableRecord
  2
ACAD
 70
0
  0
APPID
  5
1A9
330
3
100
AcDbSymbolTableRecord
100
AcDbRegAppTableRecord
  2
HATCHBACKGROUNDCOLOR
 70
0
  0
APPID
  5
1AA
330
3
100
AcDbSymbolTableRecord
100
AcDbRegAppTableRecord
  2
EZDXF
 70
0
  0
ENDTAB
  0
TABLE
  2
DIMSTYLE
  5
4
330
0
100
AcDbSymbolTable
 70
1
100
AcDbDimStyleTable
  0
DIMSTYLE
105
2B
330
4
100
AcDbSymbolTableRecord
100
AcDbDimStyleTableRecord
  2
Standard
 70
0
 40
1.0
 41
2.5
 42
0.625
 43
3.75
 44
1.25
 45
0.0
 46
0.0
 47
0.0
 48
0.0
 49
2.5
140
2.5
141
2.5
142
0.0
143
0.03937007874
144
1.0
145
0.0
146
1.0
147
0.625
148
0.0
 69
0
 70
0
 71
0
 72
0
 73
0
 74
0
 75
0
 76
0
 77
1
 78
8
 79
3
170
0
171
3
172
1
173
0
174
0
175
0
176
0
177
0
178
0
179
2
271
2
272
2
273
2
274
3
275
0
276
0
277
2
278
44
279
0
280
0
281
0
282
0
283
0
284
8
285
0
286
0
288
0
289
3
290
0
371
-2
372
-2
  0
ENDTAB
  0
TABLE
  2
BLOCK_RECORD
  5
9
330
0
100
AcDbSymbolTable
 70
2
  0
BLOCK_RECORD
  5
17
330
9
100
AcDbSymbolTableRecord
100
AcDbBlockTableRecord
  2
*Model_Space
340
1A
 70
0
280
1
281
0
  0
BLOCK_RECORD
  5
1B
330
9
100
AcDbSymbolTableRecord
100
AcDbBlockTableRecord
  2
*Paper_Space
340
1E
 70
0
280
1
281
0
  0
ENDTAB
  0
ENDSEC
  0
SECTION
  2
BLOCKS
  0
BLOCK
  5
18
330
17
100
AcDbEntity
  8
0
100
AcDbBlockBegin
  2
*Model_Space
 70
0
 10
0.0
 20
0.0
 30
0.0
  3
*Model_Space
  1

  0
ENDBLK
  5
19
330
17
100
AcDbEntity
  8
0
100
AcDbBlockEnd
  0
BLOCK
  5
1C
330
1B
100
AcDbEntity
  8
0
100
AcDbBlockBegin
  2
*Paper_Space
 70
0
 10
0.0
 20
0.0
 30
0.0
  3
*Paper_Space
  1

  0
ENDBLK
  5
1D
330
1B
100
AcDbEntity
  8
0
100
AcDbBlockEnd
  0
ENDSEC
  0
SECTION
  2
ENTITIES
  0
LINE
  5
2F
330
17
100
AcDbEntity
  8
0
100
AcDbLine
 10
-102.80270949191109
 20
-54.56204358076546
 30
-5.0
 11
-102.780120138574
 21
-54.65439547782589
 31
-5.0
  0
LINE
  5
30
330
17
100
AcDbEntity
  8
0
100
AcDbLine
 10
-102.78012013857398
 20
-54.65439547782587
 30
-5.0
 11
-101.56150451195637
 21
-55.07811583869532
 31
-5.0
  0
LINE
  5
31
330
17
100
AcDbEntity
  8
0
100
AcDbLine
 10
-101.56150451195637
 20
-55.07811583869532
 30
-5.0
 11
-103.181972223417
 21
-56.2980489021944
 31
-5.0
  0
LINE
  5
32
330
17
100
AcDbEntity
  8
0
100
AcDbLine
 10
-103.181972223417
 20
-56.29804890219441
 30
-5.0
 11
-120.76276765594096
 21
-70.67109517437275
 31
-5.0
  0
LINE
  5
33
330
17
100
AcDbEntity
  8
0
100
AcDbLine
 10
-120.837154282488
 20
-70.73190939802336
 30
-5.0
 11
-120.7627676559409
 21
-70.6710951743728
 31
-5.0
  0
LINE
  5
34
330
17
100
AcDbEntity
  8
0
100
AcDbLine
 10
-120.83715428248793
 20
-70.73190939802348
 30
-5.0
 11
-103.8514668407996
 21
-92.00330647233568
 31
-5.0
  0
LINE
  5
35
330
17
100
AcDbEntity
  8
0
100
AcDbLine
 10
-103.85146684079959
 20
-92.00330647233568
 30
-5.0
 11
-94.59559424874845
 21
-96.69415989487351
 31
-5.0
  0
LINE
  5
36
330
17
100
AcDbEntity
  8
0
100
AcDbLine
 10
-65.19159096498556
 20
-108.08334976307006
 30
-5.0
 11
-94.59559424874845
 21
-96.69415989487351
 31
-5.0
  0
LINE
  5
37
330
17
100
AcDbEntity
  8
0
100
AcDbLine
 10
-65.19159096498558
 20
-108.08334976307006
 30
-5.0
 11
-55.35132424835806
 21
-101.84442091202123
 31
-5.0
  0
LINE
  5
38
330
17
100
AcDbEntity
  8
0
100
AcDbLine
 10
-49.796810748942136
 20
-97.82142821070637
 30
-5.0
 11
-55.35132424835807
 21
-101.84442091202122
 31
-5.0
  0
LINE
  5
39
330
17
100
AcDbEntity
  8
0
100
AcDbLine
 10
-49.79681074894212
 20
-97.82142821070636
 30
-5.0
 11
-41.01923698868424
 21
-98.13591457604245
 31
-5.0
  0
LINE
  5
3A
330
17
100
AcDbEntity
  8
0
100
AcDbLine
 10
-41.01923698868612
 20
-98.13591457603958
 30
-5.0
 11
-27.647410699839106
 21
-89.59103894601341
 31
-5.0
  0
LINE
  5
3B
330
17
100
AcDbEntity
  8
0
100
AcDbLine
 10
-6.531569761181611
 20
-70.11128993450079
 30
-5.0
 11
-27.647410699839117
 21
-89.5910389460134
 31
-5.0
  0
LINE
  5
3C
330
17
100
AcDbEntity
  8
0
100
AcDbLine
 10
15.928236574102366
 20
-70.11128993450079
 30
-5.0
 11
-6.531569761181608
 21
-70.11128993450079
 31
-5.0
  0
LINE
  5
3D
330
17
100
AcDbEntity
  8
0
100
AcDbLine
 10
15.92823657410236
 20
-70.1112899345008
 30
-5.0
 11
16.767801596599554
 21
-68.11129146655179
 31
-5.0
  0
LINE
  5
3E
330
17
100
AcDbEntity
  8
0
100
AcDbLine
 10
22.828189959387274
 20
-52.515623748901355
 30
-5.0
 11
16.767801596599547
 21
-68.11129146655179
 31
-5.0
  0
LINE
  5
3F
330
17
100
AcDbEntity
  8
0
100
AcDbLine
 10
22.828189959387274
 20
-52.515623748901355
 30
-5.0
 11
54.26183839572468
 21
-52.515623748901355
 31
-5.0
  0
LINE
  5
40
330
17
100
AcDbEntity
  8
0
100
AcDbLine
 10
54.26183839572468
 20
-52.51562374890135
 30
-5.0
 11
63.54759687653488
 21
-42.37340197191675
 31
-5.0
  0
LINE
  5
41
330
17
100
AcDbEntity
  8
0
100
AcDbLine
 10
63.818862020440676
 20
-41.338126645897
 30
-5.0
 11
63.54759687653488
 21
-42.37340197191675
 31
-5.0
  0
LINE
  5
42
330
17
100
AcDbEntity
  8
0
100
AcDbLine
 10
63.537951452853726
 20
-26.40585743186181
 30
-5.0
 11
63.818862020436256
 21
-41.33812664589708
 31
-5.0
  0
LINE
  5
43
330
17
100
AcDbEntity
  8
0
100
AcDbLine
 10
63.26297109398122
 20
-23.366305870103105
 30
-5.000000000000001
 11
63.537951452854465
 21
-26.405857431861797
 31
-5.000000000000001
  0
LINE
  5
44
330
17
100
AcDbEntity
  8
0
100
AcDbLine
 10
63.2629710939812
 20
-23.366305870103105
 30
-5.0
 11
62.885191399397584
 21
-15.149999999999999
 31
-5.0
  0
LINE
  5
45
330
17
100
AcDbEntity
  8
0
100
AcDbLine
 10
62.88519139939758
 20
3.1499999999999986
 30
-5.0
 11
62.88519139939758
 21
-15.149999999999999
 31
-5.0
  0
LINE
  5
46
330
17
100
AcDbEntity
  8
0
100
AcDbLine
 10
62.885191399397584
 20
3.1499999999999986
 30
-5.0
 11
63.262971093981186
 21
11.366305870103101
 31
-5.0
  0
LINE
  5
47
330
17
100
AcDbEntity
  8
0
100
AcDbLine
 10
63.26297109398122
 20
11.366305870103101
 30
-5.000000000000001
 11
63.53795145285444
 21
14.405857431861612
 31
-5.000000000000001
  0
LINE
  5
48
330
17
100
AcDbEntity
  8
0
100
AcDbLine
 10
63.81704489014188
 20
29.241534057544776
 30
-5.0
 11
63.53795145285485
 21
14.405857431861605
 31
-5.0
  0
LINE
  5
49
330
17
100
AcDbEntity
  8
0
100
AcDbLine
 10
64.045089453621
 20
37.0831509064552
 30
-5.0
 11
63.81704489014188
 21
29.24153405754476
 31
-5.0
  0
LINE
  5
4A
330
17
100
AcDbEntity
  8
0
100
AcDbLine
 10
64.69100790729917
 20
53.018022404925
 30
-5.0
 11
64.04508945362169
 21
37.083150906455174
 31
-5.0
  0
LINE
  5
4B
330
17
100
AcDbEntity
  8
0
100
AcDbLine
 10
64.44779818512824
 20
55.01802087287402
 30
-5.0
 11
64.69100790729917
 21
53.018022404925
 31
-5.0
  0
LINE
  5
4C
330
17
100
AcDbEntity
  8
0
100
AcDbLine
 10
55.33983579270615
 20
64.1112899345008
 30
-5.0
 11
64.44779818512825
 21
55.01802087287402
 31
-5.0
  0
LINE
  5
4D
330
17
100
AcDbEntity
  8
0
100
AcDbLine
 10
15.650781282237638
 20
64.11128993450079
 30
-5.0
 11
55.339835792706154
 21
64.11128993450079
 31
-5.0
  0
LINE
  5
4E
330
17
100
AcDbEntity
  8
0
100
AcDbLine
 10
15.650781282237636
 20
64.1112899345008
 30
-5.0
 11
11.319852984789236
 21
70.1112899345008
 31
-5.0
  0
LINE
  5
4F
330
17
100
AcDbEntity
  8
0
100
AcDbLine
 10
-6.531569761181608
 20
70.11128993450079
 30
-5.0
 11
11.31985298478924
 21
70.11128993450079
 31
-5.0
  0
LINE
  5
50
330
17
100
AcDbEntity
  8
0
100
AcDbLine
 10
-6.531569761181601
 20
70.1112899345008
 30
-5.0
 11
-10.674399526081011
 21
72.9312899345008
 31
-5.0
  0
LINE
  5
51
330
17
100
AcDbEntity
  8
0
100
AcDbLine
 10
-28.16376297008784
 20
72.9312899345008
 30
-5.0
 11
-10.674399526081014
 21
72.9312899345008
 31
-5.0
  0
LINE
  5
52
330
17
100
AcDbEntity
  8
0
100
AcDbLine
 10
-28.16376297008784
 20
72.9312899345008
 30
-5.0
 11
-30.0319915339359
 21
70.1112899345008
 31
-5.0
  0
LINE
  5
53
330
17
100
AcDbEntity
  8
0
100
AcDbLine
 10
-65.77226814215895
 20
70.11128993450079
 30
-5.0
 11
-30.03199153393589
 21
70.11128993450079
 31
-5.0
  0
LINE
  5
54
330
17
100
AcDbEntity
  8
0
100
AcDbLine
 10
-70.28711845922399
 20
64.32472510701172
 30
-5.0
 11
-65.77226814215899
 21
70.11128993450083
 31
-5.0
  0
LINE
  5
55
330
17
100
AcDbEntity
  8
0
100
AcDbLine
 10
-79.78711845922395
 20
53.82472510701168
 30
-5.0
 11
-70.28711845922393
 21
64.32472510701169
 31
-5.0
  0
LINE
  5
56
330
17
100
AcDbEntity
  8
0
100
AcDbLine
 10
-79.78711845922399
 20
53.8247251070117
 30
-5.0000000000000036
 11
-84.25100694873966
 21
37.889853608541905
 31
-5.0000000000000036
  0
LINE
  5
57
330
17
100
AcDbEntity
  8
0
100
AcDbLine
 10
-84.25100694873964
 20
37.8898536085419
 30
-5.0
 11
-85.3044841731155
 21
32.648114504069525
 31
-5.0
  0
LINE
  5
58
330
17
100
AcDbEntity
  8
0
100
AcDbLine
 10
-85.30448417311548
 20
32.648114504069525
 30
-5.0000000000000036
 11
-87.61516274880375
 21
14.875078247258422
 31
-5.0000000000000036
  0
LINE
  5
59
330
17
100
AcDbEntity
  8
0
100
AcDbLine
 10
-87.97448419752683
 20
9.25
 30
-5.0
 11
-87.61516274880374
 21
14.875078247258422
 31
-5.0
  0
LINE
  5
5A
330
17
100
AcDbEntity
  8
0
100
AcDbLine
 10
-87.97448419752682
 20
9.25
 30
-5.0
 11
-87.97448419752682
 21
-9.25
 31
-5.0
  0
LINE
  5
5B
330
17
100
AcDbEntity
  8
0
100
AcDbLine
 10
-87.9744841975268
 20
-9.249999999999996
 30
-5.0
 11
-87.61516274880371
 21
-14.87507824725842
 31
-5.0
  0
LINE
  5
5C
330
17
100
AcDbEntity
  8
0
100
AcDbLine
 10
-85.31685136953476
 20
-32.552989793662846
 30
-5.0000000000000036
 11
-87.61516274880371
 21
-14.875078247258415
 31
-5.0000000000000036
  0
LINE
  5
5D
330
17
100
AcDbEntity
  8
0
100
AcDbLine
 10
-91.67896520047523
 20
-35.061007480108366
 30
-5.0
 11
-85.31685136953473
 21
-32.55298979366283
 31
-5.0
  0
LINE
  5
5E
330
17
100
AcDbEntity
  8
0
100
AcDbLine
 10
-91.67896520047523
 20
-35.06100748010839
 30
-5.0
 11
-95.9675455088298
 21
-35.43620963970994
 31
-5.0
  0
LINE
  5
5F
330
17
100
AcDbEntity
  8
0
100
AcDbLine
 10
-97.43078966079742
 20
-36.93753333381656
 30
-5.0
 11
-95.9675455088298
 21
-35.436209639709894
 31
-5.0
  0
LINE
  5
60
330
17
100
AcDbEntity
  8
0
100
AcDbLine
 10
-97.43078966079742
 20
-36.93753333381656
 30
-5.0
 11
-102.80270949191106
 21
-54.56204358076545
 31
-5.0
  0
CIRCLE
  5
61
330
17
100
AcDbEntity
  8
0
100
AcDbCircle
 10
-52.6863461683371
 20
-92.59811450406953
 30
-5.0
 40
2.0
  0
CIRCLE
  5
62
330
17
100
AcDbEntity
  8
0
100
AcDbCircle
 10
-81.90982346095957
 20
-27.71159637566397
 30
-5.0
 40
2.0
  0
CIRCLE
  5
63
330
17
100
AcDbEntity
  8
0
100
AcDbCircle
 10
58.05153167296219
 20
47.30728361258563
 30
-5.0
 40
2.0
  0
CIRCLE
  5
64
330
17
100
AcDbEntity
  8
0
100
AcDbCircle
 10
1.3956691431657293
 20
-64.52231545525866
 30
-5.0
 40
2.0
  0
CIRCLE
  5
65
330
17
100
AcDbEntity
  8
0
100
AcDbCircle
 10
1.4865546300396322
 20
65.17183467394631
 30
-5.0
 40
2.0
  0
CIRCLE
  5
66
330
17
100
AcDbEntity
  8
0
100
AcDbCircle
 10
57.303751938498095
 20
-33.593878848238056
 30
-5.0
 40
2.0
  0
CIRCLE
  5
67
330
17
100
AcDbEntity
  8
0
100
AcDbCircle
 10
-77.46906270398176
 20
45.807289357776796
 30
-5.0
 40
2.0
  0
LINE
  5
68
330
17
100
AcDbEntity
  8
0
100
AcDbLine
 10
-102.80270949191106
 20
-54.56204358076545
 30
-5.0
 11
-102.80270949191106
 21
-54.56204358076545
 31
0.0
  0
LINE
  5
69
330
17
100
AcDbEntity
  8
0
100
AcDbLine
 10
-102.78012013857398
 20
-54.65439547782587
 30
-5.0
 11
-102.78012013857398
 21
-54.65439547782587
 31
0.0
  0
LINE
  5
6A
330
17
100
AcDbEntity
  8
0
100
AcDbLine
 10
-102.80270949191109
 20
-54.56204358076546
 30
0.0
 11
-102.780120138574
 21
-54.65439547782589
 31
0.0
  0
LINE
  5
6B
330
17
100
AcDbEntity
  8
0
100
AcDbLine
 10
-97.43078966079742
 20
-36.93753333381656
 30
-5.0
 11
-97.43078966079742
 21
-36.93753333381656
 31
0.0
  0
LINE
  5
6C
330
17
100
AcDbEntity
  8
0
100
AcDbLine
 10
-97.43078966079742
 20
-36.93753333381656
 30
0.0
 11
-102.80270949191106
 21
-54.56204358076545
 31
0.0
  0
LINE
  5
6D
330
17
100
AcDbEntity
  8
0
100
AcDbLine
 10
-101.56150451195637
 20
-55.07811583869532
 30
-5.0
 11
-101.56150451195637
 21
-55.07811583869532
 31
0.0
  0
LINE
  5
6E
330
17
100
AcDbEntity
  8
0
100
AcDbLine
 10
-102.78012013857398
 20
-54.65439547782587
 30
0.0
 11
-101.56150451195637
 21
-55.07811583869532
 31
0.0
  0
LINE
  5
6F
330
17
100
AcDbEntity
  8
0
100
AcDbLine
 10
-95.9675455088298
 20
-35.436209639709894
 30
-5.0
 11
-95.9675455088298
 21
-35.436209639709894
 31
0.0
  0
LINE
  5
70
330
17
100
AcDbEntity
  8
0
100
AcDbLine
 10
-97.43078966079742
 20
-36.93753333381656
 30
0.0
 11
-95.9675455088298
 21
-35.436209639709894
 31
0.0
  0
LINE
  5
71
330
17
100
AcDbEntity
  8
0
100
AcDbLine
 10
-103.181972223417
 20
-56.2980489021944
 30
-5.0
 11
-103.181972223417
 21
-56.2980489021944
 31
0.0
  0
LINE
  5
72
330
17
100
AcDbEntity
  8
0
100
AcDbLine
 10
-101.56150451195637
 20
-55.07811583869532
 30
0.0
 11
-103.181972223417
 21
-56.2980489021944
 31
0.0
  0
LINE
  5
73
330
17
100
AcDbEntity
  8
0
100
AcDbLine
 10
-91.67896520047523
 20
-35.06100748010836
 30
-5.0
 11
-91.67896520047523
 21
-35.06100748010836
 31
0.0
  0
LINE
  5
74
330
17
100
AcDbEntity
  8
0
100
AcDbLine
 10
-91.67896520047523
 20
-35.06100748010839
 30
0.0
 11
-95.9675455088298
 21
-35.43620963970994
 31
0.0
  0
LINE
  5
75
330
17
100
AcDbEntity
  8
0
100
AcDbLine
 10
-120.76276765594096
 20
-70.67109517437274
 30
-5.0
 11
-120.76276765594096
 21
-70.67109517437274
 31
0.0
  0
LINE
  5
76
330
17
100
AcDbEntity
  8
0
100
AcDbLine
 10
-103.181972223417
 20
-56.29804890219441
 30
0.0
 11
-120.76276765594096
 21
-70.67109517437275
 31
0.0
  0
LINE
  5
77
330
17
100
AcDbEntity
  8
0
100
AcDbLine
 10
-85.31685136953475
 20
-32.55298979366284
 30
-5.0
 11
-85.31685136953475
 21
-32.55298979366284
 31
0.0
  0
LINE
  5
78
330
17
100
AcDbEntity
  8
0
100
AcDbLine
 10
-91.67896520047523
 20
-35.061007480108366
 30
0.0
 11
-85.31685136953473
 21
-32.55298979366283
 31
0.0
  0
LINE
  5
79
330
17
100
AcDbEntity
  8
0
100
AcDbLine
 10
-120.83715428248793
 20
-70.73190939802346
 30
-5.0
 11
-120.83715428248793
 21
-70.73190939802346
 31
0.0
  0
LINE
  5
7A
330
17
100
AcDbEntity
  8
0
100
AcDbLine
 10
-120.837154282488
 20
-70.73190939802336
 30
0.0
 11
-120.7627676559409
 21
-70.6710951743728
 31
0.0
  0
LINE
  5
7B
330
17
100
AcDbEntity
  8
0
100
AcDbLine
 10
-87.61516274880371
 20
-14.87507824725842
 30
-5.0
 11
-87.61516274880371
 21
-14.87507824725842
 31
0.0
  0
LINE
  5
7C
330
17
100
AcDbEntity
  8
0
100
AcDbLine
 10
-85.31685136953476
 20
-32.552989793662846
 30
-3.552713678800501e-15
 11
-87.61516274880371
 21
-14.875078247258415
 31
-3.552713678800501e-15
  0
LINE
  5
7D
330
17
100
AcDbEntity
  8
0
100
AcDbLine
 10
-103.85146684079959
 20
-92.00330647233568
 30
-5.0
 11
-103.85146684079959
 21
-92.00330647233568
 31
0.0
  0
LINE
  5
7E
330
17
100
AcDbEntity
  8
0
100
AcDbLine
 10
-120.83715428248793
 20
-70.73190939802348
 30
0.0
 11
-103.8514668407996
 21
-92.00330647233568
 31
0.0
  0
LINE
  5
7F
330
17
100
AcDbEntity
  8
0
100
AcDbLine
 10
-87.97448419752682
 20
-9.25
 30
-5.0
 11
-87.97448419752682
 21
-9.25
 31
0.0
  0
LINE
  5
80
330
17
100
AcDbEntity
  8
0
100
AcDbLine
 10
-87.9744841975268
 20
-9.249999999999996
 30
0.0
 11
-87.61516274880371
 21
-14.87507824725842
 31
0.0
  0
LINE
  5
81
330
17
100
AcDbEntity
  8
0
100
AcDbLine
 10
-94.59559424874845
 20
-96.69415989487351
 30
-5.0
 11
-94.59559424874845
 21
-96.69415989487351
 31
0.0
  0
LINE
  5
82
330
17
100
AcDbEntity
  8
0
100
AcDbLine
 10
-103.85146684079959
 20
-92.00330647233568
 30
0.0
 11
-94.59559424874845
 21
-96.69415989487351
 31
0.0
  0
LINE
  5
83
330
17
100
AcDbEntity
  8
0
100
AcDbLine
 10
-87.97448419752682
 20
9.25
 30
-5.0
 11
-87.97448419752682
 21
9.25
 31
0.0
  0
LINE
  5
84
330
17
100
AcDbEntity
  8
0
100
AcDbLine
 10
-87.97448419752682
 20
9.25
 30
0.0
 11
-87.97448419752682
 21
-9.25
 31
0.0
  0
LINE
  5
85
330
17
100
AcDbEntity
  8
0
100
AcDbLine
 10
-65.19159096498556
 20
-108.08334976307006
 30
-5.0
 11
-65.19159096498556
 21
-108.08334976307006
 31
0.0
  0
LINE
  5
86
330
17
100
AcDbEntity
  8
0
100
AcDbLine
 10
-65.19159096498556
 20
-108.08334976307006
 30
0.0
 11
-94.59559424874845
 21
-96.69415989487351
 31
0.0
  0
LINE
  5
87
330
17
100
AcDbEntity
  8
0
100
AcDbLine
 10
-87.61516274880373
 20
14.875078247258418
 30
-5.0
 11
-87.61516274880373
 21
14.875078247258418
 31
0.0
  0
LINE
  5
88
330
17
100
AcDbEntity
  8
0
100
AcDbLine
 10
-87.97448419752683
 20
9.25
 30
0.0
 11
-87.61516274880374
 21
14.875078247258422
 31
0.0
  0
LINE
  5
89
330
17
100
AcDbEntity
  8
0
100
AcDbLine
 10
-55.351324248358054
 20
-101.84442091202123
 30
-5.0
 11
-55.351324248358054
 21
-101.84442091202123
 31
0.0
  0
LINE
  5
8A
330
17
100
AcDbEntity
  8
0
100
AcDbLine
 10
-65.19159096498558
 20
-108.08334976307006
 30
0.0
 11
-55.35132424835806
 21
-101.84442091202123
 31
0.0
  0
LINE
  5
8B
330
17
100
AcDbEntity
  8
0
100
AcDbLine
 10
-85.30448417311547
 20
32.64811450406952
 30
-5.0
 11
-85.30448417311547
 21
32.64811450406952
 31
0.0
  0
LINE
  5
8C
330
17
100
AcDbEntity
  8
0
100
AcDbLine
 10
-85.30448417311548
 20
32.648114504069525
 30
-3.552713678800501e-15
 11
-87.61516274880375
 21
14.875078247258422
 31
-3.552713678800501e-15
  0
LINE
  5
8D
330
17
100
AcDbEntity
  8
0
100
AcDbLine
 10
-49.79681074894212
 20
-97.82142821070639
 30
-5.0
 11
-49.79681074894212
 21
-97.82142821070639
 31
0.0
  0
LINE
  5
8E
330
17
100
AcDbEntity
  8
0
100
AcDbLine
 10
-49.796810748942136
 20
-97.82142821070637
 30
0.0
 11
-55.35132424835807
 21
-101.84442091202122
 31
0.0
  0
LINE
  5
8F
330
17
100
AcDbEntity
  8
0
100
AcDbLine
 10
-84.25100694873962
 20
37.8898536085419
 30
-5.0
 11
-84.25100694873962
 21
37.8898536085419
 31
0.0
  0
LINE
  5
90
330
17
100
AcDbEntity
  8
0
100
AcDbLine
 10
-84.25100694873964
 20
37.8898536085419
 30
0.0
 11
-85.3044841731155
 21
32.648114504069525
 31
0.0
  0
LINE
  5
91
330
17
100
AcDbEntity
  8
0
100
AcDbLine
 10
-41.01923698868424
 20
-98.1359145760425
 30
-5.0
 11
-41.01923698868424
 21
-98.1359145760425
 31
0.0
  0
LINE
  5
92
330
17
100
AcDbEntity
  8
0
100
AcDbLine
 10
-49.79681074894212
 20
-97.82142821070636
 30
0.0
 11
-41.01923698868424
 21
-98.13591457604245
 31
0.0
  0
LINE
  5
93
330
17
100
AcDbEntity
  8
0
100
AcDbLine
 10
-79.78711845922395
 20
53.82472510701169
 30
-5.0
 11
-79.78711845922395
 21
53.82472510701169
 31
0.0
  0
LINE
  5
94
330
17
100
AcDbEntity
  8
0
100
AcDbLine
 10
-79.78711845922399
 20
53.8247251070117
 30
-3.552713678800501e-15
 11
-84.25100694873966
 21
37.889853608541905
 31
-3.552713678800501e-15
  0
LINE
  5
95
330
17
100
AcDbEntity
  8
0
100
AcDbLine
 10
-27.647410699839106
 20
-89.59103894601341
 30
-5.0
 11
-27.647410699839106
 21
-89.59103894601341
 31
0.0
  0
LINE
  5
96
330
17
100
AcDbEntity
  8
0
100
AcDbLine
 10
-41.01923698868612
 20
-98.13591457603958
 30
0.0
 11
-27.647410699839106
 21
-89.59103894601341
 31
0.0
  0
LINE
  5
97
330
17
100
AcDbEntity
  8
0
100
AcDbLine
 10
-70.28711845922395
 20
64.32472510701169
 30
-5.0
 11
-70.28711845922395
 21
64.32472510701169
 31
0.0
  0
LINE
  5
98
330
17
100
AcDbEntity
  8
0
100
AcDbLine
 10
-79.78711845922395
 20
53.82472510701168
 30
0.0
 11
-70.28711845922393
 21
64.32472510701169
 31
0.0
  0
LINE
  5
99
330
17
100
AcDbEntity
  8
0
100
AcDbLine
 10
-6.531569761181608
 20
-70.1112899345008
 30
-5.0
 11
-6.531569761181608
 21
-70.1112899345008
 31
0.0
  0
LINE
  5
9A
330
17
100
AcDbEntity
  8
0
100
AcDbLine
 10
-6.531569761181611
 20
-70.11128993450079
 30
0.0
 11
-27.647410699839117
 21
-89.5910389460134
 31
0.0
  0
LINE
  5
9B
330
17
100
AcDbEntity
  8
0
100
AcDbLine
 10
-65.77226814215895
 20
70.1112899345008
 30
-5.0
 11
-65.77226814215895
 21
70.1112899345008
 31
0.0
  0
LINE
  5
9C
330
17
100
AcDbEntity
  8
0
100
AcDbLine
 10
-70.28711845922399
 20
64.32472510701172
 30
0.0
 11
-65.77226814215899
 21
70.11128993450083
 31
0.0
  0
LINE
  5
9D
330
17
100
AcDbEntity
  8
0
100
AcDbLine
 10
15.928236574102364
 20
-70.1112899345008
 30
-5.0
 11
15.928236574102364
 21
-70.1112899345008
 31
0.0
  0
LINE
  5
9E
330
17
100
AcDbEntity
  8
0
100
AcDbLine
 10
15.928236574102366
 20
-70.11128993450079
 30
0.0
 11
-6.531569761181608
 21
-70.11128993450079
 31
0.0
  0
LINE
  5
9F
330
17
100
AcDbEntity
  8
0
100
AcDbLine
 10
-30.031991533935898
 20
70.1112899345008
 30
-5.0
 11
-30.031991533935898
 21
70.1112899345008
 31
0.0
  0
LINE
  5
A0
330
17
100
AcDbEntity
  8
0
100
AcDbLine
 10
-65.77226814215895
 20
70.11128993450079
 30
0.0
 11
-30.03199153393589
 21
70.11128993450079
 31
0.0
  0
LINE
  5
A1
330
17
100
AcDbEntity
  8
0
100
AcDbLine
 10
16.767801596599558
 20
-68.11129146655179
 30
-5.0
 11
16.767801596599558
 21
-68.11129146655179
 31
0.0
  0
LINE
  5
A2
330
17
100
AcDbEntity
  8
0
100
AcDbLine
 10
15.92823657410236
 20
-70.1112899345008
 30
0.0
 11
16.767801596599554
 21
-68.11129146655179
 31
0.0
  0
LINE
  5
A3
330
17
100
AcDbEntity
  8
0
100
AcDbLine
 10
-28.16376297008784
 20
72.9312899345008
 30
-5.0
 11
-28.16376297008784
 21
72.9312899345008
 31
0.0
  0
LINE
  5
A4
330
17
100
AcDbEntity
  8
0
100
AcDbLine
 10
-28.16376297008784
 20
72.9312899345008
 30
0.0
 11
-30.0319915339359
 21
70.1112899345008
 31
0.0
  0
LINE
  5
A5
330
17
100
AcDbEntity
  8
0
100
AcDbLine
 10
22.828189959387274
 20
-52.515623748901355
 30
-5.0
 11
22.828189959387274
 21
-52.515623748901355
 31
0.0
  0
LINE
  5
A6
330
17
100
AcDbEntity
  8
0
100
AcDbLine
 10
22.828189959387274
 20
-52.515623748901355
 30
0.0
 11
16.767801596599547
 21
-68.11129146655179
 31
0.0
  0
LINE
  5
A7
330
17
100
AcDbEntity
  8
0
100
AcDbLine
 10
-10.674399526081013
 20
72.9312899345008
 30
-5.0
 11
-10.674399526081013
 21
72.9312899345008
 31
0.0
  0
LINE
  5
A8
330
17
100
AcDbEntity
  8
0
100
AcDbLine
 10
-28.16376297008784
 20
72.9312899345008
 30
0.0
 11
-10.674399526081014
 21
72.9312899345008
 31
0.0
  0
LINE
  5
A9
330
17
100
AcDbEntity
  8
0
100
AcDbLine
 10
54.26183839572468
 20
-52.51562374890135
 30
-5.0
 11
54.26183839572468
 21
-52.51562374890135
 31
0.0
  0
LINE
  5
AA
330
17
100
AcDbEntity
  8
0
100
AcDbLine
 10
22.828189959387274
 20
-52.515623748901355
 30
0.0
 11
54.26183839572468
 21
-52.515623748901355
 31
0.0
  0
LINE
  5
AB
330
17
100
AcDbEntity
  8
0
100
AcDbLine
 10
-6.531569761181608
 20
70.1112899345008
 30
-5.0
 11
-6.531569761181608
 21
70.1112899345008
 31
0.0
  0
LINE
  5
AC
330
17
100
AcDbEntity
  8
0
100
AcDbLine
 10
-6.531569761181601
 20
70.1112899345008
 30
0.0
 11
-10.674399526081011
 21
72.9312899345008
 31
0.0
  0
LINE
  5
AD
330
17
100
AcDbEntity
  8
0
100
AcDbLine
 10
63.54759687653488
 20
-42.37340197191675
 30
-5.0
 11
63.54759687653488
 21
-42.37340197191675
 31
0.0
  0
LINE
  5
AE
330
17
100
AcDbEntity
  8
0
100
AcDbLine
 10
54.26183839572468
 20
-52.51562374890135
 30
0.0
 11
63.54759687653488
 21
-42.37340197191675
 31
0.0
  0
LINE
  5
AF
330
17
100
AcDbEntity
  8
0
100
AcDbLine
 10
11.319852984789238
 20
70.1112899345008
 30
-5.0
 11
11.319852984789238
 21
70.1112899345008
 31
0.0
  0
LINE
  5
B0
330
17
100
AcDbEntity
  8
0
100
AcDbLine
 10
-6.531569761181608
 20
70.11128993450079
 30
0.0
 11
11.31985298478924
 21
70.11128993450079
 31
0.0
  0
LINE
  5
B1
330
17
100
AcDbEntity
  8
0
100
AcDbLine
 10
63.818862020440676
 20
-41.338126645897
 30
-5.0
 11
63.818862020440676
 21
-41.338126645897
 31
0.0
  0
LINE
  5
B2
330
17
100
AcDbEntity
  8
0
100
AcDbLine
 10
63.818862020440676
 20
-41.338126645897
 30
0.0
 11
63.54759687653488
 21
-42.37340197191675
 31
0.0
  0
LINE
  5
B3
330
17
100
AcDbEntity
  8
0
100
AcDbLine
 10
15.650781282237638
 20
64.1112899345008
 30
-5.0
 11
15.650781282237638
 21
64.1112899345008
 31
0.0
  0
LINE
  5
B4
330
17
100
AcDbEntity
  8
0
100
AcDbLine
 10
15.650781282237636
 20
64.1112899345008
 30
0.0
 11
11.319852984789236
 21
70.1112899345008
 31
0.0
  0
LINE
  5
B5
330
17
100
AcDbEntity
  8
0
100
AcDbLine
 10
63.53795145285442
 20
-26.4058574318618
 30
-5.0
 11
63.53795145285442
 21
-26.4058574318618
 31
0.0
  0
LINE
  5
B6
330
17
100
AcDbEntity
  8
0
100
AcDbLine
 10
63.537951452853726
 20
-26.40585743186181
 30
0.0
 11
63.818862020436256
 21
-41.33812664589708
 31
0.0
  0
LINE
  5
B7
330
17
100
AcDbEntity
  8
0
100
AcDbLine
 10
55.33983579270615
 20
64.1112899345008
 30
-5.0
 11
55.33983579270615
 21
64.1112899345008
 31
0.0
  0
LINE
  5
B8
330
17
100
AcDbEntity
  8
0
100
AcDbLine
 10
15.650781282237638
 20
64.11128993450079
 30
0.0
 11
55.339835792706154
 21
64.11128993450079
 31
0.0
  0
LINE
  5
B9
330
17
100
AcDbEntity
  8
0
100
AcDbLine
 10
63.262971093981186
 20
-23.366305870103105
 30
-5.0
 11
63.262971093981186
 21
-23.366305870103105
 31
0.0
  0
LINE
  5
BA
330
17
100
AcDbEntity
  8
0
100
AcDbLine
 10
63.26297109398122
 20
-23.366305870103105
 30
-8.881784197001252e-16
 11
63.537951452854465
 21
-26.405857431861797
 31
-8.881784197001252e-16
  0
LINE
  5
BB
330
17
100
AcDbEntity
  8
0
100
AcDbLine
 10
64.44779818512825
 20
55.01802087287402
 30
-5.0
 11
64.44779818512825
 21
55.01802087287402
 31
0.0
  0
LINE
  5
BC
330
17
100
AcDbEntity
  8
0
100
AcDbLine
 10
55.33983579270615
 20
64.1112899345008
 30
0.0
 11
64.44779818512825
 21
55.01802087287402
 31
0.0
  0
LINE
  5
BD
330
17
100
AcDbEntity
  8
0
100
AcDbLine
 10
62.88519139939758
 20
-15.149999999999999
 30
-5.0
 11
62.88519139939758
 21
-15.149999999999999
 31
0.0
  0
LINE
  5
BE
330
17
100
AcDbEntity
  8
0
100
AcDbLine
 10
63.2629710939812
 20
-23.366305870103105
 30
0.0
 11
62.885191399397584
 21
-15.149999999999999
 31
0.0
  0
LINE
  5
BF
330
17
100
AcDbEntity
  8
0
100
AcDbLine
 10
64.69100790729918
 20
53.018022404925
 30
-5.0
 11
64.69100790729918
 21
53.018022404925
 31
0.0
  0
LINE
  5
C0
330
17
100
AcDbEntity
  8
0
100
AcDbLine
 10
64.44779818512824
 20
55.01802087287402
 30
0.0
 11
64.69100790729917
 21
53.018022404925
 31
0.0
  0
LINE
  5
C1
330
17
100
AcDbEntity
  8
0
100
AcDbLine
 10
62.88519139939758
 20
3.1499999999999986
 30
-5.0
 11
62.88519139939758
 21
3.1499999999999986
 31
0.0
  0
LINE
  5
C2
330
17
100
AcDbEntity
  8
0
100
AcDbLine
 10
62.88519139939758
 20
3.1499999999999986
 30
0.0
 11
62.88519139939758
 21
-15.149999999999999
 31
0.0
  0
LINE
  5
C3
330
17
100
AcDbEntity
  8
0
100
AcDbLine
 10
64.045089453621
 20
37.0831509064552
 30
-5.0
 11
64.045089453621
 21
37.0831509064552
 31
0.0
  0
LINE
  5
C4
330
17
100
AcDbEntity
  8
0
100
AcDbLine
 10
64.69100790729917
 20
53.018022404925
 30
0.0
 11
64.04508945362169
 21
37.083150906455174
 31
0.0
  0
LINE
  5
C5
330
17
100
AcDbEntity
  8
0
100
AcDbLine
 10
63.262971093981186
 20
11.366305870103103
 30
-5.0
 11
63.262971093981186
 21
11.366305870103103
 31
0.0
  0
LINE
  5
C6
330
17
100
AcDbEntity
  8
0
100
AcDbLine
 10
62.885191399397584
 20
3.1499999999999986
 30
0.0
 11
63.262971093981186
 21
11.366305870103101
 31
0.0
  0
LINE
  5
C7
330
17
100
AcDbEntity
  8
0
100
AcDbLine
 10
63.81704489014188
 20
29.24153405754476
 30
-5.0
 11
63.81704489014188
 21
29.24153405754476
 31
0.0
  0
LINE
  5
C8
330
17
100
AcDbEntity
  8
0
100
AcDbLine
 10
64.045089453621
 20
37.0831509064552
 30
0.0
 11
63.81704489014188
 21
29.24153405754476
 31
0.0
  0
LINE
  5
C9
330
17
100
AcDbEntity
  8
0
100
AcDbLine
 10
63.537951452854436
 20
14.405857431861612
 30
-5.0
 11
63.537951452854436
 21
14.405857431861612
 31
0.0
  0
LINE
  5
CA
330
17
100
AcDbEntity
  8
0
100
AcDbLine
 10
63.26297109398122
 20
11.366305870103101
 30
-8.881784197001252e-16
 11
63.53795145285444
 21
14.405857431861612
 31
-8.881784197001252e-16
  0
LINE
  5
CB
330
17
100
AcDbEntity
  8
0
100
AcDbLine
 10
63.81704489014188
 20
29.241534057544776
 30
0.0
 11
63.53795145285485
 21
14.405857431861605
 31
0.0
  0
LINE
  5
CC
330
17
100
AcDbEntity
  8
0
100
AcDbLine
 10
-50.6863461683371
 20
-92.59811450406953
 30
-5.0
 11
-50.6863461683371
 21
-92.59811450406953
 31
-4.0
  0
CIRCLE
  5
CD
330
17
100
AcDbEntity
  8
0
100
AcDbCircle
 10
-52.6863461683371
 20
-92.59811450406953
 30
-4.0
 40
2.0
  0
LINE
  5
CE
330
17
100
AcDbEntity
  8
0
100
AcDbLine
 10
-79.90982346095957
 20
-27.71159637566397
 30
-5.0
 11
-79.90982346095957
 21
-27.71159637566397
 31
-4.0
  0
CIRCLE
  5
CF
330
17
100
AcDbEntity
  8
0
100
AcDbCircle
 10
-81.90982346095957
 20
-27.71159637566397
 30
-4.0
 40
2.0
  0
LINE
  5
D0
330
17
100
AcDbEntity
  8
0
100
AcDbLine
 10
3.3956691431657293
 20
-64.52231545525866
 30
-5.0
 11
3.3956691431657293
 21
-64.52231545525866
 31
-4.0
  0
CIRCLE
  5
D1
330
17
100
AcDbEntity
  8
0
100
AcDbCircle
 10
1.3956691431657293
 20
-64.52231545525866
 30
-4.0
 40
2.0
  0
LINE
  5
D2
330
17
100
AcDbEntity
  8
0
100
AcDbLine
 10
59.303751938498095
 20
-33.593878848238056
 30
-5.0
 11
59.303751938498095
 21
-33.593878848238056
 31
-4.0
  0
CIRCLE
  5
D3
330
17
100
AcDbEntity
  8
0
100
AcDbCircle
 10
57.303751938498095
 20
-33.593878848238056
 30
-4.0
 40
2.0
  0
LINE
  5
D4
330
17
100
AcDbEntity
  8
0
100
AcDbLine
 10
-75.46906270398176
 20
45.807289357776796
 30
-5.0
 11
-75.46906270398176
 21
45.807289357776796
 31
-4.0
  0
CIRCLE
  5
D5
330
17
100
AcDbEntity
  8
0
100
AcDbCircle
 10
-77.46906270398176
 20
45.807289357776796
 30
-4.0
 40
2.0
  0
LINE
  5
D6
330
17
100
AcDbEntity
  8
0
100
AcDbLine
 10
3.486554630039632
 20
65.17183467394631
 30
-5.0
 11
3.486554630039632
 21
65.17183467394631
 31
-4.0
  0
CIRCLE
  5
D7
330
17
100
AcDbEntity
  8
0
100
AcDbCircle
 10
1.4865546300396322
 20
65.17183467394631
 30
-4.0
 40
2.0
  0
LINE
  5
D8
330
17
100
AcDbEntity
  8
0
100
AcDbLine
 10
60.05153167296219
 20
47.30728361258563
 30
-5.0
 11
60.05153167296219
 21
47.30728361258563
 31
-4.0
  0
CIRCLE
  5
D9
330
17
100
AcDbEntity
  8
0
100
AcDbCircle
 10
58.05153167296219
 20
47.30728361258563
 30
-4.0
 40
2.0
  0
CIRCLE
  5
DA
330
17
100
AcDbEntity
  8
0
100
AcDbCircle
 10
-52.68634616833711
 20
-92.59811450406951
 30
0.0
 40
1.525
  0
CIRCLE
  5
DB
330
17
100
AcDbEntity
  8
0
100
AcDbCircle
 10
-81.90982346095959
 20
-27.71159637566397
 30
0.0
 40
1.525
  0
CIRCLE
  5
DC
330
17
100
AcDbEntity
  8
0
100
AcDbCircle
 10
1.3956691431657218
 20
-64.52231545525866
 30
0.0
 40
1.525
  0
CIRCLE
  5
DD
330
17
100
AcDbEntity
  8
0
100
AcDbCircle
 10
57.30375193849808
 20
-33.59387884823805
 30
0.0
 40
1.525
  0
CIRCLE
  5
DE
330
17
100
AcDbEntity
  8
0
100
AcDbCircle
 10
-77.46906270398176
 20
45.807289357776796
 30
0.0
 40
1.525
  0
CIRCLE
  5
DF
330
17
100
AcDbEntity
  8
0
100
AcDbCircle
 10
1.486554630039625
 20
65.1718346739463
 30
0.0
 40
1.525
  0
CIRCLE
  5
E0
330
17
100
AcDbEntity
  8
0
100
AcDbCircle
 10
58.051531672962184
 20
47.30728361258563
 30
0.0
 40
1.525
  0
LINE
  5
E1
330
17
100
AcDbEntity
  8
0
100
AcDbLine
 10
-47.995205930147065
 20
-92.81684199901265
 30
-8.881784197001252e-16
 11
-49.04682301829402
 21
-92.87444155722294
 31
-8.881784197001252e-16
  0
LINE
  5
E2
330
17
100
AcDbEntity
  8
0
100
AcDbLine
 10
-47.995205930147065
 20
-92.81684199901265
 30
0.0
 11
-40.55436086096132
 21
-91.85255543203878
 31
0.0
  0
LINE
  5
E3
330
17
100
AcDbEntity
  8
0
100
AcDbLine
 10
-27.32709485631994
 20
-83.40005683584782
 30
0.0
 11
-40.55436086096132
 21
-91.85255543203878
 31
0.0
  0
LINE
  5
E4
330
17
100
AcDbEntity
  8
0
100
AcDbLine
 10
-27.327094856319928
 20
-83.40005683584783
 30
0.0
 11
-6.346454326724613
 21
-64.12757359193434
 31
0.0
  0
LINE
  5
E5
330
17
100
AcDbEntity
  8
0
100
AcDbLine
 10
-2.2329207015733092
 20
-64.12757359193434
 30
0.0
 11
-6.346454326724622
 21
-64.12757359193434
 31
0.0
  0
ARC
  5
E6
330
17
100
AcDbEntity
  8
0
100
AcDbCircle
 10
1.3956691431657218
 20
-64.52231545525866
 30
0.0
 40
3.6499979999999996
100
AcDbArc
 50
6.2085965471962865
 51
173.7914034528037
  0
LINE
  5
E7
330
17
100
AcDbEntity
  8
0
100
AcDbLine
 10
13.622975992961212
 20
-64.12757359193434
 30
0.0
 11
5.024258987904755
 21
-64.12757359193434
 31
0.0
  0
LINE
  5
E8
330
17
100
AcDbEntity
  8
0
100
AcDbLine
 10
16.712381445759956
 20
-52.515623748901355
 30
0.0
 11
13.622975992961207
 21
-64.12757359193434
 31
0.0
  0
LINE
  5
E9
330
17
100
AcDbEntity
  8
0
100
AcDbLine
 10
16.71238144575996
 20
-52.515623748901355
 30
0.0
 11
13.143219929702841
 21
-52.515623748901355
 31
0.0
  0
LINE
  5
EA
330
17
100
AcDbEntity
  8
0
100
AcDbLine
 10
12.956441438481384
 20
-48.07236468469856
 30
0.0
 11
13.143219929702843
 21
-52.51562374890135
 31
0.0
  0
LINE
  5
EB
330
17
100
AcDbEntity
  8
0
100
AcDbLine
 10
13.562587034634866
 20
-47.03708935867882
 30
0.0
 11
12.956441438481392
 21
-48.07236468469857
 31
0.0
  0
LINE
  5
EC
330
17
100
AcDbEntity
  8
0
100
AcDbLine
 10
54.34976231259958
 20
-47.03708935867883
 30
0.0
 11
13.562587034634863
 21
-47.03708935867883
 31
0.0
  0
LINE
  5
ED
330
17
100
AcDbEntity
  8
0
100
AcDbLine
 10
58.94401054450835
 20
-41.57936891201637
 30
0.0
 11
54.34976231259957
 21
-47.03708935867882
 31
0.0
  0
LINE
  5
EE
330
17
100
AcDbEntity
  8
0
100
AcDbLine
 10
58.944010544508394
 20
-41.579368912018715
 30
0.0
 11
58.9265721035729
 21
-40.652399531843244
 31
0.0
  0
LINE
  5
EF
330
17
100
AcDbEntity
  8
0
100
AcDbLine
 10
58.61762164507659
 20
-36.999202884822424
 30
0.0
 11
58.926572103567786
 21
-40.65239953184354
 31
0.0
  0
ARC
  5
F0
330
17
100
AcDbEntity
  8
0
100
AcDbCircle
 10
57.30375193849808
 20
-33.59387884823805
 30
0.0
 40
3.6499979999999996
100
AcDbArc
 50
78.5699753638253
 51
291.0980158895133
  0
LINE
  5
F1
330
17
100
AcDbEntity
  8
0
100
AcDbLine
 10
57.465157714233285
 20
-23.371848555812807
 30
0.0
 11
58.027075704941154
 21
-30.016269572631973
 31
0.0
  0
LINE
  5
F2
330
17
100
AcDbEntity
  8
0
100
AcDbLine
 10
57.11604618693425
 20
-15.250000000000004
 30
0.0
 11
57.46515771423325
 21
-23.37184855581281
 31
0.0
  0
LINE
  5
F3
330
17
100
AcDbEntity
  8
0
100
AcDbLine
 10
57.11604618693446
 20
-15.249999999999998
 30
0.0
 11
57.11604618693425
 21
3.250000000000001
 31
0.0
  0
LINE
  5
F4
330
17
100
AcDbEntity
  8
0
100
AcDbLine
 10
57.46515771423323
 20
11.371848555812814
 30
0.0
 11
57.11604618693425
 21
3.2499999999999996
 31
0.0
  0
LINE
  5
F5
330
17
100
AcDbEntity
  8
0
100
AcDbLine
 10
58.92657210357099
 20
28.652399531843272
 30
0.0
 11
57.46515771423325
 21
11.371848555812813
 31
0.0
  0
LINE
  5
F6
330
17
100
AcDbEntity
  8
0
100
AcDbLine
 10
58.92657210357097
 20
28.652399531843287
 30
0.0
 11
58.958948145372034
 21
30.37340197191675
 31
0.0
  0
LINE
  5
F7
330
17
100
AcDbEntity
  8
0
100
AcDbLine
 10
59.209720573908555
 20
38.99654681191254
 30
0.0
 11
58.95894814537205
 21
30.37340197191675
 31
0.0
  0
LINE
  5
F8
330
17
100
AcDbEntity
  8
0
100
AcDbLine
 10
59.20972057390855
 20
38.99654681191254
 30
0.0
 11
59.40926014792411
 21
43.91920764114083
 31
0.0
  0
ARC
  5
F9
330
17
100
AcDbEntity
  8
0
100
AcDbCircle
 10
58.051531672962184
 20
47.30728361258563
 30
0.0
 40
3.6499979999999996
100
AcDbArc
 50
63.51976543115099
 51
291.83781846471294
  0
LINE
  5
FA
330
17
100
AcDbEntity
  8
0
100
AcDbLine
 10
59.67902584800167
 20
50.57435387663209
 30
0.0
 11
59.7882633884999
 21
53.26925469690728
 31
0.0
  0
LINE
  5
FB
330
17
100
AcDbEntity
  8
0
100
AcDbLine
 10
55.321812668171354
 20
58.127573591934336
 30
0.0
 11
59.78826338849991
 21
53.269254696907254
 31
0.0
  0
LINE
  5
FC
330
17
100
AcDbEntity
  8
0
100
AcDbLine
 10
55.321812668171376
 20
58.12757359193439
 30
0.0
 11
15.734646569397228
 21
58.1275735919343
 31
0.0
  0
LINE
  5
FD
330
17
100
AcDbEntity
  8
0
100
AcDbLine
 10
15.734646569397233
 20
58.127573591934336
 30
0.0
 11
11.504968419246223
 21
64.12757359193434
 31
0.0
  0
LINE
  5
FE
330
17
100
AcDbEntity
  8
0
100
AcDbLine
 10
11.504968419246225
 20
64.12757359193432
 30
0.0
 11
4.983982855550364
 21
64.12757359193432
 31
0.0
  0
ARC
  5
FF
330
17
100
AcDbEntity
  8
0
100
AcDbCircle
 10
1.486554630039625
 20
65.1718346739463
 30
0.0
 40
3.6499979999999996
100
AcDbArc
 50
196.62455727830405
 51
343.37544272169595
  0
LINE
  5
100
330
17
100
AcDbEntity
  8
0
100
AcDbLine
 10
-2.010873595471114
 20
64.12757359193432
 30
0.0
 11
-6.346454326724622
 21
64.12757359193432
 31
0.0
  0
LINE
  5
101
330
17
100
AcDbEntity
  8
0
100
AcDbLine
 10
-10.389442782180137
 20
66.94757359193433
 30
0.0
 11
-6.346454326724627
 21
64.12757359193434
 31
0.0
  0
LINE
  5
102
330
17
100
AcDbEntity
  8
0
100
AcDbLine
 10
-10.38944278218013
 20
66.94757359193433
 30
0.0
 11
-27.68973202679228
 21
66.94757359193433
 31
0.0
  0
LINE
  5
103
330
17
100
AcDbEntity
  8
0
100
AcDbLine
 10
-27.689732026792285
 20
66.94757359193434
 30
-8.881784197001252e-16
 11
-29.46668994117786
 21
64.12757359193434
 31
-8.881784197001252e-16
  0
LINE
  5
104
330
17
100
AcDbEntity
  8
0
100
AcDbLine
 10
-65.1199981791344
 20
64.12757359193434
 30
0.0
 11
-29.466689941177858
 21
64.12757359193434
 31
0.0
  0
LINE
  5
105
330
17
100
AcDbEntity
  8
0
100
AcDbLine
 10
-65.1199981791344
 20
64.12757359193435
 30
0.0
 11
-70.18711845922397
 21
59.7247251070117
 31
0.0
  0
LINE
  5
106
330
17
100
AcDbEntity
  8
0
100
AcDbLine
 10
-75.18711845922395
 20
53.7247251070117
 30
0.0
 11
-70.18711845922395
 21
59.7247251070117
 31
0.0
  0
LINE
  5
107
330
17
100
AcDbEntity
  8
0
100
AcDbLine
 10
-76.42527063106623
 20
49.304857585634934
 30
-8.881784197001252e-16
 11
-75.18711845922395
 21
53.7247251070117
 31
-8.881784197001252e-16
  0
ARC
  5
108
330
17
100
AcDbEntity
  8
0
100
AcDbCircle
 10
-77.46906270398176
 20
45.807289357776796
 30
0.0
 40
3.6499979999999996
100
AcDbArc
 50
255.3182141505888
 51
433.38312652720793
  0
LINE
  5
109
330
17
100
AcDbEntity
  8
0
100
AcDbLine
 10
-79.65100694873962
 20
37.789853608541904
 30
-8.881784197001252e-16
 11
-78.39415627168232
 21
42.27646972332885
 31
-8.881784197001252e-16
  0
LINE
  5
10A
330
17
100
AcDbEntity
  8
0
100
AcDbLine
 10
-80.70448417311547
 20
32.548114504069524
 30
0.0
 11
-79.65100694873962
 21
37.789853608541904
 31
0.0
  0
LINE
  5
10B
330
17
100
AcDbEntity
  8
0
100
AcDbLine
 10
-83.01516274880375
 20
14.775078247258417
 30
0.0
 11
-80.70448417311549
 21
32.54811450406953
 31
0.0
  0
LINE
  5
10C
330
17
100
AcDbEntity
  8
0
100
AcDbLine
 10
-83.37448419752683
 20
9.149999999999997
 30
0.0
 11
-83.01516274880373
 21
14.775078247258417
 31
0.0
  0
LINE
  5
10D
330
17
100
AcDbEntity
  8
0
100
AcDbLine
 10
-83.37448419752683
 20
-9.149999999999999
 30
0.0
 11
-83.37448419752683
 21
9.149999999999999
 31
0.0
  0
LINE
  5
10E
330
17
100
AcDbEntity
  8
0
100
AcDbLine
 10
-83.37448419752685
 20
-9.149999999999999
 30
0.0
 11
-83.01516274880376
 21
-14.775078247258417
 31
0.0
  0
LINE
  5
10F
330
17
100
AcDbEntity
  8
0
100
AcDbLine
 10
-81.80763304244729
 20
-24.063029188620778
 30
-1.7763568394002505e-15
 11
-83.01516274880373
 21
-14.775078247258417
 31
-1.7763568394002505e-15
  0
ARC
  5
110
330
17
100
AcDbEntity
  8
0
100
AcDbCircle
 10
-81.90982346095959
 20
-27.71159637566397
 30
0.0
 40
3.6499979999999996
100
AcDbArc
 50
286.4193319472122
 51
448.39565805830324
  0
LINE
  5
111
330
17
100
AcDbEntity
  8
0
100
AcDbLine
 10
-80.70448417311547
 20
-32.54811450406953
 30
-1.7763568394002505e-15
 11
-80.87809634128011
 21
-31.212742552349816
 31
-1.7763568394002505e-15
  0
LINE
  5
112
330
17
100
AcDbEntity
  8
0
100
AcDbLine
 10
-80.70448417311547
 20
-32.548114504069524
 30
0.0
 11
-80.70448417311547
 21
-32.64811450406952
 31
0.0
  0
LINE
  5
113
330
17
100
AcDbEntity
  8
0
100
AcDbLine
 10
-86.93503576495232
 20
-36.113602062165874
 30
-8.881784197001252e-16
 11
-80.70448417311547
 21
-32.648114504069525
 31
-8.881784197001252e-16
  0
LINE
  5
114
330
17
100
AcDbEntity
  8
0
100
AcDbLine
 10
-88.15898839463567
 20
-36.2206840419559
 30
0.0
 11
-86.93503576495232
 21
-36.11360206216587
 31
0.0
  0
LINE
  5
115
330
17
100
AcDbEntity
  8
0
100
AcDbLine
 10
-88.15898839463566
 20
-36.22068404195589
 30
0.0
 11
-93.10085897481129
 21
-52.43426343585099
 31
0.0
  0
LINE
  5
116
330
17
100
AcDbEntity
  8
0
100
AcDbLine
 10
-93.1008589748113
 20
-52.434263435850994
 30
0.0
 11
-94.77921588615193
 21
-54.815923567988634
 31
0.0
  0
LINE
  5
117
330
17
100
AcDbEntity
  8
0
100
AcDbLine
 10
-95.10617582871171
 20
-56.44242854581563
 30
0.0
 11
-94.7792158861519
 21
-54.81592356798862
 31
0.0
  0
LINE
  5
118
330
17
100
AcDbEntity
  8
0
100
AcDbLine
 10
-95.10617582871174
 20
-56.44242854581563
 30
-8.881784197001252e-16
 11
-95.41699726184052
 21
-57.906350068358904
 31
-8.881784197001252e-16
  0
LINE
  5
119
330
17
100
AcDbEntity
  8
0
100
AcDbLine
 10
-112.47068145595668
 20
-71.7703325011555
 30
0.0
 11
-95.41699726184049
 21
-57.906350068358925
 31
0.0
  0
LINE
  5
11A
330
17
100
AcDbEntity
  8
0
100
AcDbLine
 10
-112.47068145595935
 20
-71.77033250115223
 30
0.0
 11
-99.24870088620314
 21
-88.41249780175372
 31
0.0
  0
LINE
  5
11B
330
17
100
AcDbEntity
  8
0
100
AcDbLine
 10
-99.24870088620312
 20
-88.41249780175369
 30
0.0
 11
-80.5311825636566
 21
-96.63009596305955
 31
0.0
  0
LINE
  5
11C
330
17
100
AcDbEntity
  8
0
100
AcDbLine
 10
-68.58933236687037
 20
-103.21835790923136
 30
0.0
 11
-80.53118256365661
 21
-96.63009596305957
 31
0.0
  0
LINE
  5
11D
330
17
100
AcDbEntity
  8
0
100
AcDbLine
 10
-55.55231061535592
 20
-94.85836519556997
 30
0.0
 11
-68.58933236686174
 21
-103.21835790924482
 31
0.0
  0
ARC
  5
11E
330
17
100
AcDbEntity
  8
0
100
AcDbCircle
 10
-52.68634616833711
 20
-92.59811450406951
 30
0.0
 40
3.6499979999999996
100
AcDbArc
 50
355.658206746689
 51
578.2611748491955
  0
CIRCLE
  5
11F
330
17
100
AcDbEntity
  8
0
100
AcDbCircle
 10
-52.68634616833711
 20
-92.59811450406951
 30
-4.0
 40
1.525
  0
CIRCLE
  5
120
330
17
100
AcDbEntity
  8
0
100
AcDbCircle
 10
-81.90982346095959
 20
-27.71159637566397
 30
-4.0
 40
1.525
  0
CIRCLE
  5
121
330
17
100
AcDbEntity
  8
0
100
AcDbCircle
 10
1.3956691431657218
 20
-64.52231545525866
 30
-4.0
 40
1.525
  0
CIRCLE
  5
122
330
17
100
AcDbEntity
  8
0
100
AcDbCircle
 10
57.30375193849808
 20
-33.59387884823805
 30
-4.0
 40
1.525
  0
CIRCLE
  5
123
330
17
100
AcDbEntity
  8
0
100
AcDbCircle
 10
-77.46906270398176
 20
45.807289357776796
 30
-4.0
 40
1.525
  0
CIRCLE
  5
124
330
17
100
AcDbEntity
  8
0
100
AcDbCircle
 10
1.486554630039625
 20
65.1718346739463
 30
-4.0
 40
1.525
  0
CIRCLE
  5
125
330
17
100
AcDbEntity
  8
0
100
AcDbCircle
 10
58.051531672962184
 20
47.30728361258563
 30
-4.0
 40
1.525
  0
LINE
  5
126
330
17
100
AcDbEntity
  8
0
100
AcDbLine
 10
-51.16134616833711
 20
-92.59811450406951
 30
-4.0
 11
-51.16134616833711
 21
-92.59811450406951
 31
0.0
  0
LINE
  5
127
330
17
100
AcDbEntity
  8
0
100
AcDbLine
 10
-80.38482346095958
 20
-27.71159637566397
 30
-4.0
 11
-80.38482346095958
 21
-27.71159637566397
 31
0.0
  0
LINE
  5
128
330
17
100
AcDbEntity
  8
0
100
AcDbLine
 10
2.9206691431657217
 20
-64.52231545525866
 30
-4.0
 11
2.9206691431657217
 21
-64.52231545525866
 31
0.0
  0
LINE
  5
129
330
17
100
AcDbEntity
  8
0
100
AcDbLine
 10
58.82875193849808
 20
-33.59387884823805
 30
-4.0
 11
58.82875193849808
 21
-33.59387884823805
 31
0.0
  0
LINE
  5
12A
330
17
100
AcDbEntity
  8
0
100
AcDbLine
 10
-75.94406270398176
 20
45.807289357776796
 30
-4.0
 11
-75.94406270398176
 21
45.807289357776796
 31
0.0
  0
LINE
  5
12B
330
17
100
AcDbEntity
  8
0
100
AcDbLine
 10
3.011554630039625
 20
65.1718346739463
 30
-4.0
 11
3.011554630039625
 21
65.1718346739463
 31
0.0
  0
LINE
  5
12C
330
17
100
AcDbEntity
  8
0
100
AcDbLine
 10
59.57653167296218
 20
47.30728361258563
 30
-4.0
 11
59.57653167296218
 21
47.30728361258563
 31
0.0
  0
LINE
  5
12D
330
17
100
AcDbEntity
  8
0
100
AcDbLine
 10
-47.995205930147065
 20
-92.81684199901265
 30
-2.000000000000001
 11
-49.04682301829402
 21
-92.87444155722294
 31
-2.000000000000001
  0
LINE
  5
12E
330
17
100
AcDbEntity
  8
0
100
AcDbLine
 10
-49.04682301829402
 20
-92.87444155722295
 30
-1.9999999999999987
 11
-49.04682301829402
 21
-92.87444155722295
 31
1.7763568394002505e-15
  0
LINE
  5
12F
330
17
100
AcDbEntity
  8
0
100
AcDbLine
 10
-47.995205930147065
 20
-92.81684199901265
 30
-2.0
 11
-47.995205930147065
 21
-92.81684199901265
 31
0.0
  0
LINE
  5
130
330
17
100
AcDbEntity
  8
0
100
AcDbLine
 10
-47.995205930147065
 20
-92.81684199901265
 30
-2.0
 11
-40.55436086096132
 21
-91.85255543203878
 31
-2.0
  0
LINE
  5
131
330
17
100
AcDbEntity
  8
0
100
AcDbLine
 10
-40.55436086096132
 20
-91.85255543203878
 30
-2.0
 11
-40.55436086096132
 21
-91.85255543203878
 31
0.0
  0
LINE
  5
132
330
17
100
AcDbEntity
  8
0
100
AcDbLine
 10
-27.32709485631994
 20
-83.40005683584782
 30
-1.9999999999999996
 11
-40.55436086096132
 21
-91.85255543203878
 31
-1.9999999999999996
  0
LINE
  5
133
330
17
100
AcDbEntity
  8
0
100
AcDbLine
 10
-27.32709485631993
 20
-83.40005683584783
 30
-2.0
 11
-27.32709485631993
 21
-83.40005683584783
 31
0.0
  0
LINE
  5
134
330
17
100
AcDbEntity
  8
0
100
AcDbLine
 10
-27.327094856319928
 20
-83.40005683584783
 30
-2.0
 11
-6.346454326724613
 21
-64.12757359193434
 31
-2.0
  0
LINE
  5
135
330
17
100
AcDbEntity
  8
0
100
AcDbLine
 10
-6.346454326724622
 20
-64.12757359193434
 30
-2.0
 11
-6.346454326724622
 21
-64.12757359193434
 31
0.0
  0
LINE
  5
136
330
17
100
AcDbEntity
  8
0
100
AcDbLine
 10
-2.2329207015733092
 20
-64.12757359193434
 30
-2.0
 11
-6.346454326724622
 21
-64.12757359193434
 31
-2.0
  0
LINE
  5
137
330
17
100
AcDbEntity
  8
0
100
AcDbLine
 10
-2.2329207015733097
 20
-64.12757359193434
 30
-2.0000000000000004
 11
-2.2329207015733097
 21
-64.12757359193434
 31
0.0
  0
ARC
  5
138
330
17
100
AcDbEntity
  8
0
100
AcDbCircle
 10
1.3956691431657218
 20
-64.52231545525866
 30
-2.0
 40
3.6499979999999996
100
AcDbArc
 50
6.2085965471962865
 51
173.7914034528037
  0
LINE
  5
139
330
17
100
AcDbEntity
  8
0
100
AcDbLine
 10
5.024258987904755
 20
-64.12757359193434
 30
-2.0
 11
5.024258987904755
 21
-64.12757359193434
 31
0.0
  0
LINE
  5
13A
330
17
100
AcDbEntity
  8
0
100
AcDbLine
 10
13.622975992961212
 20
-64.12757359193434
 30
-2.0
 11
5.024258987904755
 21
-64.12757359193434
 31
-2.0
  0
LINE
  5
13B
330
17
100
AcDbEntity
  8
0
100
AcDbLine
 10
13.622975992961209
 20
-64.12757359193434
 30
-2.0
 11
13.622975992961209
 21
-64.12757359193434
 31
0.0
  0
LINE
  5
13C
330
17
100
AcDbEntity
  8
0
100
AcDbLine
 10
16.712381445759956
 20
-52.515623748901355
 30
-2.0
 11
13.622975992961207
 21
-64.12757359193434
 31
-2.0
  0
LINE
  5
13D
330
17
100
AcDbEntity
  8
0
100
AcDbLine
 10
16.712381445759952
 20
-52.515623748901355
 30
-2.0
 11
16.712381445759952
 21
-52.515623748901355
 31
0.0
  0
LINE
  5
13E
330
17
100
AcDbEntity
  8
0
100
AcDbLine
 10
16.71238144575996
 20
-52.515623748901355
 30
-2.0
 11
13.143219929702841
 21
-52.515623748901355
 31
-2.0
  0
LINE
  5
13F
330
17
100
AcDbEntity
  8
0
100
AcDbLine
 10
13.143219929702845
 20
-52.51562374890135
 30
-2.0
 11
13.143219929702845
 21
-52.51562374890135
 31
0.0
  0
LINE
  5
140
330
17
100
AcDbEntity
  8
0
100
AcDbLine
 10
12.956441438481384
 20
-48.07236468469856
 30
-2.0
 11
13.143219929702843
 21
-52.51562374890135
 31
-2.0
  0
LINE
  5
141
330
17
100
AcDbEntity
  8
0
100
AcDbLine
 10
12.956441438481388
 20
-48.07236468469857
 30
-2.0
 11
12.956441438481388
 21
-48.07236468469857
 31
0.0
  0
LINE
  5
142
330
17
100
AcDbEntity
  8
0
100
AcDbLine
 10
13.562587034634866
 20
-47.03708935867882
 30
-2.0
 11
12.956441438481392
 21
-48.07236468469857
 31
-2.0
  0
LINE
  5
143
330
17
100
AcDbEntity
  8
0
100
AcDbLine
 10
13.562587034634863
 20
-47.03708935867882
 30
-2.0
 11
13.562587034634863
 21
-47.03708935867882
 31
0.0
  0
LINE
  5
144
330
17
100
AcDbEntity
  8
0
100
AcDbLine
 10
54.34976231259958
 20
-47.03708935867883
 30
-2.0
 11
13.562587034634863
 21
-47.03708935867883
 31
-2.0
  0
LINE
  5
145
330
17
100
AcDbEntity
  8
0
100
AcDbLine
 10
54.34976231259957
 20
-47.03708935867882
 30
-2.0
 11
54.34976231259957
 21
-47.03708935867882
 31
0.0
  0
LINE
  5
146
330
17
100
AcDbEntity
  8
0
100
AcDbLine
 10
58.94401054450835
 20
-41.57936891201637
 30
-2.0
 11
54.34976231259957
 21
-47.03708935867882
 31
-2.0
  0
LINE
  5
147
330
17
100
AcDbEntity
  8
0
100
AcDbLine
 10
58.944010544508345
 20
-41.57936891201637
 30
-2.0
 11
58.944010544508345
 21
-41.57936891201637
 31
0.0
  0
LINE
  5
148
330
17
100
AcDbEntity
  8
0
100
AcDbLine
 10
58.944010544508394
 20
-41.579368912018715
 30
-2.0
 11
58.9265721035729
 21
-40.652399531843244
 31
-2.0
  0
LINE
  5
149
330
17
100
AcDbEntity
  8
0
100
AcDbLine
 10
58.926572103570976
 20
-40.65239953184328
 30
-2.0
 11
58.926572103570976
 21
-40.65239953184328
 31
0.0
  0
LINE
  5
14A
330
17
100
AcDbEntity
  8
0
100
AcDbLine
 10
58.61762164507659
 20
-36.999202884822424
 30
-2.0
 11
58.926572103567786
 21
-40.65239953184354
 31
-2.0
  0
LINE
  5
14B
330
17
100
AcDbEntity
  8
0
100
AcDbLine
 10
58.617621645076575
 20
-36.99920288482243
 30
-1.9999999999999956
 11
58.617621645076575
 21
-36.99920288482243
 31
4.440892098500626e-15
  0
ARC
  5
14C
330
17
100
AcDbEntity
  8
0
100
AcDbCircle
 10
57.30375193849808
 20
-33.59387884823805
 30
-2.0
 40
3.6499979999999996
100
AcDbArc
 50
78.5699753638253
 51
291.0980158895133
  0
LINE
  5
14D
330
17
100
AcDbEntity
  8
0
100
AcDbLine
 10
58.02707570494115
 20
-30.016269572631977
 30
-1.9999999999999991
 11
58.02707570494115
 21
-30.016269572631977
 31
8.881784197001252e-16
  0
LINE
  5
14E
330
17
100
AcDbEntity
  8
0
100
AcDbLine
 10
57.465157714233285
 20
-23.371848555812807
 30
-2.0
 11
58.027075704941154
 21
-30.016269572631973
 31
-2.0
  0
LINE
  5
14F
330
17
100
AcDbEntity
  8
0
100
AcDbLine
 10
57.465157714233236
 20
-23.371848555812814
 30
-2.0
 11
57.465157714233236
 21
-23.371848555812814
 31
0.0
  0
LINE
  5
150
330
17
100
AcDbEntity
  8
0
100
AcDbLine
 10
57.11604618693425
 20
-15.250000000000004
 30
-2.0
 11
57.46515771423325
 21
-23.37184855581281
 31
-2.0
  0
LINE
  5
151
330
17
100
AcDbEntity
  8
0
100
AcDbLine
 10
57.116046186934256
 20
-15.25
 30
-2.0
 11
57.116046186934256
 21
-15.25
 31
0.0
  0
LINE
  5
152
330
17
100
AcDbEntity
  8
0
100
AcDbLine
 10
57.11604618693446
 20
-15.249999999999998
 30
-2.0
 11
57.11604618693425
 21
3.250000000000001
 31
-2.0
  0
LINE
  5
153
330
17
100
AcDbEntity
  8
0
100
AcDbLine
 10
57.116046186934256
 20
3.25
 30
-2.0
 11
57.116046186934256
 21
3.25
 31
0.0
  0
LINE
  5
154
330
17
100
AcDbEntity
  8
0
100
AcDbLine
 10
57.46515771423323
 20
11.371848555812814
 30
-2.0
 11
57.11604618693425
 21
3.2499999999999996
 31
-2.0
  0
LINE
  5
155
330
17
100
AcDbEntity
  8
0
100
AcDbLine
 10
57.465157714233236
 20
11.371848555812814
 30
-2.0
 11
57.465157714233236
 21
11.371848555812814
 31
0.0
  0
LINE
  5
156
330
17
100
AcDbEntity
  8
0
100
AcDbLine
 10
58.92657210357099
 20
28.652399531843272
 30
-2.0000000000000004
 11
57.46515771423325
 21
11.371848555812813
 31
-2.0000000000000004
  0
LINE
  5
157
330
17
100
AcDbEntity
  8
0
100
AcDbLine
 10
58.926572103570976
 20
28.65239953184328
 30
-2.0
 11
58.926572103570976
 21
28.65239953184328
 31
0.0
  0
LINE
  5
158
330
17
100
AcDbEntity
  8
0
100
AcDbLine
 10
58.92657210357097
 20
28.652399531843287
 30
-2.0
 11
58.958948145372034
 21
30.37340197191675
 31
-2.0
  0
LINE
  5
159
330
17
100
AcDbEntity
  8
0
100
AcDbLine
 10
58.95894814537204
 20
30.37340197191675
 30
-2.0
 11
58.95894814537204
 21
30.37340197191675
 31
0.0
  0
LINE
  5
15A
330
17
100
AcDbEntity
  8
0
100
AcDbLine
 10
59.209720573908555
 20
38.99654681191254
 30
-2.0
 11
58.95894814537205
 21
30.37340197191675
 31
-2.0
  0
LINE
  5
15B
330
17
100
AcDbEntity
  8
0
100
AcDbLine
 10
59.20972057390855
 20
38.99654681191254
 30
-2.0
 11
59.20972057390855
 21
38.99654681191254
 31
0.0
  0
LINE
  5
15C
330
17
100
AcDbEntity
  8
0
100
AcDbLine
 10
59.20972057390855
 20
38.99654681191254
 30
-2.0
 11
59.40926014792411
 21
43.91920764114083
 31
-2.0
  0
LINE
  5
15D
330
17
100
AcDbEntity
  8
0
100
AcDbLine
 10
59.409260147924094
 20
43.91920764114083
 30
-2.0
 11
59.409260147924094
 21
43.91920764114083
 31
0.0
  0
ARC
  5
15E
330
17
100
AcDbEntity
  8
0
100
AcDbCircle
 10
58.051531672962184
 20
47.30728361258563
 30
-2.0
 40
3.6499979999999996
100
AcDbArc
 50
63.51976543115099
 51
291.83781846471294
  0
LINE
  5
15F
330
17
100
AcDbEntity
  8
0
100
AcDbLine
 10
59.679025848001665
 20
50.57435387663209
 30
-2.0
 11
59.679025848001665
 21
50.57435387663209
 31
0.0
  0
LINE
  5
160
330
17
100
AcDbEntity
  8
0
100
AcDbLine
 10
59.67902584800167
 20
50.57435387663209
 30
-2.0
 11
59.7882633884999
 21
53.26925469690728
 31
-2.0
  0
LINE
  5
161
330
17
100
AcDbEntity
  8
0
100
AcDbLine
 10
59.7882633884999
 20
53.26925469690727
 30
-2.0
 11
59.7882633884999
 21
53.26925469690727
 31
0.0
  0
LINE
  5
162
330
17
100
AcDbEntity
  8
0
100
AcDbLine
 10
55.321812668171354
 20
58.127573591934336
 30
-2.0
 11
59.78826338849991
 21
53.269254696907254
 31
-2.0
  0
LINE
  5
163
330
17
100
AcDbEntity
  8
0
100
AcDbLine
 10
55.321812668171376
 20
58.127573591934336
 30
-2.0
 11
55.321812668171376
 21
58.127573591934336
 31
0.0
  0
LINE
  5
164
330
17
100
AcDbEntity
  8
0
100
AcDbLine
 10
55.321812668171376
 20
58.12757359193439
 30
-2.0
 11
15.734646569397228
 21
58.1275735919343
 31
-2.0
  0
LINE
  5
165
330
17
100
AcDbEntity
  8
0
100
AcDbLine
 10
15.73464656939723
 20
58.127573591934336
 30
-2.0
 11
15.73464656939723
 21
58.127573591934336
 31
0.0
  0
LINE
  5
166
330
17
100
AcDbEntity
  8
0
100
AcDbLine
 10
15.734646569397233
 20
58.127573591934336
 30
-2.0
 11
11.504968419246223
 21
64.12757359193434
 31
-2.0
  0
LINE
  5
167
330
17
100
AcDbEntity
  8
0
100
AcDbLine
 10
11.504968419246223
 20
64.12757359193434
 30
-2.0
 11
11.504968419246223
 21
64.12757359193434
 31
0.0
  0
LINE
  5
168
330
17
100
AcDbEntity
  8
0
100
AcDbLine
 10
11.504968419246225
 20
64.12757359193432
 30
-2.0
 11
4.983982855550364
 21
64.12757359193432
 31
-2.0
  0
LINE
  5
169
330
17
100
AcDbEntity
  8
0
100
AcDbLine
 10
4.983982855550364
 20
64.12757359193432
 30
-2.0
 11
4.983982855550364
 21
64.12757359193432
 31
0.0
  0
ARC
  5
16A
330
17
100
AcDbEntity
  8
0
100
AcDbCircle
 10
1.486554630039625
 20
65.1718346739463
 30
-2.0
 40
3.6499979999999996
100
AcDbArc
 50
196.62455727830405
 51
343.37544272169595
  0
LINE
  5
16B
330
17
100
AcDbEntity
  8
0
100
AcDbLine
 10
-2.010873595471114
 20
64.12757359193432
 30
-2.0
 11
-2.010873595471114
 21
64.12757359193432
 31
0.0
  0
LINE
  5
16C
330
17
100
AcDbEntity
  8
0
100
AcDbLine
 10
-2.010873595471114
 20
64.12757359193432
 30
-2.0
 11
-6.346454326724622
 21
64.12757359193432
 31
-2.0
  0
LINE
  5
16D
330
17
100
AcDbEntity
  8
0
100
AcDbLine
 10
-6.346454326724622
 20
64.12757359193434
 30
-2.0
 11
-6.346454326724622
 21
64.12757359193434
 31
0.0
  0
LINE
  5
16E
330
17
100
AcDbEntity
  8
0
100
AcDbLine
 10
-10.389442782180137
 20
66.94757359193433
 30
-2.0
 11
-6.346454326724627
 21
64.12757359193434
 31
-2.0
  0
LINE
  5
16F
330
17
100
AcDbEntity
  8
0
100
AcDbLine
 10
-10.38944278218013
 20
66.94757359193433
 30
-2.0
 11
-10.38944278218013
 21
66.94757359193433
 31
0.0
  0
LINE
  5
170
330
17
100
AcDbEntity
  8
0
100
AcDbLine
 10
-10.38944278218013
 20
66.94757359193433
 30
-2.0
 11
-27.68973202679228
 21
66.94757359193433
 31
-2.0
  0
LINE
  5
171
330
17
100
AcDbEntity
  8
0
100
AcDbLine
 10
-27.68973202679228
 20
66.94757359193433
 30
-2.0
 11
-27.68973202679228
 21
66.94757359193433
 31
0.0
  0
LINE
  5
172
330
17
100
AcDbEntity
  8
0
100
AcDbLine
 10
-27.689732026792285
 20
66.94757359193434
 30
-2.000000000000001
 11
-29.46668994117786
 21
64.12757359193434
 31
-2.000000000000001
  0
LINE
  5
173
330
17
100
AcDbEntity
  8
0
100
AcDbLine
 10
-29.466689941177858
 20
64.12757359193434
 30
-2.0
 11
-29.466689941177858
 21
64.12757359193434
 31
0.0
  0
LINE
  5
174
330
17
100
AcDbEntity
  8
0
100
AcDbLine
 10
-65.1199981791344
 20
64.12757359193434
 30
-2.0
 11
-29.466689941177858
 21
64.12757359193434
 31
-2.0
  0
LINE
  5
175
330
17
100
AcDbEntity
  8
0
100
AcDbLine
 10
-65.11999817913438
 20
64.12757359193434
 30
-2.0
 11
-65.11999817913438
 21
64.12757359193434
 31
0.0
  0
LINE
  5
176
330
17
100
AcDbEntity
  8
0
100
AcDbLine
 10
-65.1199981791344
 20
64.12757359193435
 30
-2.0
 11
-70.18711845922397
 21
59.7247251070117
 31
-2.0
  0
LINE
  5
177
330
17
100
AcDbEntity
  8
0
100
AcDbLine
 10
-70.18711845922395
 20
59.72472510701169
 30
-2.0
 11
-70.18711845922395
 21
59.72472510701169
 31
0.0
  0
LINE
  5
178
330
17
100
AcDbEntity
  8
0
100
AcDbLine
 10
-75.18711845922395
 20
53.7247251070117
 30
-2.0
 11
-70.18711845922395
 21
59.7247251070117
 31
-2.0
  0
LINE
  5
179
330
17
100
AcDbEntity
  8
0
100
AcDbLine
 10
-75.18711845922395
 20
53.72472510701169
 30
-2.0
 11
-75.18711845922395
 21
53.72472510701169
 31
0.0
  0
LINE
  5
17A
330
17
100
AcDbEntity
  8
0
100
AcDbLine
 10
-76.42527063106623
 20
49.304857585634934
 30
-2.000000000000001
 11
-75.18711845922395
 21
53.7247251070117
 31
-2.000000000000001
  0
LINE
  5
17B
330
17
100
AcDbEntity
  8
0
100
AcDbLine
 10
-76.42527063106623
 20
49.30485758563493
 30
-1.9999999999999996
 11
-76.42527063106623
 21
49.30485758563493
 31
0.0
  0
ARC
  5
17C
330
17
100
AcDbEntity
  8
0
100
AcDbCircle
 10
-77.46906270398176
 20
45.807289357776796
 30
-2.0
 40
3.6499979999999996
100
AcDbArc
 50
255.3182141505888
 51
433.38312652720793
  0
LINE
  5
17D
330
17
100
AcDbEntity
  8
0
100
AcDbLine
 10
-78.3941562716823
 20
42.276469723328844
 30
-2.0
 11
-78.3941562716823
 21
42.276469723328844
 31
0.0
  0
LINE
  5
17E
330
17
100
AcDbEntity
  8
0
100
AcDbLine
 10
-79.65100694873962
 20
37.789853608541904
 30
-2.000000000000001
 11
-78.39415627168232
 21
42.27646972332885
 31
-2.000000000000001
  0
LINE
  5
17F
330
17
100
AcDbEntity
  8
0
100
AcDbLine
 10
-79.65100694873962
 20
37.789853608541904
 30
-2.0
 11
-79.65100694873962
 21
37.789853608541904
 31
0.0
  0
LINE
  5
180
330
17
100
AcDbEntity
  8
0
100
AcDbLine
 10
-80.70448417311547
 20
32.548114504069524
 30
-2.0
 11
-79.65100694873962
 21
37.789853608541904
 31
-2.0
  0
LINE
  5
181
330
17
100
AcDbEntity
  8
0
100
AcDbLine
 10
-80.70448417311547
 20
32.548114504069524
 30
-2.0
 11
-80.70448417311547
 21
32.548114504069524
 31
0.0
  0
LINE
  5
182
330
17
100
AcDbEntity
  8
0
100
AcDbLine
 10
-83.01516274880375
 20
14.775078247258417
 30
-2.0
 11
-80.70448417311549
 21
32.54811450406953
 31
-2.0
  0
LINE
  5
183
330
17
100
AcDbEntity
  8
0
100
AcDbLine
 10
-83.01516274880373
 20
14.775078247258417
 30
-2.0
 11
-83.01516274880373
 21
14.775078247258417
 31
0.0
  0
LINE
  5
184
330
17
100
AcDbEntity
  8
0
100
AcDbLine
 10
-83.37448419752683
 20
9.149999999999997
 30
-2.0
 11
-83.01516274880373
 21
14.775078247258417
 31
-2.0
  0
LINE
  5
185
330
17
100
AcDbEntity
  8
0
100
AcDbLine
 10
-83.37448419752683
 20
9.149999999999999
 30
-2.0
 11
-83.37448419752683
 21
9.149999999999999
 31
0.0
  0
LINE
  5
186
330
17
100
AcDbEntity
  8
0
100
AcDbLine
 10
-83.37448419752683
 20
-9.149999999999999
 30
-2.0
 11
-83.37448419752683
 21
9.149999999999999
 31
-2.0
  0
LINE
  5
187
330
17
100
AcDbEntity
  8
0
100
AcDbLine
 10
-83.37448419752683
 20
-9.149999999999999
 30
-2.0
 11
-83.37448419752683
 21
-9.149999999999999
 31
0.0
  0
LINE
  5
188
330
17
100
AcDbEntity
  8
0
100
AcDbLine
 10
-83.37448419752685
 20
-9.149999999999999
 30
-2.0
 11
-83.01516274880376
 21
-14.775078247258417
 31
-2.0
  0
LINE
  5
189
330
17
100
AcDbEntity
  8
0
100
AcDbLine
 10
-83.01516274880373
 20
-14.775078247258417
 30
-2.0
 11
-83.01516274880373
 21
-14.775078247258417
 31
0.0
  0
LINE
  5
18A
330
17
100
AcDbEntity
  8
0
100
AcDbLine
 10
-81.80763304244729
 20
-24.063029188620778
 30
-2.0000000000000018
 11
-83.01516274880373
 21
-14.775078247258417
 31
-2.0000000000000018
  0
LINE
  5
18B
330
17
100
AcDbEntity
  8
0
100
AcDbLine
 10
-81.80763304244726
 20
-24.063029188620774
 30
-1.9999999999999996
 11
-81.80763304244726
 21
-24.063029188620774
 31
0.0
  0
ARC
  5
18C
330
17
100
AcDbEntity
  8
0
100
AcDbCircle
 10
-81.90982346095959
 20
-27.71159637566397
 30
-2.0
 40
3.6499979999999996
100
AcDbArc
 50
286.4193319472122
 51
448.39565805830324
  0
LINE
  5
18D
330
17
100
AcDbEntity
  8
0
100
AcDbLine
 10
-80.87809634128011
 20
-31.212742552349813
 30
-2.0
 11
-80.87809634128011
 21
-31.212742552349813
 31
0.0
  0
LINE
  5
18E
330
17
100
AcDbEntity
  8
0
100
AcDbLine
 10
-80.70448417311547
 20
-32.54811450406953
 30
-2.0000000000000018
 11
-80.87809634128011
 21
-31.212742552349816
 31
-2.0000000000000018
  0
LINE
  5
18F
330
17
100
AcDbEntity
  8
0
100
AcDbLine
 10
-80.70448417311547
 20
-32.548114504069524
 30
-2.0
 11
-80.70448417311547
 21
-32.548114504069524
 31
0.0
  0
LINE
  5
190
330
17
100
AcDbEntity
  8
0
100
AcDbLine
 10
-80.70448417311547
 20
-32.548114504069524
 30
-2.0
 11
-80.70448417311547
 21
-32.64811450406952
 31
-2.0
  0
LINE
  5
191
330
17
100
AcDbEntity
  8
0
100
AcDbLine
 10
-80.70448417311547
 20
-32.64811450406952
 30
-2.0
 11
-80.70448417311547
 21
-32.64811450406952
 31
0.0
  0
LINE
  5
192
330
17
100
AcDbEntity
  8
0
100
AcDbLine
 10
-86.93503576495232
 20
-36.113602062165874
 30
-2.000000000000001
 11
-80.70448417311547
 21
-32.648114504069525
 31
-2.000000000000001
  0
LINE
  5
193
330
17
100
AcDbEntity
  8
0
100
AcDbLine
 10
-86.93503576495232
 20
-36.11360206216587
 30
-2.0
 11
-86.93503576495232
 21
-36.11360206216587
 31
0.0
  0
LINE
  5
194
330
17
100
AcDbEntity
  8
0
100
AcDbLine
 10
-88.15898839463567
 20
-36.2206840419559
 30
-2.0
 11
-86.93503576495232
 21
-36.11360206216587
 31
-2.0
  0
LINE
  5
195
330
17
100
AcDbEntity
  8
0
100
AcDbLine
 10
-88.15898839463566
 20
-36.220684041955906
 30
-2.0
 11
-88.15898839463566
 21
-36.220684041955906
 31
0.0
  0
LINE
  5
196
330
17
100
AcDbEntity
  8
0
100
AcDbLine
 10
-88.15898839463566
 20
-36.22068404195589
 30
-2.0
 11
-93.10085897481129
 21
-52.43426343585099
 31
-2.0
  0
LINE
  5
197
330
17
100
AcDbEntity
  8
0
100
AcDbLine
 10
-93.10085897481129
 20
-52.434263435850994
 30
-2.0
 11
-93.10085897481129
 21
-52.434263435850994
 31
0.0
  0
LINE
  5
198
330
17
100
AcDbEntity
  8
0
100
AcDbLine
 10
-93.1008589748113
 20
-52.434263435850994
 30
-1.9999999999999996
 11
-94.77921588615193
 21
-54.815923567988634
 31
-1.9999999999999996
  0
LINE
  5
199
330
17
100
AcDbEntity
  8
0
100
AcDbLine
 10
-94.77921588615192
 20
-54.81592356798861
 30
-2.0
 11
-94.77921588615192
 21
-54.81592356798861
 31
0.0
  0
LINE
  5
19A
330
17
100
AcDbEntity
  8
0
100
AcDbLine
 10
-95.10617582871171
 20
-56.44242854581563
 30
-2.0
 11
-94.7792158861519
 21
-54.81592356798862
 31
-2.0
  0
LINE
  5
19B
330
17
100
AcDbEntity
  8
0
100
AcDbLine
 10
-95.10617582871171
 20
-56.44242854581564
 30
-2.0
 11
-95.10617582871171
 21
-56.44242854581564
 31
0.0
  0
LINE
  5
19C
330
17
100
AcDbEntity
  8
0
100
AcDbLine
 10
-95.10617582871174
 20
-56.44242854581563
 30
-2.000000000000001
 11
-95.41699726184052
 21
-57.906350068358904
 31
-2.000000000000001
  0
LINE
  5
19D
330
17
100
AcDbEntity
  8
0
100
AcDbLine
 10
-95.4169972618405
 20
-57.90635006835891
 30
-2.0
 11
-95.4169972618405
 21
-57.90635006835891
 31
0.0
  0
LINE
  5
19E
330
17
100
AcDbEntity
  8
0
100
AcDbLine
 10
-112.47068145595668
 20
-71.7703325011555
 30
-2.0
 11
-95.41699726184049
 21
-57.906350068358925
 31
-2.0
  0
LINE
  5
19F
330
17
100
AcDbEntity
  8
0
100
AcDbLine
 10
-112.47068145595934
 20
-71.77033250115221
 30
-2.0
 11
-112.47068145595934
 21
-71.77033250115221
 31
0.0
  0
LINE
  5
1A0
330
17
100
AcDbEntity
  8
0
100
AcDbLine
 10
-112.47068145595935
 20
-71.77033250115223
 30
-2.0
 11
-99.24870088620314
 21
-88.41249780175372
 31
-2.0
  0
LINE
  5
1A1
330
17
100
AcDbEntity
  8
0
100
AcDbLine
 10
-99.24870088620314
 20
-88.41249780175372
 30
-2.0
 11
-99.24870088620314
 21
-88.41249780175372
 31
0.0
  0
LINE
  5
1A2
330
17
100
AcDbEntity
  8
0
100
AcDbLine
 10
-99.24870088620312
 20
-88.41249780175369
 30
-2.0
 11
-80.5311825636566
 21
-96.63009596305955
 31
-2.0
  0
LINE
  5
1A3
330
17
100
AcDbEntity
  8
0
100
AcDbLine
 10
-80.53118256365661
 20
-96.63009596305957
 30
-1.9999999999999991
 11
-80.53118256365661
 21
-96.63009596305957
 31
8.881784197001252e-16
  0
LINE
  5
1A4
330
17
100
AcDbEntity
  8
0
100
AcDbLine
 10
-68.58933236687037
 20
-103.21835790923136
 30
-2.0
 11
-80.53118256365661
 21
-96.63009596305957
 31
-2.0
  0
LINE
  5
1A5
330
17
100
AcDbEntity
  8
0
100
AcDbLine
 10
-68.58933236687037
 20
-103.21835790923136
 30
-2.0
 11
-68.58933236687037
 21
-103.21835790923136
 31
0.0
  0
LINE
  5
1A6
330
17
100
AcDbEntity
  8
0
100
AcDbLine
 10
-55.55231061535592
 20
-94.85836519556997
 30
-2.0
 11
-68.58933236686174
 21
-103.21835790924482
 31
-2.0
  0
LINE
  5
1A7
330
17
100
AcDbEntity
  8
0
100
AcDbLine
 10
-55.552310615355914
 20
-94.85836519556996
 30
-2.000000000000005
 11
-55.552310615355914
 21
-94.85836519556996
 31
-4.440892098500626e-15
  0
ARC
  5
1A8
330
17
100
AcDbEntity
  8
0
100
AcDbCircle
 10
-52.68634616833711
 20
-92.59811450406951
 30
-2.0
 40
3.6499979999999996
100
AcDbArc
 50
355.658206746689
 51
578.2611748491955
  0
ENDSEC
  0
SECTION
  2
OBJECTS
  0
DICTIONARY
  5
A
330
0
100
AcDbDictionary
281
1
  3
ACAD_COLOR
350
B
  3
ACAD_GROUP
350
C
  3
ACAD_LAYOUT
350
D
  3
ACAD_MATERIAL
350
E
  3
ACAD_MLEADERSTYLE
350
F
  3
ACAD_MLINESTYLE
350
10
  3
ACAD_PLOTSETTINGS
350
11
  3
ACAD_PLOTSTYLENAME
350
12
  3
ACAD_SCALELIST
350
14
  3
ACAD_TABLESTYLE
350
15
  3
ACAD_VISUALSTYLE
350
16
  3
EZDXF_META
350
2D
  0
DICTIONARY
  5
B
330
A
100
AcDbDictionary
281
1
  0
DICTIONARY
  5
C
330
A
100
AcDbDictionary
281
1
  0
DICTIONARY
  5
D
330
A
100
AcDbDictionary
281
1
  3
Model
350
1A
  3
Layout1
350
1E
  0
DICTIONARY
  5
E
330
A
100
AcDbDictionary
281
1
  3
ByBlock
350
1F
  3
ByLayer
350
20
  3
Global
350
21
  0
DICTIONARY
  5
F
330
A
100
AcDbDictionary
281
1
  3
Standard
350
2C
  0
DICTIONARY
  5
10
330
A
100
AcDbDictionary
281
1
  3
Standard
350
22
  0
DICTIONARY
  5
11
330
A
100
AcDbDictionary
281
1
  0
ACDBDICTIONARYWDFLT
  5
12
330
A
100
AcDbDictionary
281
1
  3
Normal
350
13
100
AcDbDictionaryWithDefault
340
13
  0
ACDBPLACEHOLDER
  5
13
330
12
  0
DICTIONARY
  5
14
330
A
100
AcDbDictionary
281
1
  0
DICTIONARY
  5
15
330
A
100
AcDbDictionary
281
1
  0
DICTIONARY
  5
16
330
A
100
AcDbDictionary
281
1
  0
LAYOUT
  5
1A
330
D
100
AcDbPlotSettings
  1

  2
Adobe PDF
  4
A3
  6

 40
7.5
 41
20.0
 42
7.5
 43
20.0
 44
420.0
 45
297.0
 46
0.0
 47
0.0
 48
0.0
 49
0.0
140
0.0
141
0.0
142
1.0
143
1.0
 70
1024
 72
1
 73
1
 74
5
  7

 75
16
 76
0
 77
2
 78
300
147
1.0
148
0.0
149
0.0
100
AcDbLayout
  1
Model
 70
1
 71
0
 10
0.0
 20
0.0
 11
420.0
 21
297.0
 12
0.0
 22
0.0
 32
0.0
 14
1e+20
 24
1e+20
 34
1e+20
 15
-1e+20
 25
-1e+20
 35
-1e+20
146
0.0
 13
0.0
 23
0.0
 33
0.0
 16
1.0
 26
0.0
 36
0.0
 17
0.0
 27
1.0
 37
0.0
 76
1
330
17
  0
LAYOUT
  5
1E
330
D
100
AcDbPlotSettings
  1

  2
Adobe PDF
  4
A3
  6

 40
7.5
 41
20.0
 42
7.5
 43
20.0
 44
420.0
 45
297.0
 46
0.0
 47
0.0
 48
0.0
 49
0.0
140
0.0
141
0.0
142
1.0
143
1.0
 70
0
 72
1
 73
1
 74
5
  7

 75
16
 76
0
 77
2
 78
300
147
1.0
148
0.0
149
0.0
100
AcDbLayout
  1
Layout1
 70
1
 71
1
 10
0.0
 20
0.0
 11
420.0
 21
297.0
 12
0.0
 22
0.0
 32
0.0
 14
1e+20
 24
1e+20
 34
1e+20
 15
-1e+20
 25
-1e+20
 35
-1e+20
146
0.0
 13
0.0
 23
0.0
 33
0.0
 16
1.0
 26
0.0
 36
0.0
 17
0.0
 27
1.0
 37
0.0
 76
1
330
1B
  0
MATERIAL
  5
1F
102
{ACAD_REACTORS
330
E
102
}
330
E
100
AcDbMaterial
  1
ByBlock
  2

 70
0
 40
1.0
 71
1
 41
1.0
 91
-1023410177
 42
1.0
 72
1
  3

 73
1
 74
1
 75
1
 44
0.5
 73
0
 45
1.0
 46
1.0
 77
1
  4

 78
1
 79
1
170
1
 48
1.0
171
1
  6

172
1
173
1
174
1
140
1.0
141
1.0
175
1
  7

176
1
177
1
178
1
143
1.0
179
1
  8

270
1
271
1
272
1
145
1.0
146
1.0
273
1
  9

274
1
275
1
276
1
 42
1.0
 72
1
  3

 73
1
 74
1
 75
1
 94
63
  0
MATERIAL
  5
20
102
{ACAD_REACTORS
330
E
102
}
330
E
100
AcDbMaterial
  1
ByLayer
  2

 70
0
 40
1.0
 71
1
 41
1.0
 91
-1023410177
 42
1.0
 72
1
  3

 73
1
 74
1
 75
1
 44
0.5
 73
0
 45
1.0
 46
1.0
 77
1
  4

 78
1
 79
1
170
1
 48
1.0
171
1
  6

172
1
173
1
174
1
140
1.0
141
1.0
175
1
  7

176
1
177
1
178
1
143
1.0
179
1
  8

270
1
271
1
272
1
145
1.0
146
1.0
273
1
  9

274
1
275
1
276
1
 42
1.0
 72
1
  3

 73
1
 74
1
 75
1
 94
63
  0
MATERIAL
  5
21
102
{ACAD_REACTORS
330
E
102
}
330
E
100
AcDbMaterial
  1
Global
  2

 70
0
 40
1.0
 71
1
 41
1.0
 91
-1023410177
 42
1.0
 72
1
  3

 73
1
 74
1
 75
1
 44
0.5
 73
0
 45
1.0
 46
1.0
 77
1
  4

 78
1
 79
1
170
1
 48
1.0
171
1
  6

172
1
173
1
174
1
140
1.0
141
1.0
175
1
  7

176
1
177
1
178
1
143
1.0
179
1
  8

270
1
271
1
272
1
145
1.0
146
1.0
273
1
  9

274
1
275
1
276
1
 42
1.0
 72
1
  3

 73
1
 74
1
 75
1
 94
63
  0
MLINESTYLE
  5
22
102
{ACAD_REACTORS
330
10
102
}
330
10
100
AcDbMlineStyle
  2
Standard
 70
0
  3

 62
256
 51
90.0
 52
90.0
 71
2
 49
0.5
 62
256
  6
BYLAYER
 49
-0.5
 62
256
  6
BYLAYER
  0
MLEADERSTYLE
  5
2C
102
{ACAD_REACTORS
330
F
102
}
330
F
100
AcDbMLeaderStyle
179
2
170
2
171
1
172
0
 90
2
 40
0.0
 41
0.0
173
1
 91
-1056964608
 92
-2
290
1
 42
2.0
291
1
 43
8.0
  3
Standard
 44
4.0
300

342
29
174
1
175
1
176
0
178
1
 93
-1056964608
 45
4.0
292
0
297
0
 46
4.0
 94
-1056964608
 47
1.0
 49
1.0
140
1.0
294
1
141
0.0
177
0
142
1.0
295
0
296
0
143
3.75
271
0
272
9
273
9
  0
DICTIONARY
  5
2D
330
A
100
AcDbDictionary
280
1
281
1
  3
CREATED_BY_EZDXF
350
2E
  3
WRITTEN_BY_EZDXF
350
1AB
  0
DICTIONARYVAR
  5
2E
330
2D
100
DictionaryVariables
280
0
  1
0.17.2 @ 2022-09-23T21:32:11.937953+00:00
  0
DICTIONARYVAR
  5
1AB
330
2D
100
DictionaryVariables
280
0
  1
0.17.2 @ 2022-09-23T21:32:11.968864+00:00
  0
ENDSEC
  0
EOF
